<?xml version="1.0" encoding="UTF-8"?>
<svg width="24px" height="24px" viewBox="0 0 24 24" version="1.1" xmlns="http://www.w3.org/2000/svg" xmlns:xlink="http://www.w3.org/1999/xlink">
    <title>编组 6</title>
    <g id="页面-1" stroke="none" stroke-width="1" fill="none" fill-rule="evenodd">
        <g id="icon-新-1218" transform="translate(-128.000000, -770.000000)" fill="#FD9800">
            <g id="左二级导航" transform="translate(100.000000, 0.000000)">
                <g id="编组-6" transform="translate(28.000000, 770.000000)">
                    <rect id="Rectangle-3" opacity="0.100000001" x="0" y="0" width="24" height="24" rx="6"></rect>
                    <path d="M12,3 C16.1808619,3 19.7830151,5.87377595 20.7496864,9.88431111 C20.8790991,10.4212197 20.5487584,10.9613798 20.0118499,11.0907925 C19.4749413,11.2202051 18.9347812,10.8898645 18.8053685,10.3529559 C18.0540198,7.23575345 15.2516002,5 12,5 C8.13400675,5 5,8.13400675 5,12 C5,13.3420648 5.3773367,14.6258908 6.07825663,15.7346297 C6.17425306,15.8864801 6.22712572,16.0606437 6.23253595,16.2385932 L6.22762663,16.3724758 L6,18.555 L8.58994105,18.2910062 C8.72213088,18.2775405 8.85522404,18.290595 8.98154305,18.3289096 L9.10531965,18.3755976 C10.0059528,18.7852551 10.9868684,19 12,19 C12.5522847,19 13,19.4477153 13,20 C13,20.5522847 12.5522847,21 12,21 C10.8297851,21 9.68963466,20.7760137 8.62810965,20.3467742 L8.535,20.306 L4.98002176,20.6690863 C4.38849148,20.7293434 3.88513429,20.2657141 3.87860888,19.6877411 L3.88404931,19.5707432 L4.203,16.499 L4.04941334,16.2210817 C3.41775944,15.0337828 3.05806114,13.7142831 3.00646053,12.343671 L3,12 C3,7.02943725 7.02943725,3 12,3 Z M17,13 C17.5522847,13 18,13.4477153 18,14 L18,16 L20,16 C20.5522847,16 21,16.4477153 21,17 C21,17.5522847 20.5522847,18 20,18 L17.999,18 L18,20 C18,20.5522847 17.5522847,21 17,21 C16.4477153,21 16,20.5522847 16,20 L15.999,18 L14,18 C13.4477153,18 13,17.5522847 13,17 C13,16.4477153 13.4477153,16 14,16 L16,16 L16,14 C16,13.4477153 16.4477153,13 17,13 Z" id="形状结合"></path>
                </g>
            </g>
        </g>
    </g>
</svg>