<?xml version="1.0" standalone="no"?><!DOCTYPE svg PUBLIC "-//W3C//DTD SVG 1.1//EN" "http://www.w3.org/Graphics/SVG/1.1/DTD/svg11.dtd"><svg t="1638771516994" class="icon" viewBox="0 0 1024 1024" version="1.1" xmlns="http://www.w3.org/2000/svg" p-id="14140" xmlns:xlink="http://www.w3.org/1999/xlink" width="64" height="64"><defs><style type="text/css"></style></defs><path d="M818.13 479.91c0-109.54-89.12-198.66-198.67-198.66S420.8 370.37 420.8 479.91a198.32 198.32 0 0 0 70.74 151.88A338.56 338.56 0 0 0 282.6 918.93a36 36 0 0 0 33.18 38.62c0.93 0.06 1.85 0.1 2.76 0.1a36 36 0 0 0 35.86-33.28 266.23 266.23 0 0 1 265.43-245.79h0.37c109.21-0.41 197.93-89.37 197.93-198.67zM619.46 353.25A126.67 126.67 0 1 1 492.8 479.91a126.81 126.81 0 0 1 126.66-126.66zM923.5 795.32h-55.43v-55.43a36 36 0 0 0-72 0v55.43h-55.43a36 36 0 0 0 0 72h55.43v55.43a36 36 0 0 0 72 0v-55.43h55.43a36 36 0 0 0 0-72z" p-id="14141" fill="#ffffff"></path><path d="M402.47 390.6h-1.01a126.67 126.67 0 1 1 126.67-126.85 233 233 0 0 1 71.19-17.63C590.29 144.88 505 65.25 401.46 65.25c-109.54 0-198.66 89.12-198.66 198.66a198.32 198.32 0 0 0 70.74 151.88A338.56 338.56 0 0 0 64.6 702.93a36 36 0 0 0 33.18 38.62c0.93 0.07 1.85 0.1 2.76 0.1a36 36 0 0 0 35.86-33.28 266.21 266.21 0 0 1 249-245.27 233.2 233.2 0 0 1 17.07-72.5z" p-id="14142" fill="#ffffff"></path></svg>