<?xml version="1.0" encoding="UTF-8"?>
<svg width="12px" height="12px" viewBox="0 0 12 12" version="1.1" xmlns="http://www.w3.org/2000/svg" xmlns:xlink="http://www.w3.org/1999/xlink">
    <title>icon/s/follow</title>
    <g id="页面-1" stroke="none" stroke-width="1" fill="none" fill-rule="evenodd">
        <g id="Community-Governance" transform="translate(-1262.000000, -398.000000)">
            <g id="二级导航" transform="translate(306.000000, 376.000000)">
                <g id="编组-21备份" transform="translate(940.000000, 10.000000)">
                    <g id="icon/add/s" transform="translate(16.000000, 12.000000)">
                        <g id="Group-31">
                            <rect id="Rectangle-82" x="0" y="0" width="12" height="12"></rect>
                        </g>
                        <path d="M6.0020752,1 C6.27821757,1 6.5020752,1.22385763 6.5020752,1.5 L6.502,5.5 L10.5,5.5 C10.7761424,5.5 11,5.72385763 11,6 C11,6.27614237 10.7761424,6.5 10.5,6.5 L6.502,6.5 L6.5020752,10.5 C6.5020752,10.7761424 6.27821757,11 6.0020752,11 C5.72593282,11 5.5020752,10.7761424 5.5020752,10.5 L5.502,6.5 L1.5,6.5 C1.22385763,6.5 1,6.27614237 1,6 C1,5.72385763 1.22385763,5.5 1.5,5.5 L5.502,5.5 L5.5020752,1.5 C5.5020752,1.22385763 5.72593282,1 6.0020752,1 Z" id="Combined-Shape" fill="#242629"></path>
                    </g>
                </g>
            </g>
        </g>
    </g>
</svg>