<?xml version="1.0" standalone="no"?><!DOCTYPE svg PUBLIC "-//W3C//DTD SVG 1.1//EN" "http://www.w3.org/Graphics/SVG/1.1/DTD/svg11.dtd"><svg t="1638770492172" class="icon" viewBox="0 0 1024 1024" version="1.1" xmlns="http://www.w3.org/2000/svg" p-id="3233" xmlns:xlink="http://www.w3.org/1999/xlink" width="64" height="64"><defs><style type="text/css"></style></defs><path d="M256 78.769231H137.846154C104.369231 78.769231 78.769231 104.369231 78.769231 137.846154v118.153846c0 33.476923 25.6 59.076923 59.076923 59.076923h118.153846c33.476923 0 59.076923-25.6 59.076923-59.076923V137.846154c0-33.476923-25.6-59.076923-59.076923-59.076923z m0 630.153846H137.846154c-33.476923 0-59.076923 25.6-59.076923 59.076923v118.153846c0 33.476923 25.6 59.076923 59.076923 59.076923h118.153846c33.476923 0 59.076923-25.6 59.076923-59.076923v-118.153846c0-33.476923-25.6-59.076923-59.076923-59.076923z m0-315.076923H137.846154c-33.476923 0-59.076923 25.6-59.076923 59.076923v118.153846c0 33.476923 25.6 59.076923 59.076923 59.076923h118.153846c33.476923 0 59.076923-25.6 59.076923-59.076923v-118.153846c0-33.476923-25.6-59.076923-59.076923-59.076923zM571.076923 78.769231h-118.153846c-33.476923 0-59.076923 25.6-59.076923 59.076923v118.153846c0 33.476923 25.6 59.076923 59.076923 59.076923h118.153846c33.476923 0 59.076923-25.6 59.076923-59.076923V137.846154c0-33.476923-25.6-59.076923-59.076923-59.076923z m0 630.153846h-118.153846c-33.476923 0-59.076923 25.6-59.076923 59.076923v118.153846c0 33.476923 25.6 59.076923 59.076923 59.076923h118.153846c33.476923 0 59.076923-25.6 59.076923-59.076923v-118.153846c0-33.476923-25.6-59.076923-59.076923-59.076923z m0-315.076923h-118.153846c-33.476923 0-59.076923 25.6-59.076923 59.076923v118.153846c0 33.476923 25.6 59.076923 59.076923 59.076923h118.153846c33.476923 0 59.076923-25.6 59.076923-59.076923v-118.153846c0-33.476923-25.6-59.076923-59.076923-59.076923zM886.153846 78.769231h-118.153846c-33.476923 0-59.076923 25.6-59.076923 59.076923v118.153846c0 33.476923 25.6 59.076923 59.076923 59.076923h118.153846c33.476923 0 59.076923-25.6 59.076923-59.076923V137.846154c0-33.476923-25.6-59.076923-59.076923-59.076923z m0 630.153846h-118.153846c-33.476923 0-59.076923 25.6-59.076923 59.076923v118.153846c0 33.476923 25.6 59.076923 59.076923 59.076923h118.153846c33.476923 0 59.076923-25.6 59.076923-59.076923v-118.153846c0-33.476923-25.6-59.076923-59.076923-59.076923z m0-315.076923h-118.153846c-33.476923 0-59.076923 25.6-59.076923 59.076923v118.153846c0 33.476923 25.6 59.076923 59.076923 59.076923h118.153846c33.476923 0 59.076923-25.6 59.076923-59.076923v-118.153846c0-33.476923-25.6-59.076923-59.076923-59.076923z" p-id="3234" fill="#ffffff"></path></svg>