<?xml version="1.0" encoding="UTF-8"?>
<svg width="16px" height="16px" viewBox="0 0 16 16" version="1.1" xmlns="http://www.w3.org/2000/svg" xmlns:xlink="http://www.w3.org/1999/xlink">
    <title>icon_copy_16</title>
    <g id="页面-1" stroke="none" stroke-width="1" fill="none" fill-rule="evenodd">
        <g id="Community-Members" transform="translate(-1228.000000, -337.000000)">
            <g id="右侧面板备份" transform="translate(972.000000, 100.000000)">
                <g id="编组-3" transform="translate(157.000000, 237.000000)">
                    <g id="编组-7" transform="translate(99.000000, 0.000000)">
                        <rect id="矩形" x="0" y="0" width="16" height="16"></rect>
                        <path d="M11.5,10.5 L11.5,12.2777778 C11.5,13.5050772 10.3807119,14.5 9,14.5 L4,14.5 C2.61928813,14.5 1.5,13.5050772 1.5,12.2777778 L1.5,6.72222222 C1.5,5.49492278 2.61928813,4.5 4,4.5 L5.5,4.5 L5.5,3.5 C5.5,2.3954305 6.50735931,1.5 7.75,1.5 L12.25,1.5 C13.4926407,1.5 14.5,2.3954305 14.5,3.5 L14.5,8.5 C14.5,9.6045695 13.4926407,10.5 12.25,10.5 L11.5,10.5 Z M9.3,6 L3.7,6 C3.35635616,6 3.07054828,6.20635435 3.01127794,6.47847843 L3,6.58333333 L3,12.4166667 C3,12.7030365 3.24762522,12.9412098 3.57417411,12.9906017 L3.7,13 L9.3,13 C9.64364384,13 9.92945172,12.7936456 9.98872206,12.5215216 L10,12.4166667 L10,6.58333333 C10,6.29696346 9.75237478,6.05879023 9.42582589,6.00939828 L9.3,6 Z M11.5,9 L12.4,9 C12.6945519,9 12.93953,8.82312484 12.9903332,8.58987563 L13,8.5 L13,3.5 C13,3.25454011 12.7877498,3.05039163 12.5078508,3.00805567 L12.4,3 L7.6,3 C7.30544813,3 7.06046996,3.17687516 7.0096668,3.41012437 L7,3.5 L7,4.5 L9,4.5 C10.3807119,4.5 11.5,5.49492278 11.5,6.72222222 L11.5,9 Z" id="形状结合" fill="#747576" fill-rule="nonzero"></path>
                    </g>
                </g>
            </g>
        </g>
    </g>
</svg>