<?xml version="1.0" standalone="no"?><!DOCTYPE svg PUBLIC "-//W3C//DTD SVG 1.1//EN" "http://www.w3.org/Graphics/SVG/1.1/DTD/svg11.dtd"><svg t="1629965387315" class="icon" viewBox="0 0 1024 1024" version="1.1" xmlns="http://www.w3.org/2000/svg" p-id="2082" xmlns:xlink="http://www.w3.org/1999/xlink" width="64" height="64"><defs><style type="text/css"></style></defs><path d="M783.058824 662.588235c-32.828235 0-63.186824 9.456941-89.750588 24.816941l-139.866353-147.817412 377.072941-398.396235-43.791059-41.441882-374.723765 395.986824-374.844235-395.986824-43.730824 41.441882 377.072941 398.396235-139.866353 147.757176c-26.503529-15.299765-56.922353-24.756706-89.690353-24.756706-99.629176 0-180.705882 81.076706-180.705882 180.705882s81.076706 180.705882 180.705882 180.705882 180.705882-81.076706 180.705882-180.705882c0-44.995765-17.167059-85.775059-44.453647-117.398588l134.806588-142.456471 134.806588 142.456471c-27.346824 31.683765-44.453647 72.402824-44.453647 117.398588 0 99.629176 81.076706 180.705882 180.705882 180.705882s180.705882-81.076706 180.705882-180.705882-81.076706-180.705882-180.705882-180.705882zM240.941176 963.764706c-66.439529 0-120.470588-54.031059-120.470588-120.470588s54.031059-120.470588 120.470588-120.470588 120.470588 54.031059 120.470588 120.470588-54.031059 120.470588-120.470588 120.470588zM783.058824 963.764706c-66.439529 0-120.470588-54.031059-120.470588-120.470588s54.031059-120.470588 120.470588-120.470588 120.470588 54.031059 120.470588 120.470588-54.031059 120.470588-120.470588 120.470588z" p-id="2083" fill="#ffffff"></path></svg>