<?xml version="1.0" encoding="UTF-8"?>
<svg width="796px" height="197px" viewBox="0 0 796 197" version="1.1" xmlns="http://www.w3.org/2000/svg" xmlns:xlink="http://www.w3.org/1999/xlink">
    <title>形状结合</title>
    <defs>
        <linearGradient x1="0%" y1="47.9352429%" x2="100%" y2="53.0657325%" id="linearGradient-1">
            <stop stop-color="#3F75D5" offset="0%"></stop>
            <stop stop-color="#D27947" offset="100%"></stop>
        </linearGradient>
        <path d="M236.615623,213.998328 C248.129045,215.326692 248.129045,215.326692 258.78,218.08 C279.36,223.4 279.36,223.4 293.78,235.3 C308.2,247.2 308.2,247.2 314.78,266.24 C321.36,285.28 321.36,285.28 317.72,312.44 C314.36,336.52 314.36,336.52 302.74,354.86 C291.12,373.2 291.12,373.2 274.04,385.66 C256.96,398.12 256.96,398.12 235.82,404.56 C214.68,411 214.68,411 192.56,411 L192.56,411 L121.16,411 L148.706,213.999328 Z M473.125,213.999328 L531.28,411 L482,411 L470.8,369 L393.8,369 L371.4,411 L323.24,411 L435.93,213.999328 L473.125,213.999328 Z M682.074702,213.998413 C686.765153,214.622137 686.765153,214.622137 691.22,215.56 C704.52,218.36 704.52,218.36 713.76,225.22 C723,232.08 723,232.08 727.48,243.7 C731.96,255.32 731.96,255.32 729.44,272.96 C726.92,290.32 726.92,290.32 719.64,302.08 C712.36,313.84 712.36,313.84 701.58,320.84 C690.8,327.84 690.8,327.84 676.94,330.78 C663.08,333.72 663.08,333.72 647.4,333.72 L647.4,333.72 L615.48,333.72 L604.84,411 L561.16,411 L588.706,213.999328 Z M868.474702,213.998413 C873.165153,214.622137 873.165153,214.622137 877.62,215.56 C890.92,218.36 890.92,218.36 900.16,225.22 C909.4,232.08 909.4,232.08 913.88,243.7 C918.36,255.32 918.36,255.32 915.84,272.96 C913.32,290.32 913.32,290.32 906.04,302.08 C898.76,313.84 898.76,313.84 887.98,320.84 C877.2,327.84 877.2,327.84 863.34,330.78 C849.48,333.72 849.48,333.72 833.8,333.72 L833.8,333.72 L801.88,333.72 L791.24,411 L747.56,411 L775.106,213.999328 Z M212.72,253.08 L186.96,253.08 L170.44,370.68 L193.12,370.68 C208.24,370.68 208.24,370.68 221.68,367.6 C235.12,364.52 235.12,364.52 245.62,357.38 C256.12,350.24 256.12,350.24 263.12,338.62 C270.12,327 270.12,327 272.64,310.2 C274.6,295.64 274.6,295.64 270.82,284.86 C267.04,274.08 267.04,274.08 258.64,267.08 C250.24,260.08 250.24,260.08 238.34,256.58 C226.44,253.08 226.44,253.08 212.72,253.08 L212.72,253.08 Z M445.32,270.44 L412.56,332.04 L461,332.04 L445.32,270.44 Z M649.64,249.72 L627.24,249.72 L620.8,296.76 L649.92,296.76 C655.8,296.76 655.8,296.76 661.4,295.64 C667,294.52 667,294.52 671.76,291.86 C676.52,289.2 676.52,289.2 679.88,284.58 C683.24,279.96 683.24,279.96 684.08,272.96 C685.2,265.4 685.2,265.4 682.26,260.78 C679.32,256.16 679.32,256.16 674.14,253.64 C668.96,251.12 668.96,251.12 662.38,250.42 C655.8,249.72 655.8,249.72 649.64,249.72 L649.64,249.72 Z M836.04,249.72 L813.64,249.72 L807.2,296.76 L836.32,296.76 C842.2,296.76 842.2,296.76 847.8,295.64 C853.4,294.52 853.4,294.52 858.16,291.86 C862.92,289.2 862.92,289.2 866.28,284.58 C869.64,279.96 869.64,279.96 870.48,272.96 C871.6,265.4 871.6,265.4 868.66,260.78 C865.72,256.16 865.72,256.16 860.54,253.64 C855.36,251.12 855.36,251.12 848.78,250.42 C842.2,249.72 842.2,249.72 836.04,249.72 L836.04,249.72 Z" id="path-2"></path>
    </defs>
    <g id="页面-1" stroke="none" stroke-width="1" fill="none" fill-rule="evenodd">
        <g id="形状结合" transform="translate(-121.000000, -214.000000)">
            <use fill="#D8D8D8" xlink:href="#path-2"></use>
            <use fill="url(#linearGradient-1)" xlink:href="#path-2"></use>
        </g>
    </g>
</svg>