<?xml version="1.0" encoding="UTF-8"?>
<svg width="954px" height="210px" viewBox="0 0 954 210" version="1.1" xmlns="http://www.w3.org/2000/svg" xmlns:xlink="http://www.w3.org/1999/xlink">
    <title>STORE</title>
    <defs>
        <linearGradient x1="0%" y1="48.3883385%" x2="100%" y2="52.3929802%" id="linearGradient-1">
            <stop stop-color="#3F75D5" offset="0%"></stop>
            <stop stop-color="#D27947" offset="100%"></stop>
        </linearGradient>
        <path d="M429.12,694.04 C439.386667,694.04 449.326667,692.733333 458.94,690.12 C468.553333,687.506667 477.233333,683.493333 484.98,678.08 C492.726667,672.666667 499.26,665.853333 504.58,657.64 C509.9,649.426667 513.306667,639.813333 514.8,628.8 C516.106667,620.213333 515.873333,612.886667 514.1,606.82 C512.326667,600.753333 509.573333,595.713333 505.84,591.7 C502.106667,587.686667 497.673333,584.373333 492.54,581.76 C487.406667,579.146667 482.133333,576.906667 476.72,575.04 C471.306667,573.173333 465.94,571.493333 460.62,570 C455.3,568.506667 450.633333,566.78 446.62,564.82 C442.606667,562.86 439.526667,560.433333 437.38,557.54 C435.233333,554.646667 434.44,550.96 435,546.48 C435.56,542.746667 436.96,539.573333 439.2,536.96 C441.44,534.346667 444.1,532.246667 447.18,530.66 C450.26,529.073333 453.573333,527.906667 457.12,527.16 C460.666667,526.413333 464.026667,526.04 467.2,526.04 C472.613333,526.04 478.213333,527.113333 484,529.26 C489.786667,531.406667 494.173333,534.72 497.16,539.2 L497.16,539.2 L531.6,506.44 C524.32,498.973333 515.686667,493.653333 505.7,490.48 C495.713333,487.306667 485.12,485.72 473.92,485.72 C464.213333,485.72 454.6,487.073333 445.08,489.78 C435.56,492.486667 426.88,496.546667 419.04,501.96 C411.2,507.373333 404.62,514.093333 399.3,522.12 C393.98,530.146667 390.573333,539.48 389.08,550.12 C387.586667,561.133333 388.66,570 392.3,576.72 C395.94,583.44 400.933333,588.853333 407.28,592.96 C413.626667,597.066667 420.626667,600.333333 428.28,602.76 C435.933333,605.186667 443.026667,607.613333 449.56,610.04 C456.093333,612.466667 461.46,615.406667 465.66,618.86 C469.86,622.313333 471.493333,627.026667 470.56,633 C470,636.546667 468.646667,639.626667 466.5,642.24 C464.353333,644.853333 461.693333,647 458.52,648.68 C455.346667,650.36 451.893333,651.62 448.16,652.46 C444.426667,653.3 440.786667,653.72 437.24,653.72 C429.96,653.72 423.193333,652.086667 416.94,648.82 C410.686667,645.553333 405.693333,640.933333 401.96,634.96 L401.96,634.96 L365.84,669.12 C374.24,677.893333 383.666667,684.24 394.12,688.16 C404.573333,692.08 416.24,694.04 429.12,694.04 Z M630.92,689 L653.32,529.4 L709.88,529.4 L715.2,490.76 L558.4,490.76 L553.08,529.4 L609.64,529.4 L587.24,689 L630.92,689 Z M815.08,694.04 C830.573333,694.04 845.18,691.613333 858.9,686.76 C872.62,681.906667 884.893333,674.953333 895.72,665.9 C906.546667,656.846667 915.506667,645.88 922.6,633 C929.693333,620.12 934.36,605.746667 936.6,589.88 C938.84,574.013333 938.186667,559.64 934.64,546.76 C931.093333,533.88 925.213333,522.913333 917,513.86 C908.786667,504.806667 898.52,497.853333 886.2,493 C873.88,488.146667 859.973333,485.72 844.48,485.72 C828.986667,485.72 814.333333,488.146667 800.52,493 C786.706667,497.853333 774.433333,504.806667 763.7,513.86 C752.966667,522.913333 744.006667,533.88 736.82,546.76 C729.633333,559.64 724.92,574.013333 722.68,589.88 C720.44,605.746667 721.093333,620.12 724.64,633 C728.186667,645.88 734.066667,656.846667 742.28,665.9 C750.493333,674.953333 760.806667,681.906667 773.22,686.76 C785.633333,691.613333 799.586667,694.04 815.08,694.04 Z M820.68,653.72 C811.346667,653.72 803.133333,652.133333 796.04,648.96 C788.946667,645.786667 783.113333,641.353333 778.54,635.66 C773.966667,629.966667 770.746667,623.246667 768.88,615.5 C767.013333,607.753333 766.733333,599.213333 768.04,589.88 C769.346667,580.733333 772.006667,572.24 776.02,564.4 C780.033333,556.56 785.12,549.793333 791.28,544.1 C797.44,538.406667 804.533333,533.973333 812.56,530.8 C820.586667,527.626667 829.266667,526.04 838.6,526.04 C847.933333,526.04 856.146667,527.626667 863.24,530.8 C870.333333,533.973333 876.213333,538.406667 880.88,544.1 C885.546667,549.793333 888.766667,556.56 890.54,564.4 C892.313333,572.24 892.546667,580.733333 891.24,589.88 C889.933333,599.213333 887.273333,607.753333 883.26,615.5 C879.246667,623.246667 874.16,629.966667 868,635.66 C861.84,641.353333 854.746667,645.786667 846.72,648.96 C838.693333,652.133333 830.013333,653.72 820.68,653.72 Z M1006.24,689 L1017.16,609.76 L1038.72,609.76 L1069.24,689 L1121.6,689 L1082.96,605.28 C1097.33333,602.666667 1108.81333,596.46 1117.4,586.66 C1125.98667,576.86 1131.30667,564.96 1133.36,550.96 C1135.04,539.386667 1134.38667,529.726667 1131.4,521.98 C1128.41333,514.233333 1123.84,508.073333 1117.68,503.5 C1111.52,498.926667 1104.05333,495.66 1095.28,493.7 C1086.50667,491.74 1077.08,490.76 1067,490.76 L990.28,490.76 L962.56,689 L1006.24,689 Z M1048.24,572.8 L1022.48,572.8 L1028.64,527.72 L1057.2,527.72 C1061.12,527.72 1065.08667,528 1069.1,528.56 C1073.11333,529.12 1076.61333,530.193333 1079.6,531.78 C1082.58667,533.366667 1084.92,535.653333 1086.6,538.64 C1088.28,541.626667 1088.74667,545.64 1088,550.68 C1087.25333,556.093333 1085.48,560.293333 1082.68,563.28 C1079.88,566.266667 1076.61333,568.46 1072.88,569.86 C1069.14667,571.26 1065.08667,572.1 1060.7,572.38 C1056.31333,572.66 1052.16,572.8 1048.24,572.8 L1048.24,572.8 Z M1295.4,689 L1301,648.68 L1204.96,648.68 L1210.56,608.36 L1296.52,608.36 L1302.12,568.04 L1216.16,568.04 L1221.48,531.08 L1312.48,531.08 L1318.08,490.76 L1183.4,490.76 L1155.68,689 L1295.4,689 Z" id="path-2"></path>
    </defs>
    <g id="页面-1" stroke="none" stroke-width="1" fill="none" fill-rule="evenodd">
        <g id="nutbox-DAPP-Store" transform="translate(-365.000000, -485.000000)" fill-rule="nonzero">
            <g id="STORE">
                <use fill="#717376" xlink:href="#path-2"></use>
                <use fill="url(#linearGradient-1)" xlink:href="#path-2"></use>
            </g>
        </g>
    </g>
</svg>