<?xml version="1.0" encoding="UTF-8"?>
<svg width="16px" height="16px" viewBox="0 0 16 16" version="1.1" xmlns="http://www.w3.org/2000/svg" xmlns:xlink="http://www.w3.org/1999/xlink">
    <title>icon/filter/m</title>
    <g id="notbox-V2-H5" stroke="none" stroke-width="1" fill="none" fill-rule="evenodd">
        <g id="H5-Notbox-Community" transform="translate(-331.000000, -156.000000)">
            <g id="二级导航" transform="translate(0.000000, 136.000000)">
                <g id="用户账号切换" transform="translate(319.000000, 10.000000)">
                    <g id="icon/filter/m" transform="translate(12.000000, 10.000000)">
                        <rect id="Rectangle-55" x="0" y="0" width="16" height="16"></rect>
                        <path d="M14.503342,2 C14.6323318,2 14.7563311,2.04985014 14.8494274,2.13913314 C15.0487287,2.33027083 15.0553466,2.64678414 14.8642089,2.84608541 L10.0006104,8.91741024 L10.0006104,12.7980957 C10.0006104,12.9051887 9.97816449,13.0070391 9.93772061,13.0991992 C9.87627306,13.2435482 9.76920118,13.3699037 9.62289379,13.4544128 L7.17218677,14.8699737 C7.05192864,14.9520251 6.90656689,15 6.75,15 C6.34525708,15 6.01539595,14.679393 6.00052354,14.2782859 L5.99999313,14.2582251 L5.99999313,14.2582251 L6,8.91111168 L1.14244205,2.84608541 C1.05315905,2.75298909 1.00330891,2.62898984 1.00330891,2.5 C1.00330891,2.22385763 1.22716654,2 1.50330891,2 L14.503342,2 Z M12.141272,3.49963379 L3.84127197,3.49963379 L7.5,8.290605 L7.5,12.949585 L8.5,12.37146 L8.5,8.272518 L12.141272,3.49963379 Z" id="Combined-Shape" fill="#242629" fill-rule="nonzero"></path>
                    </g>
                </g>
            </g>
        </g>
    </g>
</svg>