<?xml version="1.0" encoding="UTF-8"?>
<svg width="32px" height="32px" viewBox="0 0 32 32" version="1.1" xmlns="http://www.w3.org/2000/svg" xmlns:xlink="http://www.w3.org/1999/xlink">
    <title>safety report</title>
    <g id="页面-1" stroke="none" stroke-width="1" fill="none" fill-rule="evenodd">
        <g id="Nutbox-Home备份-3" transform="translate(-100.000000, -570.000000)">
            <g id="审记报告" transform="translate(100.000000, 570.000000)">
                <rect id="矩形备份-7" fill="#1D1E1F" x="0" y="0" width="32" height="32" rx="16"></rect>
                <g id="Logo-GitHub" transform="translate(8.003795, 8.004275)" fill="#FFFFFF" fill-rule="nonzero">
                    <path d="M12.3180244,6.54144819 L8.06633896,10.6992509 C7.94983367,10.8916285 7.73937494,11.0070475 7.51452872,11.0018727 C7.28960619,11.0073607 7.07900066,10.8918612 6.96271847,10.6992509 L4.69055867,8.47652934 C4.57454597,8.36437447 4.50903641,8.20992619 4.50903641,8.04856429 C4.50903641,7.88720239 4.57454597,7.73275411 4.69055867,7.62059925 C4.93498409,7.38448418 5.32253775,7.38448418 5.56696317,7.62059925 L7.51452872,9.52571785 L11.4421192,5.6855181 C11.6863759,5.44946468 12.0737677,5.44946468 12.3180244,5.6855181 C12.4340371,5.79767297 12.4995466,5.95212125 12.4995466,6.11348315 C12.4995466,6.27484504 12.4340371,6.42929333 12.3180244,6.54144819 M14.6546036,2.26129838 C14.4548533,2.08701624 14.192681,1.99163546 13.92152,1.99163546 C13.8965512,1.99163546 13.8715824,1.99163546 13.8466136,1.99313358 C13.8321317,1.99513109 13.6593477,2.00511861 13.3891854,2.00511861 C12.9417447,2.00511861 12.0678371,1.97515606 11.239872,1.78639201 C10.1712079,1.54169788 8.93774968,0.408114853 8.57819912,0.18489389 C8.39891898,0.0735955988 8.19196283,0.0149349491 7.9809457,0.0155998101 C7.77320537,0.0155998101 7.56496568,0.0715355864 7.38469101,0.183395751 C7.34124531,0.210861412 6.04936018,1.49725342 4.78593945,1.78639201 C3.95847379,1.97515606 3.06808676,2.00511861 2.62064607,2.00511861 C2.35098315,2.00511861 2.17819912,1.99513109 2.16122035,1.99313358 C2.13774968,1.99163546 2.11427902,1.99163546 2.09030899,1.99163546 C1.81864856,1.99163546 1.55547753,2.08701624 1.35522784,2.26129838 C1.14065214,2.44364976 1.01598378,2.71030154 1.01365481,2.99188515 L1.01365481,5.49375779 C1.01365481,14.7421972 7.51552748,15.9327091 7.79068351,15.9806492 C7.91657888,16.0005248 8.04481314,16.0005248 8.1707085,15.9806492 C8.44686331,15.9327091 14.9961767,14.7421973 14.9961767,5.49375779 L14.9961767,2.99188515 C14.9940588,2.71011164 14.8693648,2.44322275 14.6546036,2.260799" id="形状"></path>
                </g>
            </g>
        </g>
    </g>
</svg>