<?xml version="1.0" encoding="UTF-8"?>
<svg width="24px" height="24px" viewBox="0 0 24 24" version="1.1" xmlns="http://www.w3.org/2000/svg" xmlns:xlink="http://www.w3.org/1999/xlink">
    <title>Discord</title>
    <g id="notbox-V2-web" stroke="none" stroke-width="1" fill="none" fill-rule="evenodd">
        <g id="nutbox-Tokens-more" transform="translate(-1184.000000, -222.000000)">
            <g id="编组-7备份" transform="translate(1168.000000, 66.000000)">
                <g id="编组-5" transform="translate(0.000000, 144.000000)">
                    <g id="Discord" transform="translate(16.000000, 12.000000)">
                        <rect id="矩形备份-9" stroke="#E3E5E8" fill="#F6F7F9" x="0.5" y="0.5" width="23" height="23" rx="11.5"></rect>
                        <g transform="translate(6.803941, 6.053984)" fill-rule="nonzero" id="形状">
                            <path d="M6.35398871,4.99201624 C6.01198871,4.99201624 5.74198871,5.28601624 5.74198871,5.65201624 C5.74198871,6.01801624 6.01798871,6.31201624 6.35398871,6.31201624 C6.69598871,6.31201624 6.96598871,6.01801624 6.96598871,5.65201624 C6.96598871,5.28601624 6.68998871,4.99201624 6.35398871,4.99201624 Z M4.16398871,4.99201624 C3.82198871,4.99201624 3.55198871,5.28601624 3.55198871,5.65201624 C3.55198871,6.01801624 3.82798871,6.31201624 4.16398871,6.31201624 C4.50598871,6.31201624 4.77598871,6.01801624 4.77598871,5.65201624 C4.78198871,5.28601624 4.50598871,4.99201624 4.16398871,4.99201624 Z" fill="#000000"></path>
                            <path d="M9.26998871,0 L1.22999929,0 C0.551999294,0 0,0.551998588 0,1.22999859 L0,9.27001624 C0,9.94801624 0.551999294,10.5000162 1.22999929,10.5000162 L8.03398871,10.5000162 L7.71598871,9.40201624 L8.48398871,10.1100162 L9.20998871,10.7760162 L10.5059887,11.8980162 L10.5059887,1.22999859 C10.4999887,0.551998588 9.94798871,0 9.26998871,0 Z M6.95398871,7.77001624 C6.95398871,7.77001624 6.73798871,7.51201624 6.55798871,7.29001624 C7.34398871,7.06801624 7.64398871,6.58201624 7.64398871,6.58201624 C7.39798871,6.74401624 7.16398871,6.85801624 6.95398871,6.93601624 C6.65398871,7.06201624 6.36598871,7.14001624 6.08398871,7.19401624 C5.50798871,7.30201624 4.97998871,7.27201624 4.52998871,7.18801624 C4.18798871,7.12201624 3.89398871,7.03201624 3.64798871,6.93001624 C3.50998871,6.87601624 3.35999929,6.81001624 3.20999929,6.72601624 C3.19199929,6.71401624 3.17399929,6.70801624 3.15599929,6.69601624 C3.14399929,6.69001624 3.13799929,6.68401624 3.13199929,6.68401624 C3.02399929,6.62401624 2.96399929,6.58201624 2.96399929,6.58201624 C2.96399929,6.58201624 3.25199929,7.05601624 4.01398871,7.28401624 C3.83398871,7.51201624 3.61198871,7.77601624 3.61198871,7.77601624 C2.28599929,7.73401624 1.78199929,6.87001624 1.78199929,6.87001624 C1.78199929,4.95601624 2.64599929,3.40199859 2.64599929,3.40199859 C3.50998871,2.75999859 4.32598871,2.77799859 4.32598871,2.77799859 L4.38598871,2.84999859 C3.30599929,3.15599859 2.81399929,3.63001624 2.81399929,3.63001624 C2.81399929,3.63001624 2.94599929,3.55801624 3.16799929,3.46199859 C3.80998871,3.17999859 4.31998871,3.10799859 4.52998871,3.08399859 C4.56598871,3.07799859 4.59598871,3.07199859 4.63198871,3.07199859 C4.99798871,3.02399859 5.41198871,3.01199859 5.84398871,3.05999859 C6.41398871,3.12599859 7.02598871,3.29399859 7.64998871,3.63001624 C7.64998871,3.63001624 7.17598871,3.17999859 6.15598871,2.87399859 L6.23998871,2.77799859 C6.23998871,2.77799859 7.06198871,2.75999859 7.91998871,3.40199859 C7.91998871,3.40199859 8.78398871,4.95601624 8.78398871,6.87001624 C8.78398871,6.86401624 8.27998871,7.72801624 6.95398871,7.77001624 Z" fill="#242629"></path>
                        </g>
                    </g>
                </g>
            </g>
        </g>
    </g>
</svg>