<?xml version="1.0" encoding="UTF-8"?>
<svg width="32px" height="32px" viewBox="0 0 32 32" version="1.1" xmlns="http://www.w3.org/2000/svg" xmlns:xlink="http://www.w3.org/1999/xlink">
    <title>Discord</title>
    <g id="页面-1" stroke="none" stroke-width="1" fill="none" fill-rule="evenodd">
        <g id="Nutbox-Home备份-3" transform="translate(-100.000000, -696.000000)">
            <g id="编组-8" transform="translate(100.000000, 612.000000)">
                <g id="编组-18" transform="translate(0.000000, 84.000000)">
                    <rect id="矩形备份-9" fill="#1D1E1F" x="0" y="0" width="32" height="32" rx="16"></rect>
                    <g id="Discord" transform="translate(9.071921, 8.071978)" fill="#FFFFFF" fill-rule="nonzero">
                        <path d="M12.3599849,0 C13.2639849,0 13.9999849,0.735998118 14.0079849,1.63999812 L14.0079849,1.63999812 L14.0079849,15.8640216 L12.2799849,14.3680216 L11.3119849,13.4800216 L10.2879849,12.5360216 L10.7119849,14.0000216 L1.63999906,14.0000216 C0.735999059,14.0000216 0,13.2640216 0,12.3600216 L0,12.3600216 L0,1.63999812 C0,0.735998118 0.735999059,0 1.63999906,0 L1.63999906,0 Z M8.31998494,3.70399812 L8.20798494,3.83199812 C9.56798494,4.23999812 10.1999849,4.84002165 10.1999849,4.84002165 C9.36798494,4.39199812 8.55198494,4.16799812 7.79198494,4.07999812 C7.21598494,4.01599812 6.66398494,4.03199812 6.17598494,4.09599812 C6.12798494,4.09599812 6.08798494,4.10399812 6.03998494,4.11199812 C5.75998494,4.14399812 5.07998494,4.23999812 4.22399906,4.61599812 C3.92799906,4.74402165 3.75199906,4.84002165 3.75199906,4.84002165 C3.75199906,4.84002165 4.40799906,4.20799812 5.84798494,3.79999812 L5.84798494,3.79999812 L5.76798494,3.70399812 L5.70988731,3.70495154 C5.47006785,3.7138163 4.52289596,3.79672539 3.52799906,4.53599812 C3.52799906,4.53599812 2.37599906,6.60802165 2.37599906,9.16002165 L2.37599906,9.16002165 L2.39152169,9.18467588 C2.50115585,9.35208214 3.20173696,10.3168912 4.81598494,10.3680216 C4.81598494,10.3680216 5.11198494,10.0160216 5.35198494,9.71202165 C4.33599906,9.40802165 3.95199906,8.77602165 3.95199906,8.77602165 C3.95199906,8.77602165 4.03199906,8.83202165 4.17599906,8.91202165 C4.18399906,8.91202165 4.19199906,8.92002165 4.20799906,8.92802165 L4.20799906,8.92802165 L4.27999906,8.96802165 C4.47999906,9.08002165 4.67998494,9.16802165 4.86398494,9.24002165 C5.19198494,9.37602165 5.58398494,9.49602165 6.03998494,9.58402165 C6.63998494,9.69602165 7.34398494,9.73602165 8.11198494,9.59202165 C8.48798494,9.52002165 8.87198494,9.41602165 9.27198494,9.24802165 C9.55198494,9.14402165 9.86398494,8.99202165 10.1919849,8.77602165 C10.1919849,8.77602165 9.79198494,9.42402165 8.74398494,9.72002165 C8.98398494,10.0160216 9.27198494,10.3600216 9.27198494,10.3600216 C11.0399849,10.3040216 11.7119849,9.15202165 11.7119849,9.16002165 C11.7119849,6.60802165 10.5599849,4.53599812 10.5599849,4.53599812 C9.57198494,3.79672539 8.61978659,3.7138163 8.37846804,3.70495154 L8.37846804,3.70495154 L8.31998494,3.70399812 Z M8.47198494,6.65602165 C8.91998494,6.65602165 9.28798494,7.04802165 9.28798494,7.53602165 C9.28798494,8.02402165 8.92798494,8.41602165 8.47198494,8.41602165 C8.02398494,8.41602165 7.65598494,8.02402165 7.65598494,7.53602165 C7.65598494,7.04802165 8.01598494,6.65602165 8.47198494,6.65602165 Z M5.55198494,6.65602165 C6.00798494,6.65602165 6.37598494,7.04802165 6.36798494,7.53602165 C6.36798494,8.02402165 6.00798494,8.41602165 5.55198494,8.41602165 C5.10398494,8.41602165 4.73598494,8.02402165 4.73598494,7.53602165 C4.73598494,7.04802165 5.09598494,6.65602165 5.55198494,6.65602165 Z" id="形状结合"></path>
                    </g>
                </g>
            </g>
        </g>
    </g>
</svg>