<?xml version="1.0" encoding="UTF-8"?>
<svg width="32px" height="32px" viewBox="0 0 32 32" version="1.1" xmlns="http://www.w3.org/2000/svg" xmlns:xlink="http://www.w3.org/1999/xlink">
    <title>docs</title>
    <g id="页面-1" stroke="none" stroke-width="1" fill="none" fill-rule="evenodd">
        <g id="Nutbox-Home备份-3" transform="translate(-100.000000, -654.000000)">
            <g id="编组-8" transform="translate(100.000000, 612.000000)">
                <g id="编组-17" transform="translate(0.000000, 42.000000)">
                    <rect id="矩形备份-8" fill="#1D1E1F" x="0" y="0" width="32" height="32" rx="16"></rect>
                    <g id="docs" transform="translate(8.000000, 8.500000)" fill="#FFFFFF" fill-rule="nonzero">
                        <path d="M12.5,0 C13.6045695,-2.02906125e-16 14.5,0.8954305 14.5,2 L14.5,13 C14.5,14.1045695 13.6045695,15 12.5,15 L3.5,15 C2.3954305,15 1.5,14.1045695 1.5,13 L1.5,2 C1.5,0.8954305 2.3954305,2.02906125e-16 3.5,0 L12.5,0 Z M9.25,6.5 L4.75,6.5 C4.33578644,6.5 4,6.83578644 4,7.25 C4,7.66421356 4.33578644,8 4.75,8 L4.75,8 L9.25,8 C9.66421356,8 10,7.66421356 10,7.25 C10,6.83578644 9.66421356,6.5 9.25,6.5 L9.25,6.5 Z M11.25,3.5 L4.75,3.5 C4.33578644,3.5 4,3.83578644 4,4.25 C4,4.66421356 4.33578644,5 4.75,5 L4.75,5 L11.25,5 C11.6642136,5 12,4.66421356 12,4.25 C12,3.83578644 11.6642136,3.5 11.25,3.5 L11.25,3.5 Z" id="形状结合"></path>
                    </g>
                </g>
            </g>
        </g>
    </g>
</svg>