<?xml version="1.0" encoding="UTF-8"?>
<svg width="24px" height="24px" viewBox="0 0 24 24" version="1.1" xmlns="http://www.w3.org/2000/svg" xmlns:xlink="http://www.w3.org/1999/xlink">
    <title>docs</title>
    <g id="notbox-V2-web" stroke="none" stroke-width="1" fill="none" fill-rule="evenodd">
        <g id="nutbox-Tokens-more" transform="translate(-1184.000000, -78.000000)">
            <g id="编组-7备份" transform="translate(1168.000000, 66.000000)">
                <g id="编组-17" transform="translate(16.000000, 12.000000)">
                    <rect id="矩形备份-8" stroke="#E3E5E8" fill="#F6F7F9" x="0.5" y="0.5" width="23" height="23" rx="11.5"></rect>
                    <g id="docs" transform="translate(6.000000, 6.375000)" fill="#242629">
                        <path d="M9.375,0 C10.2034271,-1.52179594e-16 10.875,0.671572875 10.875,1.5 L10.875,9.75 C10.875,10.5784271 10.2034271,11.25 9.375,11.25 L2.625,11.25 C1.79657288,11.25 1.125,10.5784271 1.125,9.75 L1.125,1.5 C1.125,0.671572875 1.79657288,1.52179594e-16 2.625,0 L9.375,0 Z M6.9375,4.875 L3.5625,4.875 C3.25183983,4.875 3,5.12683983 3,5.4375 C3,5.74816017 3.25183983,6 3.5625,6 L3.5625,6 L6.9375,6 C7.24816017,6 7.5,5.74816017 7.5,5.4375 C7.5,5.12683983 7.24816017,4.875 6.9375,4.875 L6.9375,4.875 Z M8.4375,2.625 L3.5625,2.625 C3.25183983,2.625 3,2.87683983 3,3.1875 C3,3.49816017 3.25183983,3.75 3.5625,3.75 L3.5625,3.75 L8.4375,3.75 C8.74816017,3.75 9,3.49816017 9,3.1875 C9,2.87683983 8.74816017,2.625 8.4375,2.625 L8.4375,2.625 Z" id="形状结合"></path>
                    </g>
                </g>
            </g>
        </g>
    </g>
</svg>