<?xml version="1.0" encoding="UTF-8"?>
<svg width="28px" height="28px" viewBox="0 0 28 28" version="1.1" xmlns="http://www.w3.org/2000/svg" xmlns:xlink="http://www.w3.org/1999/xlink">
    <title>telegram</title>
    <g id="页面-1" stroke="none" stroke-width="1" fill="none" fill-rule="evenodd">
        <g id="菜单icon替换方案一" transform="translate(-481.000000, -742.000000)">
            <g id="社区一级导航备份-2" transform="translate(356.000000, 0.000000)">
                <g id="编组-7" transform="translate(17.000000, 742.000000)">
                    <g id="编组-19备份-2" transform="translate(108.000000, 0.000000)">
                        <rect id="矩形备份-10" fill="#1D1E1F" x="0" y="0" width="28" height="28" rx="14"></rect>
                        <g id="telegram" transform="translate(7.000000, 7.000000)" fill="#FFFFFF" fill-rule="nonzero">
                            <path d="M7,0 C7.94791667,0 8.85416602,0.18489388 9.71874805,0.554681641 C10.5833301,0.924469401 11.3281237,1.42186589 11.9531289,2.04687109 C12.5781341,2.6718763 13.0755306,3.41666992 13.4453184,4.28125195 C13.8151061,5.14583398 14,6.05208333 14,7 C14,7.94791667 13.8151061,8.85416602 13.4453184,9.71874805 C13.0755306,10.5833301 12.5781341,11.3281237 11.9531289,11.9531289 C11.3281237,12.5781341 10.5833301,13.0755306 9.71874805,13.4453184 C8.85416602,13.8151061 7.94791667,14 7,14 C6.05208333,14 5.14583398,13.8151061 4.28125195,13.4453184 C3.41666992,13.0755306 2.6718763,12.5781341 2.04687109,11.9531289 C1.42186589,11.3281237 0.924469401,10.5833301 0.554681641,9.71874805 C0.18489388,8.85416602 0,7.94791667 0,7 C0,6.05208333 0.18489388,5.14583398 0.554681641,4.28125195 C0.924469401,3.41666992 1.42186589,2.6718763 2.04687109,2.04687109 C2.6718763,1.42186589 3.41666992,0.924469401 4.28125195,0.554681641 C5.14583398,0.18489388 6.05208333,0 7,0 Z M9,2 L7.48893395,2 C6.21844907,2 5.87176889,2.97547513 5.87176889,4.32946929 L5.87176889,4.32946929 L5.87176887,5.33333333 L5,5.33333333 L5,6.99329706 L5.87176889,6.99329706 L5.87176889,12 L7.28214226,12 L7.28214226,6.99329706 L8.69792195,6.99329706 L8.92160839,5.33333334 L7.28214226,5.33333334 L7.28214226,4.50216861 C7.28214226,4.06923745 7.40310864,3.65602083 7.93630682,3.65602083 L7.93630682,3.65602083 L9,3.65602083 L9,2 Z" id="形状结合"></path>
                        </g>
                    </g>
                </g>
            </g>
        </g>
    </g>
</svg>