<?xml version="1.0" encoding="UTF-8"?>
<svg width="24px" height="24px" viewBox="0 0 24 24" version="1.1" xmlns="http://www.w3.org/2000/svg" xmlns:xlink="http://www.w3.org/1999/xlink">
    <title>GitHub</title>
    <g id="notbox-V2-web" stroke="none" stroke-width="1" fill="none" fill-rule="evenodd">
        <g id="nutbox-Tokens-more" transform="translate(-1184.000000, -126.000000)">
            <g id="编组-7备份" transform="translate(1168.000000, 66.000000)">
                <g id="编组-7" transform="translate(0.000000, 48.000000)">
                    <g id="GitHub" transform="translate(16.000000, 12.000000)">
                        <rect id="矩形备份-7" stroke="#E3E5E8" fill="#F6F7F9" x="0.5" y="0.5" width="23" height="23" rx="11.5"></rect>
                        <g id="Logo-GitHub" transform="translate(6.002847, 6.003207)" fill="#242629" fill-rule="nonzero">
                            <path d="M12.2534569,6.12660117 C12.2651669,7.42278634 11.8533753,8.68735541 11.0806706,9.72810544 C10.3364282,10.7678079 9.28033526,11.5434001 8.06555948,11.942396 C7.95735838,11.9725705 7.8412993,11.9516154 7.75048256,11.8855071 C7.6848577,11.8231375 7.64970114,11.7352461 7.65420905,11.6448234 L7.65420905,9.96441313 C7.6895818,9.54378845 7.53744113,9.12900493 7.23848256,8.83101142 C7.51283326,8.80411572 7.7848662,8.75731436 8.05243128,8.69097723 C8.31505548,8.62053021 8.56682065,8.51452382 8.80073897,8.37590031 C9.04584235,8.24221436 9.26397184,8.06414947 9.44402102,7.85077211 C9.6417711,7.60093647 9.79027137,7.31581594 9.88162786,7.01056698 C9.99774272,6.62017659 10.0538139,6.21439817 10.0479185,5.80714817 C10.0615791,5.1977805 9.83344761,4.60778525 9.41338854,4.16612253 C9.61080853,3.63702215 9.58875357,3.05099027 9.35212358,2.5382251 C9.133841,2.49842483 8.90855664,2.52907576 8.70884153,2.62574646 C8.45279526,2.717813 8.2065266,2.83508379 7.97366205,2.97583193 L7.67171333,3.16400287 C6.66983667,2.88392518 5.61034212,2.88392518 4.60846547,3.16400287 C4.5209441,3.10273792 4.41154239,3.03709689 4.2715082,2.94957552 C4.05352396,2.82251343 3.8251488,2.71418163 3.58884153,2.62574646 C3.37695892,2.51815684 3.13661902,2.47988616 2.9017988,2.51634476 C2.66585065,3.03413767 2.64538541,3.6244811 2.84490991,4.1573704 C2.4307137,4.60591991 2.20506209,5.19668835 2.21475606,5.80714817 C2.20851641,6.21154651 2.26460422,6.61449313 2.38104666,7.00181484 C2.47600215,7.30559061 2.62417362,7.59007983 2.8186535,7.84201997 C2.99471378,8.06170698 3.2135663,8.24333968 3.46193555,8.37590031 C3.69892404,8.50833336 3.94990153,8.61400809 4.21024324,8.69097723 C4.47922428,8.75761563 4.75273412,8.80441946 5.02856803,8.83101142 C4.79952236,9.0467086 4.65909975,9.34003584 4.63472188,9.65371228 C4.51959915,9.70851868 4.39732471,9.74682152 4.2715082,9.76749005 C4.12723989,9.79462205 3.98069582,9.80781102 3.83390136,9.80687467 C3.63285964,9.80815943 3.43664485,9.74530938 3.27376461,9.62745587 C3.09240205,9.49600739 2.94285733,9.32552641 2.83615777,9.12858407 C2.73958852,8.96362632 2.60816248,8.82174592 2.45106376,8.71285758 C2.33399074,8.62296419 2.20006272,8.55748827 2.0572176,8.52031057 L1.89967914,8.52031057 C1.82077611,8.51574237 1.74178685,8.52766528 1.66774752,8.55531911 C1.62398683,8.58157552 1.61085863,8.612208 1.6283629,8.64721655 C1.64907919,8.68629822 1.67402658,8.72298556 1.70275606,8.75661826 C1.73445272,8.79346154 1.76962358,8.82716695 1.8077817,8.85726783 L1.86467059,8.89227638 C2.00201624,8.96615208 2.12151197,9.06921715 2.21475606,9.1942251 C2.31242422,9.31886391 2.39607342,9.45387666 2.46419196,9.59682339 L2.54296119,9.78061826 C2.60504958,9.97801618 2.7274922,10.1509664 2.89304666,10.275114 C3.05051423,10.3892499 3.23137324,10.4669745 3.42255094,10.5026695 C3.60388819,10.540622 3.78866932,10.5596868 3.97393555,10.5595584 C4.12042163,10.5622419 4.26685872,10.5519913 4.41154239,10.528926 L4.59533726,10.4982935 L4.59533726,11.6448234 C4.59702296,11.7365125 4.55867803,11.8243863 4.49031162,11.8855071 C4.39764308,11.9511697 4.28049798,11.9720311 4.17085863,11.942396 C2.95984713,11.5382865 1.90959677,10.7578815 1.17325179,9.71497723 C0.396568139,8.68129523 -0.0158382898,7.41945466 0.000465465125,6.12660117 C-0.005925215,5.0500932 0.278299606,3.99180929 0.82316632,3.0633533 C1.35828998,2.13116636 2.13152639,1.35792996 3.06371333,0.822806294 C3.99216931,0.27793958 5.05045322,-0.00628524121 6.12696119,0 C7.20346916,-0.00628524121 8.26175307,0.27793958 9.19020905,0.822806294 C10.122396,1.35792996 10.8956324,2.13116636 11.4307561,3.0633533 C11.9760265,3.99164021 12.2602817,5.05003728 12.2534569,6.12660117 Z" id="路径"></path>
                        </g>
                    </g>
                </g>
            </g>
        </g>
    </g>
</svg>