<?xml version="1.0" encoding="UTF-8"?>
<svg width="28px" height="28px" viewBox="0 0 28 28" version="1.1" xmlns="http://www.w3.org/2000/svg" xmlns:xlink="http://www.w3.org/1999/xlink">
    <title>GitHub</title>
    <g id="页面-1" stroke="none" stroke-width="1" fill="none" fill-rule="evenodd">
        <g id="Community-Pool" transform="translate(-155.000000, -842.000000)">
            <g id="社区一级导航备份" transform="translate(120.000000, 100.000000)">
                <g id="GitHub" transform="translate(35.000000, 742.000000)">
                    <rect id="矩形备份-7" fill="#1D1E1F" x="0" y="0" width="28" height="28" rx="14"></rect>
                    <g id="Logo-GitHub" transform="translate(7.003321, 7.003741)" fill="#FFFFFF" fill-rule="nonzero">
                        <path d="M14.2956997,7.14770136 C14.3093614,8.6599174 13.8289378,10.135248 12.927449,11.3494563 C12.0591663,12.5624426 10.8270578,13.4673002 9.4098194,13.9327954 C9.28358477,13.9679989 9.14818251,13.9435513 9.04222965,13.866425 C8.96566732,13.7936604 8.92465133,13.6911205 8.92991056,13.5856273 L8.92991056,11.6251487 C8.97117876,11.1344199 8.79368131,10.6505058 8.44489632,10.3028467 C8.76497213,10.2714683 9.0823439,10.2168668 9.39450316,10.1394734 C9.70089806,10.0572852 9.99462409,9.93361112 10.2675288,9.7718837 C10.5534827,9.61591675 10.8079672,9.40817438 11.0180245,9.15923412 C11.2487329,8.86775922 11.4219833,8.5351186 11.5285658,8.17899481 C11.6640332,7.72353936 11.7294496,7.2501312 11.7225715,6.7750062 C11.738509,6.06407726 11.4723555,5.37574945 10.9822866,4.86047629 C11.21261,4.2431925 11.1868792,3.55948865 10.9108108,2.96126261 C10.6561478,2.91482896 10.3933161,2.95058839 10.1603151,3.06337088 C9.86159447,3.17078183 9.57428103,3.30759775 9.30260572,3.47180392 L8.95033222,3.69133669 C7.78147612,3.36457937 6.54539914,3.36457937 5.37654304,3.69133669 C5.27443478,3.6198609 5.14679945,3.54327971 4.98342623,3.44117145 C4.72911129,3.29293234 4.46267361,3.16654523 4.18698179,3.06337088 C3.93978541,2.93784965 3.65938886,2.89320052 3.38543193,2.93573555 C3.11015909,3.53982728 3.08628298,4.22856128 3.31906156,4.85026546 C2.83583265,5.37357323 2.57257244,6.06280308 2.58388207,6.7750062 C2.57660248,7.24680426 2.64203826,7.71690866 2.77788777,8.16878398 C2.88866917,8.52318904 3.06153588,8.85509313 3.28842908,9.1490233 C3.49383275,9.40532481 3.74916068,9.61722963 4.03892481,9.7718837 C4.31541138,9.92638892 4.60821846,10.0496761 4.91195045,10.1394734 C5.22576167,10.2172182 5.54485648,10.2718227 5.8666627,10.3028467 C5.59944276,10.5544934 5.43561637,10.8967085 5.40717552,11.2626643 C5.27286568,11.3266051 5.13021217,11.3712918 4.98342623,11.3954051 C4.8151132,11.4270591 4.64414513,11.4424462 4.47288492,11.4413538 C4.23833625,11.4428527 4.009419,11.3695276 3.81939205,11.2320318 C3.60780239,11.0786753 3.43333355,10.8797808 3.30885073,10.6500148 C3.19618661,10.457564 3.04285622,10.2920369 2.85957438,10.1650005 C2.7229892,10.0601249 2.56673985,9.98373632 2.4000872,9.94036233 L2.21629233,9.94036233 C2.12423879,9.93503277 2.03208466,9.94894283 1.94570544,9.98120563 C1.8946513,10.0118381 1.87933507,10.047576 1.89975672,10.0884193 C1.92392572,10.1340146 1.95303101,10.1768165 1.98654874,10.2160546 C2.02352817,10.2590385 2.06456084,10.2983614 2.10907866,10.3334791 L2.17544903,10.3743224 C2.33568562,10.4605108 2.4750973,10.5807533 2.58388207,10.7265959 C2.69782825,10.8720079 2.79541899,11.0295228 2.87489062,11.196294 L2.96678806,11.4107213 C3.03922451,11.6410189 3.18207424,11.8427941 3.37522111,11.987633 C3.55893327,12.1207916 3.76993545,12.2114702 3.99297609,12.2531145 C4.20453622,12.2973924 4.42011421,12.3196346 4.63625814,12.3194848 C4.80715857,12.3226155 4.97800184,12.3106565 5.14679945,12.2837469 L5.3612268,12.2480091 L5.3612268,13.5856273 C5.36319345,13.6925979 5.3184577,13.7951173 5.23869689,13.866425 C5.13058359,13.9430313 4.99391431,13.9673697 4.86600173,13.9327954 C3.45315498,13.4613343 2.2278629,12.5508618 1.36879376,11.3341401 C0.462662829,10.1281778 -0.0184780048,8.65603044 0.000543042646,7.14770136 C-0.00691275083,5.8917754 0.324682874,4.65711083 0.960360707,3.57391219 C1.58467165,2.48636076 2.48678079,1.58425162 3.57433222,0.959940676 C4.65753086,0.324262844 5.89219543,-0.00733278141 7.14812139,0 C8.40404735,-0.00733278141 9.63871192,0.324262844 10.7219106,0.959940676 C11.809462,1.58425162 12.7115711,2.48636076 13.3358821,3.57391219 C13.9720309,4.65691358 14.3036619,5.89171016 14.2956997,7.14770136 Z" id="路径"></path>
                    </g>
                </g>
            </g>
        </g>
    </g>
</svg>