<?xml version="1.0" encoding="UTF-8"?>
<svg width="24px" height="24px" viewBox="0 0 24 24" version="1.1" xmlns="http://www.w3.org/2000/svg" xmlns:xlink="http://www.w3.org/1999/xlink">
    <title>icon/m/contain</title>
    <g id="notbox-V2-web" stroke="none" stroke-width="1" fill="none" fill-rule="evenodd">
        <g id="nutbox-Tokens-more" transform="translate(-1184.000000, -366.000000)">
            <g id="编组-7备份" transform="translate(1168.000000, 66.000000)">
                <g id="编组-5备份-3" transform="translate(0.000000, 288.000000)">
                    <g id="编组-9" transform="translate(16.000000, 12.000000)">
                        <rect id="矩形备份-2" stroke="#E3E5E8" fill="#F6F7F9" x="0.5" y="0.5" width="23" height="23" rx="11.5"></rect>
                        <path d="M12,5 C15.8659932,5 19,8.13400675 19,12 C19,15.8659932 15.8659932,19 12,19 C8.13400675,19 5,15.8659932 5,12 C5,8.13400675 8.13400675,5 12,5 Z M13.1762172,15.0011837 L10.8237828,15.0011837 C10.9407261,15.5028506 11.0867174,15.9606157 11.2573972,16.3588685 C11.4596716,16.8308422 11.6815258,17.1805663 11.8859178,17.3822842 L12,17.489 L12.1140822,17.3822842 C12.3184742,17.1805663 12.5403284,16.8308422 12.7426028,16.3588685 C12.9132826,15.9606157 13.0592739,15.5028506 13.1762172,15.0011837 Z M16.6370454,15.0007124 L14.7111397,15.0007918 C14.5462523,15.8104199 14.3167146,16.5344805 14.0380944,17.1366488 C15.1110007,16.7113245 16.0186844,15.9582059 16.6370454,15.0007124 Z M9.2888603,15.0007918 L7.38981003,15.0007124 C8.00187244,15.9484528 8.89739338,16.6959607 9.95644925,17.1233126 C9.6799819,16.5240449 9.45255994,15.8045879 9.2888603,15.0007918 Z M17.2997318,10.4975135 L17.25,10.5 L17.25,10.5 L14.930962,10.5000054 C14.9761768,10.9832377 15,11.4851273 15,12 C15,12.5152286 14.9761438,13.017456 14.9308683,13.5009965 L17.25,13.5 L17.3110989,13.5041422 C17.4429378,13.0322771 17.5134277,12.5348075 17.5134277,12.020874 C17.5134277,11.4923625 17.4388821,10.981262 17.2997318,10.4975135 Z M6.51342773,12.020874 C6.51342773,12.5340882 6.58372046,13.0308846 6.71520342,13.5021608 L6.75,13.5 L6.75,13.5 L9.06913174,13.5009965 C9.02385617,13.017456 9,12.5152286 9,12 C9,11.4851273 9.02382324,10.9832377 9.06903797,10.5000054 L6.75,10.5 L6.72683403,10.4985206 C6.58786992,10.9819713 6.51342773,11.4927292 6.51342773,12.020874 Z M13.4236156,10.4998681 L10.5763844,10.4998681 C10.5263419,10.9820263 10.5,11.4852226 10.5,12 C10.5,12.5151353 10.5263785,13.0186735 10.5764888,13.5011377 L13.4235112,13.5011377 C13.4736215,13.0186735 13.5,12.5151353 13.5,12 C13.5,11.4852226 13.4736581,10.9820263 13.4236156,10.4998681 Z M9.93290733,6.92685702 L9.92084302,6.93294923 C8.89252114,7.3563384 8.02073763,8.08240573 7.41643013,9.00021359 L9.28865619,9.00021061 C9.44780418,8.21844285 9.66722514,7.51642695 9.93290733,6.92685702 Z M12.01,6.52 L11.99,6.521 L11.8859178,6.61771584 C11.6815258,6.81943373 11.4596716,7.16915783 11.2573972,7.64113148 C11.0866057,8.03964495 10.940535,8.49774856 10.8235532,8.99980134 L13.1764468,8.99980134 C13.059465,8.49774856 12.9133943,8.03964495 12.7426028,7.64113148 C12.5403284,7.16915783 12.3184742,6.81943373 12.1140822,6.61771584 L12.01,6.52 Z M14.0614853,6.91484479 L14.0812287,6.95843023 C14.3405631,7.54143093 14.5550272,8.23235106 14.7113438,9.00021061 L16.6104253,9.00021359 C15.9974145,8.06918735 15.1091678,7.33546434 14.0614853,6.91484479 Z" id="形状结合" fill="#242629" fill-rule="nonzero"></path>
                    </g>
                </g>
            </g>
        </g>
    </g>
</svg>