<?xml version="1.0" encoding="UTF-8"?>
<svg width="32px" height="32px" viewBox="0 0 32 32" version="1.1" xmlns="http://www.w3.org/2000/svg" xmlns:xlink="http://www.w3.org/1999/xlink">
    <title>safety report</title>
    <g id="页面-1" stroke="none" stroke-width="1" fill="none" fill-rule="evenodd">
        <g id="Nutbox-Home备份-3" transform="translate(-100.000000, -528.000000)">
            <g id="编组-11" transform="translate(80.000000, 481.000000)">
                <g id="审记报告" transform="translate(20.000000, 47.000000)">
                    <rect id="矩形备份-7" fill="#1D1E1F" x="0" y="0" width="32" height="32" rx="16"></rect>
                    <g id="icon/earth/m" transform="translate(8.000000, 8.004275)">
                        <g id="Group-2-Copy-83">
                            <rect id="Rectangle-55" x="0" y="0" width="16" height="16"></rect>
                        </g>
                        <path d="M8,0 C12.418278,0 16,3.581722 16,8 C16,12.418278 12.418278,16 8,16 C3.581722,16 0,12.418278 0,8 C0,3.581722 3.581722,0 8,0 Z M9.34434298,11.4295177 L6.65565702,11.4295177 C6.78932234,12.0030106 6.95620237,12.5263104 7.15131109,12.981564 C7.38248185,13.5209625 7.63602952,13.9206472 7.86962038,14.1511819 L8,14.2731429 L8.13037962,14.1511819 C8.36397048,13.9206472 8.61751815,13.5209625 8.84868891,12.981564 C9.04379763,12.5263104 9.21067766,12.0030106 9.34434298,11.4295177 Z M13.2997519,11.4289652 L11.0985603,11.4289118 C10.9101895,12.3540352 10.6479618,13.1814192 10.3296572,13.8695771 C11.556368,13.38366 12.593314,12.5230311 13.2997519,11.4289652 Z M4.90143966,11.4289118 L2.73094002,11.4289652 C3.43042739,12.5122667 4.45395112,13.3667021 5.66441376,13.8551742 C5.34849343,13.1702197 5.08853607,12.3477764 4.90143966,11.4289118 Z M14.0567538,6.2825854 L14,6.28571429 L14,6.28571429 L11.3496784,6.28580095 C11.4013475,6.83804172 11.4285714,7.41160263 11.4285714,8 C11.4285714,8.58839737 11.4013475,9.16195828 11.3496784,9.71419905 L14,9.71428571 L14.0698543,9.71892281 C14.22051,9.17967725 14.3010603,8.61117339 14.3010603,8.02385603 C14.3010603,7.41973825 14.2158358,6.83552571 14.0567538,6.2825854 Z M1.7296317,8.02385603 C1.7296317,8.61044562 1.80998243,9.17826828 1.96027791,9.71691805 L2,9.71428571 L2,9.71428571 L4.65032157,9.71419905 C4.59865248,9.16195828 4.57142857,8.58839737 4.57142857,8 C4.57142857,7.41160263 4.59865248,6.83804172 4.65032157,6.28580095 L2,6.28571429 L1.97336625,6.28457453 C1.81465193,6.83692673 1.7296317,7.42046261 1.7296317,8.02385603 Z M9.62688667,6.28457533 L6.37311333,6.28457533 C6.31585528,6.83591394 6.28571429,7.41133131 6.28571429,8 C6.28571429,8.58866869 6.31585528,9.16408606 6.37311333,9.71542467 L9.62688667,9.71542467 C9.68414472,9.16408606 9.71428571,8.58866869 9.71428571,8 C9.71428571,7.41133131 9.68414472,6.83591394 9.62688667,6.28457533 Z M5.63686699,2.20376799 L5.6189069,2.21111038 C4.44620343,2.69511314 3.45196159,3.52366757 2.76231352,4.57064152 L4.90143966,4.57108823 C5.08316542,3.6785998 5.33362918,2.87707663 5.63686699,2.20376799 Z M8.013,1.738 L7.987,1.738 L7.86962038,1.8488181 C7.63602952,2.07935284 7.38248185,2.47903752 7.15131109,3.01843598 C6.95620237,3.47368964 6.78932234,3.99698942 6.65565702,4.57048232 L9.34434298,4.57048232 C9.21067766,3.99698942 9.04379763,3.47368964 8.84868891,3.01843598 C8.61751815,2.47903752 8.36397048,2.07935284 8.13037962,1.8488181 L8.013,1.738 Z M10.3570852,2.18883659 L10.3826538,2.24745337 C10.6771284,2.91164694 10.9207488,3.69782316 11.0985603,4.57108823 L13.2683784,4.57064152 C12.5680328,3.50742733 11.5535707,2.66946128 10.3570852,2.18883659 Z" id="形状结合" fill="#FFFFFF" fill-rule="nonzero"></path>
                    </g>
                </g>
            </g>
        </g>
    </g>
</svg>