<?xml version="1.0" encoding="UTF-8"?>
<svg width="32px" height="32px" viewBox="0 0 32 32" version="1.1" xmlns="http://www.w3.org/2000/svg" xmlns:xlink="http://www.w3.org/1999/xlink">
    <title>telegram</title>
    <g id="页面-1" stroke="none" stroke-width="1" fill="none" fill-rule="evenodd">
        <g id="Nutbox-Home备份-3" transform="translate(-100.000000, -822.000000)">
            <g id="编组-8" transform="translate(100.000000, 612.000000)">
                <g id="编组-19备份-2" transform="translate(0.000000, 210.000000)">
                    <rect id="矩形备份-10" fill="#1D1E1F" x="0" y="0" width="32" height="32" rx="16"></rect>
                    <g id="telegram" transform="translate(8.000000, 8.000000)" fill="#FFFFFF" fill-rule="nonzero">
                        <path d="M8,0 C9.08333333,0 10.1190469,0.211307292 11.1071406,0.633921875 C12.0952344,1.05653646 12.9464271,1.62498958 13.6607187,2.33928125 C14.3750104,3.05357292 14.9434635,3.90476563 15.3660781,4.89285938 C15.7886927,5.88095313 16,6.91666667 16,8 C16,9.08333333 15.7886927,10.1190469 15.3660781,11.1071406 C14.9434635,12.0952344 14.3750104,12.9464271 13.6607187,13.6607187 C12.9464271,14.3750104 12.0952344,14.9434635 11.1071406,15.3660781 C10.1190469,15.7886927 9.08333333,16 8,16 C6.91666667,16 5.88095313,15.7886927 4.89285938,15.3660781 C3.90476563,14.9434635 3.05357292,14.3750104 2.33928125,13.6607187 C1.62498958,12.9464271 1.05653646,12.0952344 0.633921875,11.1071406 C0.211307292,10.1190469 0,9.08333333 0,8 C0,6.91666667 0.211307292,5.88095313 0.633921875,4.89285938 C1.05653646,3.90476563 1.62498958,3.05357292 2.33928125,2.33928125 C3.05357292,1.62498958 3.90476563,1.05653646 4.89285937,0.633921875 C5.88095312,0.211307292 6.91666667,0 8,0 Z M6.42,5 L4.101,5 L4.101,5.13433333 L4.84766666,6.03433333 C4.92111423,6.10033118 4.95864026,6.19742823 4.94866666,6.29566666 L4.94866666,6.29566666 L4.94866666,9.83166666 C4.97,9.95899999 4.93,10.0896667 4.84,10.1823333 L4.84,10.1823333 L4,11.2023333 L4,11.3366667 L6.38166666,11.3366667 L6.38166666,11.2026667 L5.54166666,10.1826667 C5.45133334,10.0896667 5.40866666,9.96033333 5.426,9.83166666 L5.426,9.83166666 L5.426,6.77366666 L7.51766666,11.3363333 L7.76,11.3363333 L9.55666666,6.77366666 L9.55616,10.4606133 C9.55413334,10.5172533 9.544,10.5393333 9.49333334,10.59 L9.49333334,10.59 L8.84766666,11.2173333 L8.84766666,11.3516667 L11.9843333,11.3516667 L11.9843333,11.2173333 L11.361,10.605 C11.3060697,10.5630412 11.2787652,10.4942031 11.29,10.426 L11.29,10.426 L11.29,5.926 C11.2786345,5.85768696 11.3059527,5.78868614 11.361,5.74666666 L11.361,5.74666666 L12,5.13433333 L12,5 L9.78866666,5 L8.21266666,8.93166666 L6.42,5 Z" id="形状结合"></path>
                    </g>
                </g>
            </g>
        </g>
    </g>
</svg>