<?xml version="1.0" encoding="UTF-8"?>
<svg width="24px" height="24px" viewBox="0 0 24 24" version="1.1" xmlns="http://www.w3.org/2000/svg" xmlns:xlink="http://www.w3.org/1999/xlink">
    <title>telegram</title>
    <g id="notbox-V2-web" stroke="none" stroke-width="1" fill="none" fill-rule="evenodd">
        <g id="nutbox-Tokens-more" transform="translate(-1184.000000, -270.000000)">
            <g id="编组-7备份" transform="translate(1168.000000, 66.000000)">
                <g id="编组-5备份" transform="translate(0.000000, 192.000000)">
                    <g id="编组-19" transform="translate(16.000000, 12.000000)">
                        <rect id="矩形备份-10" stroke="#E3E5E8" fill="#F6F7F9" x="0.5" y="0.5" width="23" height="23" rx="11.5"></rect>
                        <g id="telegram" transform="translate(6.000000, 6.000000)" fill="#242629" fill-rule="nonzero">
                            <path d="M7.96205859,8.75223047 L8.94643359,4.11160547 C8.98660547,3.91517578 8.96316797,3.77455078 8.87612109,3.68973047 C8.78907422,3.60491016 8.67411719,3.58928516 8.53125,3.64285547 L2.74553906,5.87276953 C2.61607031,5.92187891 2.52789844,5.97768359 2.48102344,6.04018359 C2.43414844,6.10268359 2.42857031,6.16183203 2.46428906,6.21762891 C2.50000781,6.27342578 2.57143359,6.31695313 2.67856641,6.34821094 L4.15848047,6.81026953 L7.59375,4.64730469 C7.6875,4.58480469 7.75892969,4.57141406 7.80803906,4.60713281 C7.83928906,4.62945313 7.83035938,4.66293359 7.78125,4.70757422 L5.00223047,7.21875 L4.89508594,8.74553906 C4.99776563,8.74553906 5.09821484,8.69642969 5.19643359,8.59821094 L5.91964453,7.90178906 L7.41964453,9.00669141 C7.70535547,9.16741016 7.88616016,9.08258984 7.96205859,8.75223047 L7.96205859,8.75223047 Z M12,6 C12,6.8125 11.8415195,7.58928516 11.5245586,8.33035547 C11.2075977,9.07142578 10.7812578,9.70982031 10.2455391,10.2455391 C9.70982031,10.7812578 9.07142578,11.2075977 8.33035547,11.5245586 C7.58928516,11.8415195 6.8125,12 6,12 C5.1875,12 4.41071484,11.8415195 3.66964453,11.5245586 C2.92857422,11.2075977 2.29017969,10.7812578 1.75446094,10.2455391 C1.21874219,9.70982031 0.792402344,9.07142578 0.475441406,8.33035547 C0.158480469,7.58928516 0,6.8125 0,6 C0,5.1875 0.158480469,4.41071484 0.475441406,3.66964453 C0.792402344,2.92857422 1.21874219,2.29017969 1.75446094,1.75446094 C2.29017969,1.21874219 2.92857422,0.792402344 3.66964453,0.475441406 C4.41071484,0.158480469 5.1875,0 6,0 C6.8125,0 7.58928516,0.158480469 8.33035547,0.475441406 C9.07142578,0.792402344 9.70982031,1.21874219 10.2455391,1.75446094 C10.7812578,2.29017969 11.2075977,2.92857422 11.5245586,3.66964453 C11.8415195,4.41071484 12,5.1875 12,6 Z" id="形状"></path>
                        </g>
                    </g>
                </g>
            </g>
        </g>
    </g>
</svg>