<?xml version="1.0" encoding="UTF-8"?>
<svg width="28px" height="28px" viewBox="0 0 28 28" version="1.1" xmlns="http://www.w3.org/2000/svg" xmlns:xlink="http://www.w3.org/1999/xlink">
    <title>telegram</title>
    <g id="页面-1" stroke="none" stroke-width="1" fill="none" fill-rule="evenodd">
        <g id="Community-Pool" transform="translate(-227.000000, -842.000000)">
            <g id="社区一级导航备份" transform="translate(120.000000, 100.000000)">
                <g id="编组-7" transform="translate(35.000000, 742.000000)">
                    <g id="编组-19备份" transform="translate(72.000000, 0.000000)">
                        <rect id="矩形备份-10" fill="#1D1E1F" x="0" y="0" width="28" height="28" rx="14"></rect>
                        <g id="telegram" transform="translate(7.000000, 7.000000)" fill="#FFFFFF" fill-rule="nonzero">
                            <path d="M9.28906836,10.2109355 L10.4375059,4.79687305 C10.484373,4.56770508 10.4570293,4.40364258 10.3554746,4.30468555 C10.2539199,4.20572852 10.1198034,4.18749935 9.953125,4.24999805 L3.20312891,6.85156445 C3.05208203,6.90885872 2.94921484,6.97396419 2.89452734,7.04688086 C2.83983984,7.11979753 2.83333203,7.18880404 2.87500391,7.25390039 C2.91667578,7.31899674 3.00000586,7.36977865 3.12499414,7.40624609 L4.85156055,7.94531445 L8.859375,5.42185547 C8.96875,5.3489388 9.05208464,5.33331641 9.10937891,5.37498828 C9.14583724,5.40102865 9.13541927,5.44008919 9.078125,5.49216992 L5.83593555,8.421875 L5.71093359,10.2031289 C5.83072656,10.2031289 5.94791732,10.1458346 6.06250586,10.0312461 L6.90625195,9.21875391 L8.65625195,10.5078066 C8.98958138,10.6953118 9.20052018,10.5963548 9.28906836,10.2109355 L9.28906836,10.2109355 Z M14,7 C14,7.94791667 13.8151061,8.85416602 13.4453184,9.71874805 C13.0755306,10.5833301 12.5781341,11.3281237 11.9531289,11.9531289 C11.3281237,12.5781341 10.5833301,13.0755306 9.71874805,13.4453184 C8.85416602,13.8151061 7.94791667,14 7,14 C6.05208333,14 5.14583398,13.8151061 4.28125195,13.4453184 C3.41666992,13.0755306 2.6718763,12.5781341 2.04687109,11.9531289 C1.42186589,11.3281237 0.924469401,10.5833301 0.554681641,9.71874805 C0.18489388,8.85416602 0,7.94791667 0,7 C0,6.05208333 0.18489388,5.14583398 0.554681641,4.28125195 C0.924469401,3.41666992 1.42186589,2.6718763 2.04687109,2.04687109 C2.6718763,1.42186589 3.41666992,0.924469401 4.28125195,0.554681641 C5.14583398,0.18489388 6.05208333,0 7,0 C7.94791667,0 8.85416602,0.18489388 9.71874805,0.554681641 C10.5833301,0.924469401 11.3281237,1.42186589 11.9531289,2.04687109 C12.5781341,2.6718763 13.0755306,3.41666992 13.4453184,4.28125195 C13.8151061,5.14583398 14,6.05208333 14,7 Z" id="形状"></path>
                        </g>
                    </g>
                </g>
            </g>
        </g>
    </g>
</svg>