<?xml version="1.0" encoding="UTF-8"?>
<svg width="28px" height="28px" viewBox="0 0 28 28" version="1.1" xmlns="http://www.w3.org/2000/svg" xmlns:xlink="http://www.w3.org/1999/xlink">
    <title>tewitter</title>
    <g id="页面-1" stroke="none" stroke-width="1" fill="none" fill-rule="evenodd">
        <g id="Community-Pool" transform="translate(-191.000000, -842.000000)">
            <g id="社区一级导航备份" transform="translate(120.000000, 100.000000)">
                <g id="编组-7" transform="translate(35.000000, 742.000000)">
                    <g id="编组-19" transform="translate(36.000000, 0.000000)">
                        <rect id="矩形备份-10" fill="#1D1E1F" x="0" y="0" width="28" height="28" rx="14"></rect>
                        <g id="tewitter" transform="translate(7.000000, 7.000000)">
                            <path d="M7,0 C7.94791667,0 8.85416602,0.18489388 9.71874805,0.554681641 C10.5833301,0.924469401 11.3281237,1.42186589 11.9531289,2.04687109 C12.5781341,2.6718763 13.0755306,3.41666992 13.4453184,4.28125195 C13.8151061,5.14583398 14,6.05208333 14,7 C14,7.94791667 13.8151061,8.85416602 13.4453184,9.71874805 C13.0755306,10.5833301 12.5781341,11.3281237 11.9531289,11.9531289 C11.3281237,12.5781341 10.5833301,13.0755306 9.71874805,13.4453184 C8.85416602,13.8151061 7.94791667,14 7,14 C6.05208333,14 5.14583398,13.8151061 4.28125195,13.4453184 C3.41666992,13.0755306 2.6718763,12.5781341 2.04687109,11.9531289 C1.42186589,11.3281237 0.924469401,10.5833301 0.554681641,9.71874805 C0.18489388,8.85416602 0,7.94791667 0,7 C0,6.05208333 0.18489388,5.14583398 0.554681641,4.28125195 C0.924469401,3.41666992 1.42186589,2.6718763 2.04687109,2.04687109 C2.6718763,1.42186589 3.41666992,0.924469401 4.28125195,0.554681641 C5.14583398,0.18489388 6.05208333,0 7,0 Z M8.57102254,3.79188733 C7.64566635,3.7765911 6.89553406,4.55847007 6.89553406,5.53803327 C6.89553406,5.67726923 6.91009763,5.81229945 6.93900872,5.94269183 C5.5455437,5.85303177 4.3107511,5.12780067 3.48477584,4.03450962 C3.3406526,4.29644664 3.25796721,4.60257274 3.25796721,4.93063495 C3.25796721,5.5511258 3.55377638,6.10261081 4.00323057,6.42803724 C3.72807835,6.41559285 3.47032751,6.33227021 3.24425353,6.19565563 L3.24425353,6.21844154 C3.24425353,7.0856596 3.82198533,7.812259 4.58856828,7.98178493 C4.44803191,8.02175388 4.29980321,8.04255213 4.14735381,8.04180316 C4.04143316,8.04125597 3.93585666,8.0296952 3.83232821,8.00730744 C4.04533674,8.71797688 4.66441124,9.23718426 5.39732941,9.25448253 C4.82371747,9.73003375 4.10114218,10.0140941 3.31663927,10.0121065 C3.18137518,10.0121065 3.04771006,10.0030324 2.91666667,9.98658396 C3.65845839,10.495349 4.53898584,10.7916667 5.48554637,10.7916667 C8.56680184,10.7924011 10.2518697,8.1107946 10.2518697,5.78414115 C10.2518697,5.70754481 10.2504004,5.63181266 10.2470152,5.55659903 C10.5744868,5.31262284 10.8586134,5.00721689 11.0833333,4.65773708 C10.7781569,4.79503638 10.4534179,4.88386908 10.1208407,4.921028 C10.4669814,4.70804755 10.732439,4.36742572 10.8578788,3.95866225 C10.5337779,4.15519423 10.1752777,4.29569766 9.79410377,4.36890925 C9.48868639,4.02143149 9.05284504,3.80011157 8.57102254,3.79188733 Z" id="形状结合" fill="#FFFFFF" fill-rule="nonzero"></path>
                            <g id="推特1" transform="translate(2.916667, 3.791667)"></g>
                        </g>
                    </g>
                </g>
            </g>
        </g>
    </g>
</svg>