<?xml version="1.0" encoding="UTF-8"?>
<svg width="24px" height="24px" viewBox="0 0 24 24" version="1.1" xmlns="http://www.w3.org/2000/svg" xmlns:xlink="http://www.w3.org/1999/xlink">
    <title>Twitter</title>
    <g id="notbox-V2-web" stroke="none" stroke-width="1" fill="none" fill-rule="evenodd">
        <g id="nutbox-Tokens-more" transform="translate(-1184.000000, -174.000000)">
            <g id="编组-7备份" transform="translate(1168.000000, 66.000000)">
                <g id="编组-6" transform="translate(0.000000, 96.000000)">
                    <g id="Twitter" transform="translate(16.000000, 12.000000)">
                        <rect id="矩形备份-7" stroke="#E3E5E8" fill="#F6F7F9" x="0.5" y="0.5" width="23" height="23" rx="11.5"></rect>
                        <g transform="translate(6.000000, 8.250000)" fill="#242629" fill-rule="nonzero" id="twitter">
                            <g>
                                <path d="M10.9485531,2.37370465 C10.9485531,6.6431448 8.1414791,9.71752722 4.01286174,9.85245309 C2.26688103,9.98737896 1.07073955,9.45731303 0,8.65739535 C1.19614148,8.79232122 2.80707395,8.39718116 3.59807074,7.58762592 C2.40192926,7.58762592 1.7266881,6.91299655 1.33118971,5.99742812 L2.40192926,5.99742812 C1.33118971,5.5926505 0.520900322,4.79273282 0.520900322,3.4627492 C0.781350482,3.59767508 1.05144695,3.72296339 1.59163987,3.72296339 C0.655948553,3.19289745 0.125401929,1.45813622 0.790996785,0.388366789 C1.98713826,1.7183504 3.45337621,2.92304571 5.87459807,3.04833402 C5.19935691,0.388366789 8.68167203,-0.96089195 10.14791,0.783506849 C10.8231511,0.648580975 11.2186495,0.388366789 11.7395498,0.108877479 C11.6045016,0.783506849 11.2090032,1.17864691 10.6688103,1.43886109 C11.1993569,1.43886109 11.6045016,1.30393522 12,1.04372103 C11.8745981,1.57378697 11.3440514,2.11349046 10.9485531,2.37370465 Z" id="路径"></path>
                            </g>
                        </g>
                    </g>
                </g>
            </g>
        </g>
    </g>
</svg>