<?xml version="1.0" encoding="UTF-8"?>
<svg width="16px" height="16px" viewBox="0 0 16 16" version="1.1" xmlns="http://www.w3.org/2000/svg" xmlns:xlink="http://www.w3.org/1999/xlink">
    <title>icon_help-circle_line_16</title>
    <g id="页面-1" stroke="none" stroke-width="1" fill="none" fill-rule="evenodd">
        <g id="Manage-Community-Nut-Power" transform="translate(-1304.000000, -423.000000)" fill="#747576" fill-rule="nonzero">
            <g id="card1备份-3" transform="translate(1045.000000, 224.000000)">
                <g id="编组-12" transform="translate(20.000000, 199.000000)">
                    <g id="icon_help-circle_line_16" transform="translate(239.000000, 0.000000)">
                        <path d="M8,1 C11.8659932,1 15,4.13400675 15,8 C15,11.8659932 11.8659932,15 8,15 C4.13400675,15 1,11.8659932 1,8 C1,4.13400675 4.13400675,1 8,1 Z M8,2.5 C4.96243388,2.5 2.5,4.96243388 2.5,8 C2.5,11.0375661 4.96243388,13.5 8,13.5 C11.0375661,13.5 13.5,11.0375661 13.5,8 C13.5,4.96243388 11.0375661,2.5 8,2.5 Z M8,10.5 C8.41421356,10.5 8.75,10.8357864 8.75,11.25 C8.75,11.6642136 8.41421356,12 8,12 C7.58578644,12 7.25,11.6642136 7.25,11.25 C7.25,10.8357864 7.58578644,10.5 8,10.5 Z M8,4 C9.38071187,4 10.5,5.11928813 10.5,6.5 C10.5,7.61919956 9.76455392,8.56662648 8.75057321,8.88536932 L8.75,9.25 C8.75,9.66421356 8.41421356,10 8,10 C7.58578644,10 7.25,9.66421356 7.25,9.25 L7.25,8.25 C7.25,7.87030423 7.53215388,7.55650904 7.89822944,7.50684662 L8,7.5 C8.55228475,7.5 9,7.05228475 9,6.5 C9,5.94771525 8.55228475,5.5 8,5.5 C7.44771525,5.5 7,5.94771525 7,6.5 L6.996,6.5 L6.99315338,6.55177056 C6.94349096,6.91784612 6.62969577,7.2 6.25,7.2 C5.87030423,7.2 5.55650904,6.91784612 5.50684662,6.55177056 L5.503,6.5 L5.5,6.5 L5.501,6.466 L5.50531768,6.33562431 C5.58996133,5.03153594 6.6745166,4 8,4 Z" id="形状结合"></path>
                    </g>
                </g>
            </g>
        </g>
    </g>
</svg>