<?xml version="1.0" encoding="UTF-8"?>
<svg width="354px" height="122px" viewBox="0 0 354 122" version="1.1" xmlns="http://www.w3.org/2000/svg" xmlns:xlink="http://www.w3.org/1999/xlink">
    <title>编组</title>
    <defs>
        <linearGradient x1="50.929606%" y1="42.6530612%" x2="50.9294927%" y2="55.877551%" id="linearGradient-1">
            <stop stop-color="#B275F9" offset="0%"></stop>
            <stop stop-color="#B275F9" stop-opacity="0" offset="100%"></stop>
        </linearGradient>
    </defs>
    <g id="页面-1" stroke="none" stroke-width="1" fill="none" fill-rule="evenodd" opacity="0.100000001">
        <g id="Nutbox-Home备份" transform="translate(-583.000000, -642.000000)">
            <g id="编组-2" transform="translate(120.000000, 584.000000)">
                <g id="路径-2-+-路径-2-蒙版" transform="translate(432.000000, 0.000000)">
                    <g id="编组" transform="translate(33.000000, 60.000000)">
                        <path d="M0,81.5554222 C0,78.2078239 19.4412809,85.4815573 38.8825617,85.4815573 C58.3238426,85.4815573 58.3238426,58.7549367 77.7651234,58.7549367 C97.2064043,58.7549367 97.2064043,26.4108022 116.647685,26.4108022 C136.088966,26.4108022 136.088966,90.279721 155.530247,90.279721 C174.971528,90.279721 174.971528,82.168653 194.412809,82.168653 C213.854089,82.168653 213.854089,94.0579835 233.29537,94.0579835 C252.736651,94.0579835 252.736651,0 272.177932,0 C291.619213,0 291.619213,89.5406685 311.060494,89.5406685 C330.501775,89.5406685 336.577175,78.8135076 349.943055,79.9845626 C350.018982,79.9912149 350.018982,93.329694 349.943055,120 L0,120 C0,94.5612841 0,81.7464249 0,81.5554222 Z" id="shade" fill="url(#linearGradient-1)" opacity="0.543648098"></path>
                        <path d="M0,81.5051461 C19.4444444,81.5051461 19.4444444,85.4288608 38.8888889,85.4288608 C58.3333333,85.4288608 58.3333333,58.7187163 77.7777778,58.7187163 C97.2222222,58.7187163 97.2222222,26.3945209 116.666667,26.3945209 C136.111111,26.3945209 136.111111,90.2240667 155.555556,90.2240667 C175,90.2240667 175,82.1179988 194.444444,82.1179988 C213.888889,82.1179988 213.888889,94 233.333333,94 C252.777778,94 252.777778,0 272.222222,0 C291.666667,0 291.666667,89.4854698 311.111111,89.4854698 C330.555556,89.4854698 330.555556,79.9352549 350,79.9352549" id="line_1" stroke="#B275F9" stroke-width="4" stroke-linecap="round"></path>
                    </g>
                </g>
            </g>
        </g>
    </g>
</svg>