<?xml version="1.0" encoding="UTF-8"?>
<svg width="324px" height="386px" viewBox="0 0 324 386" version="1.1" xmlns="http://www.w3.org/2000/svg" xmlns:xlink="http://www.w3.org/1999/xlink">
    <title>背景框</title>
    <defs>
        <linearGradient x1="80.1289876%" y1="39.3534782%" x2="96.2575396%" y2="53.412232%" id="linearGradient-1">
            <stop stop-color="#9C4D1B" offset="0%"></stop>
            <stop stop-color="#DC7C41" offset="42.2170196%"></stop>
            <stop stop-color="#F9D2B8" offset="100%"></stop>
        </linearGradient>
        <linearGradient x1="21.0883247%" y1="0%" x2="78.9116753%" y2="100%" id="linearGradient-2">
            <stop stop-color="#FFFFFF" stop-opacity="0.7" offset="0%"></stop>
            <stop stop-color="#FFFFFF" stop-opacity="0.03" offset="100%"></stop>
        </linearGradient>
        <linearGradient x1="21.0883247%" y1="0%" x2="78.9116753%" y2="95.6317117%" id="linearGradient-3">
            <stop stop-color="#FFFFFF" stop-opacity="0.296246722" offset="0%"></stop>
            <stop stop-color="#FFFFFF" stop-opacity="0" offset="100%"></stop>
        </linearGradient>
        <path d="M40,0 L284,0 C297.254834,-2.4348735e-15 308,10.745166 308,24 L308,360 C308,373.254834 297.254834,384 284,384 L40,384 C26.745166,384 16,373.254834 16,360 L16,24 C16,10.745166 26.745166,2.4348735e-15 40,0 Z" id="path-4"></path>
    </defs>
    <g id="页面-1" stroke="none" stroke-width="1" fill="none" fill-rule="evenodd">
        <g id="nutbox-HOME" transform="translate(-214.000000, -1215.000000)">
            <g id="编组-5" transform="translate(214.000000, 1040.000000)">
                <g id="背景框" transform="translate(0.000000, 176.000000)">
                    <path d="M15.9985434,107.717376 L15.9984724,248.282477 C5.74601123,227.023412 0,203.182732 0,178 C0,152.81721 5.74603773,128.976478 15.9985434,107.717376 Z M308.002425,107.719383 C318.254324,128.977979 324,152.818002 324,178 C324,203.18194 318.25435,227.021912 308.002495,248.280471 Z" id="形状结合" fill="url(#linearGradient-1)"></path>
                    <path d="M40,0 L284,0 C297.254834,-2.4348735e-15 308,10.745166 308,24 L308,360 C308,373.254834 297.254834,384 284,384 L40,384 C26.745166,384 16,373.254834 16,360 L16,24 C16,10.745166 26.745166,2.4348735e-15 40,0 Z" id="矩形备份" stroke="url(#linearGradient-2)" stroke-width="2" opacity="0.89993641"></path>
                    <g id="矩形备份" opacity="0.89993641">
                        <use fill="url(#linearGradient-3)" fill-rule="evenodd" style="mix-blend-mode: multiply;" xlink:href="#path-4"></use>
                        <use stroke="url(#linearGradient-2)" stroke-width="2" xlink:href="#path-4"></use>
                    </g>
                </g>
            </g>
        </g>
    </g>
</svg>