<?xml version="1.0" encoding="UTF-8"?>
<svg width="68px" height="68px" viewBox="0 0 68 68" version="1.1" xmlns="http://www.w3.org/2000/svg" xmlns:xlink="http://www.w3.org/1999/xlink">
    <title>icon_proposals</title>
    <g id="页面-1" stroke="none" stroke-width="1" fill="none" fill-rule="evenodd">
        <g id="nutbox-HOME-2" transform="translate(-1062.000000, -1310.000000)">
            <g id="编组-5" transform="translate(214.000000, 1040.000000)">
                <g id="编组-19备份-4" transform="translate(720.000000, 176.000000)">
                    <g id="icon_proposals" transform="translate(128.000000, 94.000000)">
                        <circle id="椭圆形" fill="#F8B62A" cx="34" cy="34" r="34"></circle>
                        <path d="M44.6788393,16.9456705 C48.0617078,19.8856702 50,24.1206698 50,28.5633361 C50,33.2020022 47.8514214,37.6330018 44.1096945,40.7200015 C42.8893648,41.7295607 42.1764194,43.2442324 42.1668309,44.8476677 L42.1668309,53.5626668 C42.1668309,54.3560001 41.5062572,55 40.6902545,55 L27.2936382,55 C26.4776354,55 25.8147761,54.3560001 25.8147761,53.5626668 L25.8124903,45.298001 C25.7822576,45.1823012 25.7668906,45.0630796 25.7667759,44.9433344 L25.7667759,44.6073344 C25.7667759,43.0486679 25.0239163,41.5460014 23.7301977,40.4843348 C19.6387554,37.2246685 17.5221769,32.1520023 18.0913216,26.9276695 C18.7884668,19.7690036 24.7016295,13.9473375 32.1462258,13.1026709 C36.7999557,12.598671 41.2479707,13.9613375 44.6788393,16.9456705 Z M39.2113924,46.3783342 L28.7702146,46.3783342 L28.7702146,52.1253336 L39.2136781,52.1253336 L39.2113924,46.3783342 Z M42.708547,19.0876703 C39.9131091,16.6563373 36.2856683,15.5433374 32.482227,15.9563373 C26.4204924,16.6470039 21.6021905,21.3813368 21.03076,27.2146695 C20.5604087,31.4670621 22.3009261,35.6612351 25.6204897,38.2746684 C27.2936382,39.6466682 28.3564989,41.508668 28.6422141,43.5060012 L32.5142271,43.5036678 L32.5142271,35.4583354 L30.7405068,35.4583354 C30.0259325,35.4711996 29.4075218,34.9535203 29.2799305,34.2356688 L29.2639305,34.0233355 C29.2639305,33.2300022 29.9267899,32.5860023 30.7405068,32.5860023 L37.1930999,32.5860023 C38.0091026,32.5860023 38.671962,33.2276689 38.671962,34.0233355 C38.671962,34.8166688 38.0091027,35.4583354 37.1930999,35.4583354 L35.4696656,35.4583354 L35.4696656,43.5036678 L39.3256785,43.5036678 C39.6364209,41.713615 40.516977,40.0782113 41.8308297,38.8510017 L42.2011167,38.5266683 C45.2776984,35.9880019 47.0468472,32.3550023 47.0468472,28.5633361 C47.0332182,24.9078715 45.4469354,21.4431308 42.708547,19.0876703 L42.708547,19.0876703 Z" id="形状" fill="#121212" fill-rule="nonzero"></path>
                    </g>
                </g>
            </g>
        </g>
    </g>
</svg>