<?xml version="1.0" encoding="UTF-8"?>
<svg width="304px" height="122px" viewBox="0 0 304 122" version="1.1" xmlns="http://www.w3.org/2000/svg" xmlns:xlink="http://www.w3.org/1999/xlink">
    <title>编组 8</title>
    <defs>
        <linearGradient x1="50.929606%" y1="40.2659852%" x2="50.9294927%" y2="57.7872119%" id="linearGradient-1">
            <stop stop-color="#FFB13A" offset="0%"></stop>
            <stop stop-color="#FFB13A" stop-opacity="0" offset="100%"></stop>
        </linearGradient>
    </defs>
    <g id="页面-1" stroke="none" stroke-width="1" fill="none" fill-rule="evenodd" opacity="0.100000001">
        <g id="Nutbox-Home备份" transform="translate(-176.000000, -640.000000)">
            <g id="编组-2" transform="translate(120.000000, 584.000000)">
                <g id="编组-8" transform="translate(58.000000, 58.000000)">
                    <path d="M0.49833887,78.4498123 C19.6671467,78.4498123 19.6671467,100 38.8359545,100 C58.0047623,100 58.0047623,60.3953169 77.1735701,60.3953169 C96.3423779,60.3953169 96.3423779,83.45573 115.511186,83.45573 C134.679993,83.45573 134.679993,48.3803736 153.848801,48.3803736 C173.017609,48.3803736 173.017609,-2.27373675e-13 192.186417,-2.27373675e-13 C211.355225,-2.27373675e-13 211.355225,49.9631883 230.524032,49.9631883 C249.69284,49.9631883 246.898849,26.4756478 262.873105,26.4756478 C278.84736,26.4756478 280.332853,87.2138988 299.501661,87.2138988" id="line" stroke="#FFB13A" stroke-width="4" stroke-linecap="round"></path>
                    <path d="M0.49833887,80.7280129 C19.5268904,80.7280129 20.5583953,102.354622 39.5869469,102.354622 C58.6154984,102.354622 58.6154984,62.6094922 77.6440499,62.6094922 C96.6726014,62.6094922 96.6726014,85.7516828 115.701153,85.7516828 C134.729704,85.7516828 134.729704,50.5519412 153.758256,50.5519412 C172.786808,50.5519412 172.786808,2 191.815359,2 C210.843911,2 210.843911,52.1403689 229.872462,52.1403689 C248.901014,52.1403689 246.629097,28.8038055 263.020469,28.8038055 C279.411841,28.8038055 280.417189,89.5136641 299.44574,89.5136641 C299.492491,89.5136641 299.543816,120 299.44574,120 C297.884657,120 198.235523,120 0.49833887,120 L0.49833887,80.7280129 Z" id="shade" fill="url(#linearGradient-1)" opacity="0.300000012"></path>
                </g>
            </g>
        </g>
    </g>
</svg>