<?xml version="1.0" encoding="UTF-8"?>
<svg width="24px" height="24px" viewBox="0 0 24 24" version="1.1" xmlns="http://www.w3.org/2000/svg" xmlns:xlink="http://www.w3.org/1999/xlink">
    <title>icon/home/l/s</title>
    <g id="cummunity-Peanut-" stroke="none" stroke-width="1" fill="none" fill-rule="evenodd">
        <g id="社区-icon" transform="translate(-406.000000, -362.000000)">
            <g id="icon/home/l/s" transform="translate(406.000000, 362.000000)">
                <rect id="Rectangle-3" fill="#D8D8D8" opacity="0" x="0" y="0" width="24" height="24"></rect>
                <path d="M12.0144969,4.52770476 C12.4167267,4.17725638 12.9589409,4.07631793 13.4418091,4.2248894 L13.4418091,4.2248894 L20.8159906,10.3743304 L20.9999475,19.4873055 C21.0034162,19.9065483 20.8348771,20.2864432 20.5606602,20.5606602 C20.2892136,20.8321068 19.9142136,21 19.5,21 L19.5,21 L6.5,21 C6.08578644,21 5.71078644,20.8321068 5.43933983,20.5606602 C5.16789322,20.2892136 5,19.9142136 5,19.5 L5,19.5 L5,10.7818088 Z" id="路径" stroke="#FFDB1B" stroke-width="2" fill="#FFDB1B"></path>
                <path d="M11.0144969,3.52770476 C11.4167267,3.17725638 11.9589409,3.07631793 12.4418091,3.2248894 L12.4418091,3.2248894 L19.8159906,9.37433038 L19.9999475,18.4873055 C20.0034162,18.9065483 19.8348771,19.2864432 19.5606602,19.5606602 C19.2892136,19.8321068 18.9142136,20 18.5,20 L18.5,20 L5.5,20 C5.08578644,20 4.71078644,19.8321068 4.43933983,19.5606602 C4.16789322,19.2892136 4,18.9142136 4,18.5 L4,18.5 L4,9.78180879 Z" id="路径" stroke="#242629" stroke-width="2"></path>
                <line x1="9" y1="15" x2="15" y2="15" id="直线-2" stroke="#242629" stroke-width="2" stroke-linecap="round" stroke-linejoin="round"></line>
            </g>
        </g>
    </g>
</svg>