<?xml version="1.0" encoding="UTF-8"?>
<svg width="48px" height="48px" viewBox="0 0 48 48" version="1.1" xmlns="http://www.w3.org/2000/svg" xmlns:xlink="http://www.w3.org/1999/xlink">
    <title>community</title>
    <defs>
        <radialGradient cx="50%" cy="50%" fx="50%" fy="50%" r="56.6874186%" id="radialGradient-1">
            <stop stop-color="#000000" stop-opacity="0.0475305944" offset="0%"></stop>
            <stop stop-color="#FFFFFF" stop-opacity="0.0526660839" offset="100%"></stop>
        </radialGradient>
        <rect id="path-2" x="0" y="0" width="48" height="48" rx="12"></rect>
        <filter x="-1.8%" y="-1.8%" width="103.6%" height="103.6%" filterUnits="objectBoundingBox" id="filter-3">
            <feGaussianBlur stdDeviation="0.5" in="SourceAlpha" result="shadowBlurInner1"></feGaussianBlur>
            <feOffset dx="0" dy="0.75" in="shadowBlurInner1" result="shadowOffsetInner1"></feOffset>
            <feComposite in="shadowOffsetInner1" in2="SourceAlpha" operator="arithmetic" k2="-1" k3="1" result="shadowInnerInner1"></feComposite>
            <feColorMatrix values="0 0 0 0 1   0 0 0 0 1   0 0 0 0 1  0 0 0 0.2 0" type="matrix" in="shadowInnerInner1"></feColorMatrix>
        </filter>
        <path d="M0,0 L12,0 C18.627417,-1.21743675e-15 24,5.372583 24,12 L24,36 C24,42.627417 18.627417,48 12,48 L0,48 L0,48 L0,0 Z" id="path-4"></path>
        <filter x="-26.5%" y="-27.5%" width="152.9%" height="154.9%" filterUnits="objectBoundingBox" id="filter-6">
            <feGaussianBlur stdDeviation="3" in="SourceGraphic"></feGaussianBlur>
        </filter>
    </defs>
    <g id="页面-1" stroke="none" stroke-width="1" fill="none" fill-rule="evenodd">
        <g id="Nutbox-Home备份-3" transform="translate(-140.000000, -610.000000)">
            <g id="编组-2" transform="translate(120.000000, 584.000000)">
                <g id="community" transform="translate(20.000000, 26.000000)">
                    <g id="矩形">
                        <use fill="url(#radialGradient-1)" fill-rule="evenodd" xlink:href="#path-2"></use>
                        <use fill="black" fill-opacity="1" filter="url(#filter-3)" xlink:href="#path-2"></use>
                    </g>
                    <path d="M24,8 L24,34 L22,34 L14.6643638,40.5205655 C14.4813127,40.6832776 14.2449142,40.7731562 14,40.7731562 C13.4871642,40.7731562 13.0644928,40.387116 13.0067277,39.8897773 L13,39.7731562 L13,34 C9.6862915,34 7,31.3137085 7,28 L7,14 C7,10.6862915 9.6862915,8 13,8 L24,8 Z" id="形状结合" fill="#FFB13A"></path>
                    <g id="形状结合" transform="translate(24.000000, 0.000000)">
                        <mask id="mask-5" fill="white">
                            <use xlink:href="#path-4"></use>
                        </mask>
                        <use id="蒙版" fill-opacity="0.1" fill="#FFFFFF" xlink:href="#path-4"></use>
                        <path d="M-17,28 L-17,14 C-17,10.6862915 -14.3137085,8 -11,8 L11,8 C14.3137085,8 17,10.6862915 17,14 L17,28 C17,31.3137085 14.3137085,34 11,34 L-2,34 L-9.33563616,40.5205655 C-9.51868729,40.6832776 -9.75508584,40.7731562 -10,40.7731562 C-10.5522847,40.7731562 -11,40.3254409 -11,39.7731562 L-11,39.7731562 L-11,34 C-14.3137085,34 -17,31.3137085 -17,28 Z" fill="#FFB13A" filter="url(#filter-6)" mask="url(#mask-5)"></path>
                    </g>
                </g>
            </g>
        </g>
    </g>
</svg>