<?xml version="1.0" encoding="UTF-8"?>
<svg width="304px" height="122px" viewBox="0 0 304 122" version="1.1" xmlns="http://www.w3.org/2000/svg" xmlns:xlink="http://www.w3.org/1999/xlink">
    <title>编组 2</title>
    <defs>
        <linearGradient x1="50.929606%" y1="39.9338845%" x2="50.9294927%" y2="58.0528924%" id="linearGradient-1">
            <stop stop-color="#FFB13A" offset="0%"></stop>
            <stop stop-color="#FFB13A" stop-opacity="0" offset="100%"></stop>
        </linearGradient>
    </defs>
    <g id="页面-1" stroke="none" stroke-width="1" fill="none" fill-rule="evenodd" opacity="0.100000001">
        <g id="Nutbox-Home备份" transform="translate(-1040.000000, -642.000000)">
            <g id="编组-2" transform="translate(120.000000, 584.000000)">
                <g transform="translate(922.000000, 60.000000)">
                    <path d="M0,57.6211454 C38.549202,57.6211454 35.8866816,24.6472965 56.0871084,24.6472965 C76.2875352,24.6472965 74.2953929,84.251551 96.487962,84.251551 C118.680531,84.251551 119.016285,64.2290749 137.265041,64.2290749 C155.513797,64.2290749 155.920772,87.7775308 177.289669,87.7775308 C198.658566,87.7775308 197.490096,0 217.690523,0 C237.89095,0 237.89095,83.5618466 258.091376,83.5618466 C278.291803,83.5618466 278.812731,74.6438223 299.013158,74.6438223 C299.013158,75.8063842 299.013158,90.8805816 299.013158,119.866414 L0,120 C0,78.4140969 0,57.6211454 0,57.6211454 Z" id="shade" fill="url(#linearGradient-1)" opacity="0.300000012" transform="translate(149.506579, 60.000000) scale(-1, 1) translate(-149.506579, -60.000000) "></path>
                    <path d="M0,56.8487631 C41.1458333,56.8487631 37.4421296,24.4289715 57.6388889,24.4289715 C77.8356481,24.4289715 75.8438675,83.5052532 98.0324074,83.5052532 C120.220947,83.5052532 120.556641,63.6601357 138.802083,63.6601357 C157.047526,63.6601357 157.454427,87 178.819444,87 C200.184462,87 199.016204,0 219.212963,0 C239.409722,0 239.409722,82.8216582 259.606481,82.8216582 C279.803241,82.8216582 279.803241,73.9826295 300,73.9826295" id="line" stroke="#FFB13A" stroke-width="4" stroke-linecap="round" transform="translate(150.000000, 43.500000) scale(-1, 1) translate(-150.000000, -43.500000) "></path>
                </g>
            </g>
        </g>
    </g>
</svg>