<?xml version="1.0" encoding="UTF-8"?>
<svg width="16px" height="16px" viewBox="0 0 16 16" version="1.1" xmlns="http://www.w3.org/2000/svg" xmlns:xlink="http://www.w3.org/1999/xlink">
    <title>icon/share/l</title>
    <g id="页面-1" stroke="none" stroke-width="1" fill="none" fill-rule="evenodd">
        <g id="Community-Pool" transform="translate(-811.000000, -300.000000)">
            <g id="card1备份" transform="translate(676.000000, 174.000000)">
                <g id="编组-5" transform="translate(0.000000, 124.000000)">
                    <g id="icon/share/l备份" transform="translate(135.000000, 2.000000)">
                        <rect id="矩形" opacity="0.374139695" x="0" y="0" width="16" height="16"></rect>
                        <g id="编组" transform="translate(1.307550, 1.706305)" fill="#747576" fill-rule="nonzero">
                            <path d="M4.94829907,0.909107703 C5.10973225,1.29056832 4.93136476,1.7306707 4.54990414,1.89210388 C3.95631026,2.14331132 3.41730067,2.50724174 2.96234299,2.96219941 C2.50659987,3.41794253 2.14249041,3.95698284 1.89224746,4.54976057 C1.63459577,5.15858196 1.5,5.81609728 1.5,6.49296493 C1.5,7.17027354 1.63448344,7.82708246 1.89261539,8.43704022 C2.1422709,9.02904512 2.50604846,9.56743591 2.96234299,10.0237304 C3.4180861,10.4794736 3.95712641,10.843583 4.5505159,11.0940852 C5.15797186,11.3517938 5.81455524,11.4860734 6.4931085,11.4860734 C7.17122102,11.4860734 7.82850856,11.351682 8.43692531,11.0935671 C9.0290906,10.843583 9.5681309,10.4794736 10.023874,10.0237304 C10.4801685,9.56743591 10.8439461,9.02904512 11.0936016,8.43704022 C11.2545538,8.0553764 11.694431,7.87645426 12.0760948,8.03740643 C12.4577586,8.19835861 12.6366808,8.63823578 12.4757286,9.01989961 C12.1503884,9.79137466 11.6771347,10.4917901 11.0845342,11.0843906 C10.4925043,11.6764205 9.79158034,12.1498787 9.02152587,12.4749579 C8.22952903,12.8109565 7.37305936,12.9860734 6.4931085,12.9860734 C5.61269261,12.9860734 4.75692951,12.811059 3.96591534,12.4754759 C3.19463667,12.1498787 2.49371268,11.6764205 1.90168282,11.0843906 C1.30908233,10.4917901 0.835828636,9.79137466 0.510856355,9.02077054 C0.175169792,8.22755562 0,7.37203704 0,6.49296493 C0,5.61435826 0.175272911,4.75813056 0.510597488,3.96577176 C0.836194755,3.19449309 1.30965296,2.4935691 1.90168282,1.90153924 C2.49284001,1.31038204 3.19338141,0.837388013 3.96530289,0.510712777 C4.34676351,0.3492796 4.78686589,0.527647084 4.94829907,0.909107703 Z M12.2361452,0 C12.615841,0 12.9296362,0.282153882 12.9792986,0.648229443 L12.9861452,0.75 L12.9861452,4.33944282 C12.9861452,4.75365638 12.6503588,5.08944282 12.2361452,5.08944282 C11.8564495,5.08944282 11.5426543,4.80728893 11.4929918,4.44121337 L11.4861452,4.33944282 L11.486,2.56 L7.38231108,6.66449431 C7.08941786,6.95738753 6.61454413,6.95738753 6.32165091,6.66449431 C6.05538435,6.39822775 6.0311783,5.98156406 6.24903276,5.68795257 L6.32165091,5.60383414 L10.424,1.5 L8.6467024,1.5 C8.23248884,1.5 7.8967024,1.16421356 7.8967024,0.75 C7.8967024,0.370304234 8.17885629,0.0565090391 8.54493185,0.006846616 L8.6467024,0 L12.2361452,0 L12.2361452,0 Z" id="形状结合"></path>
                        </g>
                    </g>
                </g>
            </g>
        </g>
    </g>
</svg>