<?xml version="1.0" encoding="UTF-8"?>
<svg width="23px" height="23px" viewBox="0 0 23 23" version="1.1" xmlns="http://www.w3.org/2000/svg" xmlns:xlink="http://www.w3.org/1999/xlink">
    <title>loading</title>
    <g id="页面-1" stroke="none" stroke-width="1" fill="none" fill-rule="evenodd">
        <g id="Community-Pool" transform="translate(-855.000000, -423.000000)" fill-rule="nonzero">
            <g id="card1备份" transform="translate(676.000000, 174.000000)">
                <g id="loading" transform="translate(179.000000, 249.000000)">
                    <path d="M11.5,0 C5.14872538,0 0,5.14872538 0,11.5 C0,17.8512746 5.14872538,23 11.5,23 C17.8512746,23 23,17.8512746 23,11.5 C23,5.14872538 17.8512746,0 11.5,0 Z M11.5,3 C16.1944204,3 20,6.80557963 20,11.5 C20,16.1944204 16.1944204,20 11.5,20 C6.80557963,20 3,16.1944204 3,11.5 C3,6.80557963 6.80557963,3 11.5,3 Z" id="椭圆形" fill="#1C1D1E"></path>
                    <path d="M11.5,0 C12.3284271,0 13,0.671572875 13,1.5 C13,2.32842712 12.3284271,3 11.5,3 C6.80557963,3 3,6.80557963 3,11.5 C3,12.3284271 2.32842712,13 1.5,13 C0.671572875,13 0,12.3284271 0,11.5 C0,5.14872538 5.14872538,0 11.5,0 Z" id="路径" fill="#999999"></path>
                </g>
            </g>
        </g>
    </g>
</svg>