<?xml version="1.0" encoding="UTF-8"?>
<svg width="60px" height="60px" viewBox="0 0 60 60" version="1.1" xmlns="http://www.w3.org/2000/svg" xmlns:xlink="http://www.w3.org/1999/xlink">
    <title>june</title>
    <defs>
        <rect id="path-1" x="0" y="0" width="60" height="60" rx="1.25"></rect>
    </defs>
    <g id="页面-1" stroke="none" stroke-width="1" fill="none" fill-rule="evenodd">
        <g id="Manage-Community-staking-choose-a-type备份-2" transform="translate(-1018.000000, -415.000000)">
            <g id="编组-15备份" transform="translate(342.000000, 245.000000)">
                <g id="编组-14备份-12" transform="translate(616.000000, 110.997500)">
                    <g id="june" transform="translate(60.000000, 59.000000)">
                        <mask id="mask-2" fill="white">
                            <use xlink:href="#path-1"></use>
                        </mask>
                        <g id="蒙版"></g>
                        <path d="M30,-5.68434189e-14 C46.4028707,-5.68434189e-14 59.7310574,13.164158 59.9959809,29.5038947 L60,30 L59.9959809,30.4961095 C59.7310589,46.8359838 46.4029442,60 30,60 C13.4313695,60 7.10542736e-15,46.5687009 7.10542736e-15,30 C7.10542736e-15,13.4314438 13.4314438,-5.68434189e-14 30,-5.68434189e-14 Z M30,2.31205669 C14.7083575,2.31205669 2.31205669,14.7083575 2.31205669,30 C2.31205669,45.2917845 14.7082805,57.6879433 30,57.6879433 C45.1388024,57.6879433 57.4397293,45.5384681 57.6842339,30.4578753 L57.6879433,30 L57.6842339,29.5421288 C57.4397278,14.461671 45.1387262,2.31205669 30,2.31205669 Z M31.4821415,12.321561 L31.7864993,19.9526048 L37.4038805,14.7820235 L39.4884359,16.8665789 L34.3075707,22.4776148 L41.9362077,22.7935692 L41.9362077,25.741748 L34.3051638,26.0461058 L39.4761828,31.6634871 L37.390971,33.7482613 L31.8696451,28.6501043 L31.6199886,41.002304 L36.0763904,41.3283236 L36.0763904,44.0741078 L31.5508462,44.4174128 L31.4641995,48.7035843 L28.5160206,48.7035843 L28.4324371,44.4110675 L23.9537172,44.0710445 L23.9537172,41.3252603 L28.3659204,41.0025229 L28.1252348,28.6441965 L22.5942816,33.7357894 L20.5095074,31.6507963 L25.6903726,26.0397604 L18.0617356,25.723806 L18.0617356,22.7756272 L25.6929983,22.4712693 L20.522198,16.8538881 L22.6071911,14.7691139 L28.2180082,19.9499792 L28.5337438,12.321561 L31.4821415,12.321561 Z" id="形状结合" fill="#FFFFFF" fill-rule="nonzero" mask="url(#mask-2)"></path>
                    </g>
                </g>
            </g>
        </g>
    </g>
</svg>