<?xml version="1.0" encoding="UTF-8"?>
<svg width="60px" height="60px" viewBox="0 0 60 60" version="1.1" xmlns="http://www.w3.org/2000/svg" xmlns:xlink="http://www.w3.org/1999/xlink">
    <title>BSC</title>
    <g id="页面-1" stroke="none" stroke-width="1" fill="none" fill-rule="evenodd">
        <g id="Manage-Community-staking-choose-a-type" transform="translate(-498.000000, -415.000000)" fill="#FFFFFF" fill-rule="nonzero">
            <g id="编组-15备份" transform="translate(398.000000, 245.000000)">
                <g id="编组-14备份-8" transform="translate(40.000000, 110.997500)">
                    <g id="BSC" transform="translate(60.000000, 59.000000)">
                        <path d="M22.7770693,29.8749071 L29.9251774,22.7284206 L37.0716639,29.8749071 L29.9251774,37.0278801 L22.7786909,29.8749071 L22.7770693,29.8749071 Z M45.5251774,29.8749071 L52.6716639,22.7284206 L59.8181503,29.8749071 L52.6716639,37.0213936 L45.5251774,29.8749071 Z M0.0305827703,29.8749071 L7.17706926,22.7284206 L14.3235557,29.8749071 L7.17706926,37.0213936 L0.0305827703,29.8749071 Z M11.3170693,18.5949071 L29.8911233,0.0240962838 L37.0376098,7.17058277 L18.4635557,25.7413936 L11.3170693,18.5949071 Z" id="形状"></path>
                        <path d="M41.3851774,25.7413936 L22.8143666,7.17058277 L29.960853,0.0240962838 L48.5316639,18.5932855 L41.3851774,25.739772 L41.3851774,25.7413936 Z M18.4651774,34.1089611 L37.0359882,52.679772 L29.8895017,59.8262584 L11.3186909,41.2554476 L18.4651774,34.1089611 Z" id="形状"></path>
                        <polygon id="路径" points="48.539772 41.2554476 29.9689611 59.8262584 22.8224747 52.679772 41.3932855 34.1089611"></polygon>
                    </g>
                </g>
            </g>
        </g>
    </g>
</svg>