<?xml version="1.0" encoding="UTF-8"?>
<svg width="60px" height="60px" viewBox="0 0 60 60" version="1.1" xmlns="http://www.w3.org/2000/svg" xmlns:xlink="http://www.w3.org/1999/xlink">
    <title>steem logo</title>
    <g id="页面-1" stroke="none" stroke-width="1" fill="none" fill-rule="evenodd">
        <g id="Manage-Community-staking-choose-a-type备份-3" transform="translate(-687.000000, -415.000000)" fill="#FFFFFF" fill-rule="nonzero">
            <g id="编组-15备份" transform="translate(398.000000, 245.000000)">
                <g id="卡1" transform="translate(232.000000, 110.997500)">
                    <g id="steem-logo" transform="translate(57.000000, 59.000000)">
                        <g id="Cosmos-Hub" transform="translate(4.000000, 0.000000)">
                            <path d="M27.2683271,0.46007291 C27.6710385,0.809733472 28.0216966,1.21516783 28.3096604,1.66407293 C29.2955271,3.19687295 29.8371271,4.91953957 30.3147271,6.66033961 C31.1323271,9.64113961 31.6277937,12.683273 31.9888604,15.7488729 C32.1216604,16.8755395 32.2341937,18.0046062 32.3605938,19.1763396 C32.8043271,18.9750063 33.2307271,18.7715396 33.6648604,18.5864729 C35.1048604,17.9731396 36.5456604,17.3616729 37.9909938,16.7614062 C38.2152604,16.6680729 38.3264604,16.5790062 38.3496604,16.2987396 C38.4227271,15.4256729 38.8813938,14.7936729 39.7133937,14.4907396 C40.5416604,14.1894062 41.3008604,14.3534063 41.9155271,14.9891396 C42.1269937,15.2078063 42.2915271,15.2408729 42.5723271,15.1544729 C44.5080605,14.5584729 46.4659271,14.0616729 48.4973937,13.9264729 C49.3237937,13.8715396 50.1448604,13.8934062 50.9371271,14.1643396 C51.9931271,14.5256729 52.4304604,15.3280729 52.1744604,16.4195396 C51.9168604,17.5190063 51.309127,18.4384729 50.6437938,19.3206063 C49.2149938,21.2150063 47.5032604,22.8374063 45.7245937,24.3920729 C43.5437937,26.2982063 41.2397937,28.0462063 38.8739271,29.7139396 C38.7771271,29.7824729 38.6840604,29.8566062 38.5659271,29.9454063 C39.3259271,30.4966063 40.0661937,31.0235396 40.7960604,31.5640729 C43.4888604,33.5598063 46.096327,35.6584729 48.4496604,38.0547396 C49.6760604,39.3035396 50.8397937,40.6078063 51.6728604,42.1670063 C51.9947271,42.7696729 52.2531271,43.3987396 52.2341937,44.1011396 C52.2128604,44.8992729 51.7789937,45.4443396 50.9371271,45.7278063 C50.1435271,45.9950063 49.3229937,46.0224729 48.4971271,45.9643396 C45.8349937,45.7763396 43.3029937,45.0203396 40.7963271,44.1683396 C37.9976604,43.2171396 35.2773937,42.0691396 32.6008604,40.8160729 C32.5317937,40.7835396 32.4592604,40.7587396 32.3515271,40.7155396 C32.2965937,41.2643396 32.2440604,41.7894062 32.1909937,42.3144729 C31.8096604,46.0854062 31.2653937,49.8288729 30.2443271,53.4864729 C29.7675271,55.1928729 29.2165938,56.8776729 28.2195271,58.3664729 C27.9590684,58.7535764 27.6486543,59.104608 27.2963271,59.4104729 C26.5739271,60.0363396 25.7376605,60.0200729 24.9869937,59.4184729 C24.3933937,58.9422063 23.9885937,58.3160729 23.6357937,57.6552729 C22.6747271,55.8536729 22.1264604,53.9054063 21.6451271,51.9358062 C21.5872604,51.6987396 21.4944604,51.5704729 21.2469937,51.4899396 C20.4741937,51.2382063 19.9965937,50.6835396 19.8528604,49.8888729 C19.7096604,49.0966062 19.9509937,48.4078062 20.5813938,47.8891396 C20.7387271,47.7598062 20.7912604,47.6424729 20.7664604,47.4411396 C20.4928604,45.2427396 20.2285938,43.0427396 19.9611271,40.8435396 C19.9573937,40.8123396 19.9445937,40.7822063 19.9264604,40.7168729 C19.3645938,40.9710063 18.8128604,41.2230063 18.2592604,41.4702063 C14.9293938,42.9566063 11.5464604,44.2984729 8.01312709,45.2256729 C6.62432707,45.5902062 5.22112711,45.8758062 3.78406043,45.9659396 C2.96912707,46.0168729 2.16032707,45.9950063 1.37686043,45.7342062 C0.30219375,45.3768729 -0.13753957,44.5779396 0.12059373,43.4635396 C0.37019373,42.3851396 0.96486041,41.4843396 1.61312707,40.6174062 C3.04139373,38.7075396 4.76139375,37.0776729 6.54806039,35.5147396 C8.77792705,33.5635396 11.1384604,31.7800729 13.5589938,30.0747396 C13.6040604,30.0432729 13.6472604,30.0094063 13.7283271,29.9494062 L13.7283271,29.9491396 C12.8952604,29.3435396 12.0875271,28.7752729 11.3008604,28.1792729 C10.2725938,27.4000729 9.25739379,26.6038063 8.24566043,25.8032729 C8.05686041,25.6539396 7.90619379,25.5990063 7.65686039,25.6760729 C6.14966039,26.1416729 4.70166041,24.8374063 5.00139375,23.2851396 C5.04939375,23.0376729 4.94779377,22.9195396 4.79686043,22.7755396 C3.35366045,21.3966062 1.96139379,19.9675396 0.92619375,18.2448729 C0.583200776,17.6738453 0.317164956,17.0599993 0.13499373,16.4192729 C-0.17513959,15.3166063 0.30219375,14.5150063 1.38246041,14.1568729 C2.42352709,13.8115396 3.49099377,13.8648729 4.55419377,13.9939396 C7.59766043,14.3632729 10.4960604,15.2931396 13.3363271,16.3966062 C15.4563271,17.2198062 17.5315271,18.1587396 19.6269937,19.0456729 C19.7179271,19.0843396 19.8101937,19.1200729 19.9397937,19.1726063 C19.9949937,18.6259396 20.0472604,18.1014063 20.1003271,17.5774062 C20.4917937,13.7179396 21.0523271,9.88753957 22.1195271,6.14913961 C22.5536604,4.62807293 23.0560604,3.12540627 23.9101938,1.78007291 C24.2104604,1.30700625 24.5800604,0.85740627 24.9955271,0.48407291 C25.6976604,-0.14686043 26.5536604,-0.15379377 27.2683271,0.46007291 Z M25.8592604,37.7086062 C24.390974,38.4727402 22.9177879,39.2274225 21.4397937,39.9726063 C21.2645937,40.0611396 21.2280604,40.1624729 21.2472604,40.3363396 C21.2952604,40.7683396 21.3208604,41.2024729 21.3736604,41.6334063 C21.5992604,43.4787396 21.8277937,45.3240729 22.0704604,47.1672729 C22.0837938,47.2688729 22.2200604,47.4099396 22.3229937,47.4352729 C23.2093937,47.6547396 23.7832604,48.1995396 23.9645937,49.0872729 C24.1496604,49.9915396 23.8163271,50.7208729 23.0739271,51.2723396 C22.9893937,51.3350063 22.9173937,51.5192729 22.9464604,51.6144729 C23.3893938,53.0704729 23.8155271,54.5336729 24.3197937,55.9688729 C24.6261937,56.8392729 25.0632604,57.6635396 25.7536604,58.3128729 C26.0549938,58.5966062 26.2515271,58.6187395 26.5235271,58.3150062 C26.8547271,57.9448729 27.1720604,57.5486063 27.4195271,57.1195396 C28.0675271,55.9960729 28.4829937,54.7720729 28.8419271,53.5310063 C30.0885937,49.2216729 30.6365938,44.7944729 31.0525938,40.2163396 C31.0085938,40.1707396 30.9304604,40.0376729 30.8144604,39.9771396 C29.356327,39.217673 27.8893937,38.4750063 26.4336604,37.7107396 C26.2203271,37.5987396 26.0683271,37.5998063 25.8592604,37.7086062 Z M14.9083271,30.7811396 C14.8621938,30.8086062 14.7925938,30.8435396 14.7296604,30.8878062 C12.1563271,32.6848729 9.64699371,34.5651396 7.28939373,36.6416729 C5.62592707,38.1067396 4.02139371,39.6323396 2.68486043,41.4142062 C2.16992707,42.1008729 1.68859377,42.8110062 1.44832711,43.6507396 C1.29686045,44.1808729 1.41206045,44.4246062 1.95419373,44.5067396 C2.54299371,44.5963396 3.15579375,44.6771396 3.74086043,44.6102063 C4.91899377,44.4755396 6.10406045,44.3142063 7.25312707,44.0296729 C11.5712604,42.9590063 15.6509937,41.2363396 19.6627271,39.3422063 C19.7445937,39.3035396 19.8181938,39.1416729 19.8136604,39.0408729 C19.7392604,37.3603396 19.6544604,35.6803396 19.5613938,34.0006062 C19.5552604,33.8867396 19.4968604,33.7296729 19.4107271,33.6736729 C17.9195271,32.7051396 16.4200604,31.7491396 14.9083271,30.7814063 L14.9083271,30.7811396 Z M37.4157937,30.7603396 C35.8749937,31.7462063 34.3749937,32.7006062 32.8861938,33.6718062 C32.7880604,33.7358063 32.7352604,33.9278063 32.7275271,34.0638063 C32.6355271,35.7099396 32.5595271,37.3566063 32.4680604,39.0024729 C32.4573937,39.1971396 32.4995271,39.3016729 32.6829937,39.3872729 C35.5731271,40.7318063 38.4973938,41.9920729 41.5237938,43.0006062 C43.8032604,43.7600729 46.1005938,44.4584729 48.5147271,44.6112729 C49.1589937,44.6520729 49.8197938,44.5646063 50.4613938,44.4640729 C50.8816604,44.3984729 50.9632604,44.2232729 50.8731271,43.8174063 C50.8089402,43.5245155 50.7099248,43.2403608 50.5781937,42.9710063 C49.8869937,41.5766063 48.8677937,40.4264729 47.8056604,39.3144729 C45.7485937,37.1603395 43.4664604,35.2616729 41.0984604,33.4656729 C39.8771271,32.5392729 38.6283271,31.6494062 37.4157937,30.7603396 Z M31.3805937,34.5928729 L27.5429937,36.8099396 L31.1739271,38.6659396 L31.3805937,34.5928729 Z M20.9101938,34.5931396 L21.1171271,38.6579396 L24.7464604,36.8099396 L20.9101938,34.5931396 Z M25.9248604,23.9678063 C24.3214664,24.9004697 22.715058,25.8279412 21.1056604,26.7502062 C20.9275271,26.8523396 20.8635271,26.9768729 20.8651271,27.1768729 C20.8725937,28.1011396 20.8685937,29.0254062 20.8685937,29.9496729 L20.8667271,29.9496729 C20.8667271,30.8627395 20.8741938,31.7760729 20.8613238,32.6888729 C20.8584604,32.9222063 20.9477937,33.0502063 21.1413937,33.1608729 C22.7307271,34.0718063 24.3173937,34.9870062 25.8997938,35.9102063 C26.0744604,36.0120729 26.2043271,36.0195396 26.3808604,35.9166063 C27.973854,34.9882886 29.5701307,34.0656162 31.1696604,33.1486062 C31.3416604,33.0499396 31.429927,32.9352729 31.4293962,32.7310062 C31.4256604,30.8710062 31.4325937,29.0110062 31.4179271,27.1515396 C31.4168604,27.0203396 31.3011271,26.836073 31.1848604,26.7678063 C29.5867271,25.8286063 27.9776604,24.9078063 26.3760604,23.9742063 C26.2120604,23.8787396 26.0880604,23.8728729 25.9248604,23.9678063 Z M26.0659271,26.3414062 C28.0640604,26.3544729 29.6483271,27.9638062 29.6419464,29.9744729 C29.6355271,31.9638063 28.0195271,33.5478063 26.0037938,33.5414256 C24.0349938,33.5350062 22.4307271,31.9078062 22.4418688,29.9280729 C22.4531271,27.9291396 24.0701937,26.3286062 26.0659271,26.3414062 Z M19.4944604,27.7387396 L16.0917937,29.9435396 L19.4944604,32.1542063 L19.4944604,27.7387396 Z M32.8013937,27.7432729 L32.8013937,32.1491396 L36.2013937,29.9459396 L32.8013937,27.7432729 Z M49.2797937,15.2469705 C47.0072604,15.2571396 44.8453937,15.8614062 42.6949938,16.5142062 C42.6195271,16.5371396 42.5440604,16.6619396 42.5243271,16.7515396 C42.1437937,18.5051396 40.3685938,19.1318063 38.9883271,18.0008729 C38.9117937,17.9382063 38.7573937,17.8902063 38.6773938,17.9243396 C36.657472,18.7886029 34.6417154,19.6625686 32.6301937,20.5462062 C32.5512604,20.5808729 32.4709938,20.7291396 32.4748502,20.8206063 C32.5507271,22.5342063 32.6368604,24.2475396 32.7304604,25.9603396 C32.7357937,26.0520729 32.8051271,26.1736729 32.8819271,26.2230063 C34.3752604,27.1880729 35.8739271,28.1443396 37.3867271,29.1118062 C37.4512604,29.0702063 37.5371271,29.0190062 37.6187271,28.9619396 C40.7027271,26.8056729 43.6947271,24.5323396 46.4341938,21.9424729 C47.7208604,20.7262062 48.9675271,19.4664729 49.9480604,17.9806062 C50.2939271,17.4568729 50.5779271,16.8811396 50.8120604,16.2976729 C51.0475271,15.7107396 50.8981938,15.4952729 50.2701937,15.3651396 C49.9453938,15.2976729 49.6101937,15.2454063 49.2797937,15.2469705 Z M3.52192711,15.2608729 C2.94246047,15.2384729 2.35499379,15.3550062 1.77552709,15.4382063 C1.47952711,15.4808729 1.32512707,15.6944729 1.40432707,15.9976729 C1.48806041,16.3179396 1.57392709,16.6475396 1.72406039,16.9395396 C2.72939373,18.8936729 4.28672707,20.3947396 5.83259373,21.9331396 C5.89259373,21.9054062 5.92352707,21.8936729 5.95259373,21.8779396 C6.79739373,21.4123396 7.69392709,21.4731396 8.38192711,22.0427396 C9.09232711,22.6307396 9.33739377,23.5016729 9.00699375,24.4232729 C8.91872707,24.6699396 9.04779375,24.7483396 9.18432709,24.8510063 C11.0165937,26.2243396 12.8531271,27.5923396 14.6813937,28.9710063 C14.8675271,29.1112729 14.9867271,29.0923396 15.1712604,28.9715396 C16.5472604,28.0691396 17.9285937,27.1755396 19.3165938,26.2920729 C19.4989938,26.1758063 19.5648604,26.0576729 19.5744604,25.8430062 C19.6469937,24.1960729 19.7312604,22.5494063 19.8240604,20.9032729 C19.8357937,20.6947396 19.7859271,20.5872729 19.5912604,20.4966063 C16.1659271,18.9008729 12.6912604,17.4323396 9.06566039,16.3483396 C7.25312707,15.8062062 5.42219373,15.3344729 3.52192711,15.2608729 Z M31.1741937,21.2320729 L27.5421937,23.0800729 C28.8355271,23.8278063 30.0792604,24.5462063 31.3813938,25.2987396 L31.1741937,21.2320729 Z M21.1176604,21.2243396 L20.9096604,25.2987396 L24.7453938,23.0811396 L21.1176604,21.2243396 Z M25.7235271,1.61660625 C25.3901937,1.99873957 25.0736604,2.41047293 24.8307271,2.85393961 C23.8819271,4.58620629 23.3667271,6.47713963 22.9139271,8.38353961 C22.0419271,12.0528729 21.5861938,15.7862063 21.2477937,19.5368729 C21.2304604,19.7296729 21.2816604,19.8299396 21.4619271,19.9214063 C22.9675271,20.6846063 24.4653937,21.4635396 25.9712604,22.2267396 C26.0667271,22.2752729 26.2299271,22.2718063 26.3267271,22.2227396 C27.8437938,21.4568729 29.3560604,20.6816729 30.8653938,19.9000729 C30.9600604,19.8510063 31.0192604,19.7320729 31.0536604,19.6931396 C31.0411271,19.5662063 31.0373937,19.5331396 31.0344604,19.4998062 C30.7741938,16.4918063 30.4189938,13.4958062 29.8403271,10.5310062 C29.4008604,8.27980623 28.8803271,6.04833955 27.9829938,3.92620623 C27.6269938,3.08460621 27.2424604,2.25420621 26.5677937,1.60673959 C26.2307271,1.28327291 26.0309937,1.26380625 25.7235271,1.61660625 Z" id="形状结合"></path>
                        </g>
                    </g>
                </g>
            </g>
        </g>
    </g>
</svg>