<?xml version="1.0" encoding="UTF-8"?>
<svg width="60px" height="60px" viewBox="0 0 60 60" version="1.1" xmlns="http://www.w3.org/2000/svg" xmlns:xlink="http://www.w3.org/1999/xlink">
    <title>steem logo</title>
    <g id="页面-1" stroke="none" stroke-width="1" fill="none" fill-rule="evenodd">
        <g id="Manage-Community-staking-choose-a-type" transform="translate(-687.000000, -421.000000)" fill="#FFFFFF">
            <g id="编组-15备份" transform="translate(398.000000, 245.000000)">
                <g id="卡1" transform="translate(232.000000, 110.997500)">
                    <g id="steem-logo" transform="translate(57.000000, 65.000000)">
                        <path d="M30,0 C13.4314721,0 0,13.4314721 0,30 C0,46.5685279 13.4314721,60 30,60 C46.5685279,60 60,46.5685279 60,30 C60,13.4314721 46.5685279,0 30,0 Z M22.497462,40.3654822 L22.2131979,40.6497462 C21.6243654,41.2385787 20.9949238,41.7969543 20.3451776,42.3147208 L19.5939086,42.9035533 C19.5431472,42.9441625 19.4822335,42.964467 19.4213198,42.964467 C19.3705584,42.964467 19.3197969,42.9543147 19.2791878,42.9238579 C19.1776649,42.8629441 19.1269035,42.751269 19.1573604,42.6294416 L19.4517766,41.2994924 C19.7766497,39.857868 19.7055837,38.3451776 19.248731,36.9340102 L19.0862944,36.4467005 C18.9035533,35.8781726 18.6802031,35.319797 18.4467005,34.7715736 L14.9847716,26.5989848 L14.609137,25.4822335 C14.4974619,25.1370558 14.4162437,24.7817259 14.3756345,24.4162437 L14.3147208,23.857868 C14.142132,22.284264 14.680203,20.7411168 15.7969543,19.6243655 L16.0812183,19.3401015 C16.6700508,18.751269 17.2994924,18.1928934 17.9492386,17.6751269 L18.7005076,17.0862944 C18.7918782,17.0152284 18.9137056,17.0050761 19.0152284,17.0659898 C19.1167513,17.1269036 19.1675127,17.2385787 19.1370558,17.3604061 L18.8426396,18.6903553 C18.5177665,20.1319797 18.5888325,21.6446701 19.0456853,23.0558375 L19.2081219,23.5431472 C19.390863,24.1116751 19.6142132,24.6700508 19.8477158,25.2182741 L23.3197969,33.390863 L23.6954314,34.5076142 C23.8071066,34.8527919 23.8883248,35.2081218 23.928934,35.5736041 L23.9898477,36.1319797 C24.1522842,37.6954314 23.6142132,39.2487309 22.497462,40.3654822 L22.497462,40.3654822 Z M34.2131979,43.0456853 L33.8477157,43.4111675 C33.106599,44.1522843 32.3147208,44.8629442 31.4923858,45.5025381 L30.5177665,46.2741117 C30.4670051,46.3147208 30.3959391,46.3350254 30.3350254,46.3350254 C30.2842639,46.3350254 30.2233502,46.3147208 30.1725888,46.284264 C30.0609137,46.2131979 30.0101523,46.0913706 30.0406092,45.9695432 L30.4263959,44.2538071 C30.8324873,42.426396 30.7411167,40.5177665 30.1624365,38.7411168 L29.9593908,38.1218274 C29.7258883,37.4010152 29.4517766,36.6903553 29.1472081,36 L24.7715736,25.6954315 L24.3045686,24.2944162 C24.1624366,23.8680203 24.0609137,23.4111675 24.0101523,22.964467 L23.928934,22.2538071 C23.7055838,20.284264 24.3857868,18.35533 25.7766497,16.9441624 L26.142132,16.5786802 C26.8832487,15.8375634 27.6751269,15.1269036 28.497462,14.4873097 L29.4720812,13.715736 C29.5736041,13.6345178 29.7055838,13.6243655 29.8172589,13.6954315 C29.928934,13.7664975 29.9796954,13.8883249 29.9492386,14.0101523 L29.5634518,15.7258883 C29.1573604,17.5532995 29.248731,19.4619289 29.8274112,21.2385787 L30.0304569,21.857868 C30.2639594,22.568528 30.5380711,23.2893401 30.8426396,23.9796954 L35.2182741,34.2944163 L35.6852792,35.6954314 C35.8274112,36.1218274 35.928934,36.5786802 35.9796954,37.0253807 L36.0609137,37.7360406 C36.2842639,39.7055837 35.6040609,41.64467 34.2131979,43.0456853 L34.2131979,43.0456853 Z M44.2030457,40.3654822 L43.9187817,40.6497462 C43.3299492,41.2385787 42.7005076,41.7969543 42.0507614,42.3147208 L41.2994924,42.9035533 C41.248731,42.9441625 41.1878173,42.964467 41.1269036,42.964467 C41.0761421,42.964467 41.0253807,42.9543147 40.9847716,42.9238579 C40.8832487,42.8629441 40.8324873,42.751269 40.8629442,42.6294416 L41.1573604,41.2994924 C41.4822335,39.857868 41.4111675,38.3451776 40.9543147,36.9340102 L40.7918781,36.4467005 C40.609137,35.8781726 40.3857868,35.319797 40.1522842,34.7715736 L36.6802031,26.5989848 L36.3045686,25.4822335 C36.1928934,25.1370558 36.1116752,24.7817259 36.071066,24.4162437 L36.0101523,23.857868 C35.8375635,22.284264 36.3756345,20.7411168 37.4923858,19.6243655 L37.7766497,19.3401015 C38.3654822,18.751269 38.9949238,18.1928934 39.6446701,17.6751269 L40.3959391,17.0862944 C40.4873096,17.0152284 40.6091371,17.0050761 40.7106599,17.0659898 C40.8121828,17.1269036 40.8629442,17.2385787 40.8324873,17.3604061 L40.5380711,18.6903553 C40.2131979,20.1319797 40.284264,21.6446701 40.7411167,23.0558375 L40.9035533,23.5431472 C41.0862945,24.1116751 41.3096447,24.6700508 41.5431472,25.2182741 L45.0152284,33.390863 L45.390863,34.5076142 C45.5025381,34.8527919 45.5837563,35.2081218 45.6243655,35.5736041 L45.6852792,36.1319797 C45.857868,37.6954314 45.319797,39.2487309 44.2030457,40.3654822 L44.2030457,40.3654822 Z" id="形状"></path>
                    </g>
                </g>
            </g>
        </g>
    </g>
</svg>