<?xml version="1.0" encoding="UTF-8"?>
<svg width="60px" height="60px" viewBox="0 0 60 60" version="1.1" xmlns="http://www.w3.org/2000/svg" xmlns:xlink="http://www.w3.org/1999/xlink">
    <title>Hive</title>
    <defs>
        <rect id="path-1" x="0" y="0" width="60" height="60" rx="1.25"></rect>
    </defs>
    <g id="页面-1" stroke="none" stroke-width="1" fill="none" fill-rule="evenodd">
        <g id="Manage-Community-staking-choose-a-type备份-2" transform="translate(-826.000000, -415.000000)">
            <g id="编组-15备份" transform="translate(342.000000, 245.000000)">
                <g id="编组-14备份-11" transform="translate(424.000000, 110.997500)">
                    <g id="Hive" transform="translate(60.000000, 59.000000)">
                        <mask id="mask-2" fill="white">
                            <use xlink:href="#path-1"></use>
                        </mask>
                        <g id="蒙版"></g>
                        <g id="OSMO" mask="url(#mask-2)" fill="#FFFFFF" fill-opacity="0.87" fill-rule="nonzero">
                            <path d="M59.2785,14.6847 C60.2406,13.72257 60.2406,12.15603 59.2785,11.1939 L48.8061,0.72159 C47.844,-0.24054 46.2774,-0.24054 45.3153,0.72159 L40.2579,5.7789 C39.5796,6.45732 38.568,6.69168 37.68,6.35865 C27.5901,2.49783 15.89658,4.84146 8.11329,12.62475 C-2.70444,23.44245 -2.70444,41.0568 8.11329,51.8745 C13.52829,57.2895 20.63319,59.9907 27.738,59.9907 C34.8429,59.9907 41.9478,57.2895 47.3628,51.8745 C55.1463,44.091 57.4899,32.3976 53.6289,22.30764 C53.2836,21.41955 53.5302,20.40807 54.2088,19.72965 L59.2785,14.6847 Z M51.4335,13.80891 L46.635,18.6072 C45.9567,19.28559 45.7965,20.33406 46.2651,21.17283 C47.7699,23.88651 48.6951,26.8347 49.0158,29.8074 C49.3119,32.5209 47.5974,35.0865 44.9823,35.8389 C43.4403,36.2832 41.4051,36.6039 38.7654,36.6039 C29.9214,36.6039 25.8879,29.4372 18.04287,29.4372 C14.23137,29.4372 11.30802,30.2883 9.32211,31.164 C7.80489,31.8303 6.1767,30.5844 6.42339,28.9314 C6.80577,26.4399 7.61988,24.0099 8.89038,21.75258 C12.93621,14.53668 20.31249,10.71285 27.7629,10.71285 C31.3398,10.71285 34.9416,11.58864 38.2104,13.4142 L38.8272,13.74723 C39.666,14.21595 40.7145,14.06796 41.4051,13.38954 L46.2033,8.59125 C46.6845,8.1102 47.4615,8.1102 47.9427,8.59125 L51.4335,12.08202 C51.9144,12.55074 51.9144,13.32786 51.4335,13.80891 Z" id="Vector"></path>
                        </g>
                    </g>
                </g>
            </g>
        </g>
    </g>
</svg>