<?xml version="1.0" encoding="UTF-8"?>
<svg width="24px" height="24px" viewBox="0 0 24 24" version="1.1" xmlns="http://www.w3.org/2000/svg" xmlns:xlink="http://www.w3.org/1999/xlink">
    <title>icon/normal/Blog</title>
    <g id="页面-1" stroke="none" stroke-width="1" fill="none" fill-rule="evenodd">
        <g id="icon-新-1218" transform="translate(-790.000000, -120.000000)">
            <g id="社区一级导航备份-3" transform="translate(770.000000, 0.000000)">
                <g id="编组-2备份-3" transform="translate(0.000000, 108.000000)">
                    <g id="menuicon_home" transform="translate(18.979185, 12.000000)">
                        <g id="编组-11" transform="translate(0.000000, 0.500000)">
                            <g id="编组-15" transform="translate(12.020815, 12.020815) rotate(45.000000) translate(-12.020815, -12.020815) translate(5.020815, 2.020815)">
                                <g id="编组-14" transform="translate(0.000000, 7.000000)" fill="#CDCECF">
                                    <path d="M14,0 L14,6.51944976 C14,7.00725854 13.8831018,7.49231989 13.6500275,7.97460052 C13.4162478,8.45826319 13.1110527,8.92527482 12.7330817,9.37911548 C12.3550939,9.83224015 11.9232254,10.2617869 11.4381648,10.6663239 C10.9523989,11.0715935 10.4603177,11.4324381 9.96124955,11.7488577 C9.46147596,12.0659934 8.97641542,12.3296792 8.50534572,12.5392325 C8.03427601,12.7488025 7.62130272,12.892451 7.26640905,12.9708607 L7.09843501,13 L6.944435,12.9708607 C6.58047164,12.8924676 6.15839507,12.7488025 5.67753346,12.5392658 C5.19663826,12.3296792 4.69758688,12.0659934 4.17960671,11.7488744 C3.66162655,11.4324214 3.15348869,11.0715935 2.65371509,10.6663239 C2.15463012,10.2617703 1.7087708,9.83224015 1.31677537,9.37911548 C0.924813534,8.92527482 0.60772704,8.45827984 0.36554948,7.97460052 C0.121961078,7.49231989 0.000880696129,7.00725854 0.000880696129,6.51941646 L0,0 L14,0 Z" id="形状结合"></path>
                                </g>
                                <rect id="矩形" fill="#747576" fill-rule="nonzero" transform="translate(7.000000, 6.000000) rotate(-270.000000) translate(-7.000000, -6.000000) " x="1" y="5" width="12" height="2" rx="1"></rect>
                                <rect id="矩形" fill="#CDCECF" fill-rule="nonzero" x="1" y="0" width="12" height="4" rx="2"></rect>
                            </g>
                        </g>
                    </g>
                </g>
            </g>
        </g>
    </g>
</svg>