<?xml version="1.0" encoding="UTF-8"?>
<svg width="24px" height="24px" viewBox="0 0 24 24" version="1.1" xmlns="http://www.w3.org/2000/svg" xmlns:xlink="http://www.w3.org/1999/xlink">
    <title>icon/normal/Farming</title>
    <g id="页面-1" stroke="none" stroke-width="1" fill="none" fill-rule="evenodd">
        <g id="菜单icon更新-0307" transform="translate(-1256.000000, -120.000000)" fill="#FD9800" fill-rule="nonzero">
            <g id="社区一级导航备份-4" transform="translate(1236.000000, 0.000000)">
                <g id="编组-2备份-3" transform="translate(0.000000, 108.000000)">
                    <g id="形状结合" transform="translate(20.000000, 12.000000)">
                        <path d="M6.27188496,4.57372801 C6.50924228,6.55098961 7.13279138,8.44892177 8.10981471,10.1700833 L9.43263363,8.84684719 C9.82315792,8.4563229 10.4563229,8.4563229 10.8468472,8.84684719 L12.292792,10.2918513 L18.5355339,4.05025253 C18.9260582,3.65972824 19.5592232,3.65972824 19.9497475,4.05025253 C20.3402718,4.44077682 20.3402718,5.0739418 19.9497475,5.46446609 L13.706792,11.7058513 L15.0894879,13.0894879 C15.4800122,13.4800122 15.4800122,14.1131771 15.0894879,14.5037014 L13.7666298,15.8267739 C15.4872914,16.8035035 17.3846573,17.427079 19.3613934,17.6648415 C20.2645647,17.7734752 20.5653446,18.933746 19.8286944,19.4674748 C15.4817486,22.6169887 9.44235942,22.1643208 5.60718686,18.3291482 C1.77176983,14.4937312 1.31929611,8.45383 4.46921628,4.10620554 C5.00300614,3.36945104 6.16344776,3.6704118 6.27188496,4.57372801 Z"></path>
                    </g>
                </g>
            </g>
        </g>
    </g>
</svg>