<?xml version="1.0" encoding="UTF-8"?>
<svg width="24px" height="24px" viewBox="0 0 24 24" version="1.1" xmlns="http://www.w3.org/2000/svg" xmlns:xlink="http://www.w3.org/1999/xlink">
    <title>icon/normal/Blog</title>
    <g id="页面-1" stroke="none" stroke-width="1" fill="none" fill-rule="evenodd">
        <g id="菜单icon更新-0307" transform="translate(-1256.000000, -72.000000)">
            <g id="社区一级导航备份-4" transform="translate(1236.000000, 0.000000)">
                <g id="编组-2备份-2" transform="translate(0.000000, 60.000000)">
                    <g id="menuicon_home" transform="translate(20.000000, 12.000000)">
                        <path d="M17,19 C17.5522847,19 18,19.4477153 18,20 C18,20.5522847 17.5522847,21 17,21 L7,21 C6.44771525,21 6,20.5522847 6,20 C6,19.4477153 6.44771525,19 7,19 L17,19 Z M18,3 C19.6568542,3 21,4.34314575 21,6 L21,15 C21,16.6568542 19.6568542,18 18,18 L6,18 C4.34314575,18 3,16.6568542 3,15 L3,6 C3,4.34314575 4.34314575,3 6,3 L18,3 Z M15.2723819,7.44193766 L15.1781746,7.52512627 L12.3504546,10.3528463 L10.9355339,8.93933983 C10.5750499,8.57885587 10.0078189,8.55112633 9.61552768,8.85615122 L9.52132034,8.93933983 L7.4,11.0606602 C7.00947571,11.4511845 7.00947571,12.0843494 7.4,12.4748737 C7.76048396,12.8353577 8.32771502,12.8630872 8.72000622,12.5580623 L8.81421356,12.4748737 L10.2291342,11.0599531 L11.6426407,12.4748737 L11.7298615,12.5525801 C12.0896694,12.8375034 12.6001623,12.8394821 12.962063,12.558516 L13.0568542,12.4748737 L16.5923882,8.93933983 C16.9829124,8.54881554 16.9829124,7.91565056 16.5923882,7.52512627 C16.2319042,7.1646423 15.6646731,7.13691277 15.2723819,7.44193766 Z" id="形状结合" fill="#FD9800"></path>
                        <g id="编组-4" transform="translate(11.996194, 10.000000) rotate(-315.000000) translate(-11.996194, -10.000000) translate(9.496194, 5.000000)"></g>
                    </g>
                </g>
            </g>
        </g>
    </g>
</svg>