<?xml version="1.0" encoding="UTF-8"?>
<svg width="24px" height="24px" viewBox="0 0 24 24" version="1.1" xmlns="http://www.w3.org/2000/svg" xmlns:xlink="http://www.w3.org/1999/xlink">
    <title>icon/normal/Blog</title>
    <g id="页面-1" stroke="none" stroke-width="1" fill="none" fill-rule="evenodd">
        <g id="菜单icon更新-0307" transform="translate(-1256.000000, -24.000000)" fill="#FD9800">
            <g id="社区一级导航备份-4" transform="translate(1236.000000, 0.000000)">
                <g id="编组-2" transform="translate(0.000000, 12.000000)">
                    <g id="menuicon_home" transform="translate(20.000000, 12.000000)">
                        <path d="M12.533993,2.33725873 L20.567986,7.41135957 C21.1481826,7.77779954 21.5,8.4161112 21.5,9.10233737 L21.5,19 C21.5,20.6568542 20.1568542,22 18.5,22 L5.5,22 C3.84314575,22 2.5,20.6568542 2.5,19 L2.5,9.10233737 C2.5,8.4161112 2.8518174,7.77779954 3.43201402,7.41135957 L11.466007,2.33725873 C11.7921971,2.13124394 12.2078029,2.13124394 12.533993,2.33725873 Z M16,16 L8,16 C7.44771525,16 7,16.4477153 7,17 C7,17.5522847 7.44771525,18 8,18 L8,18 L16,18 C16.5522847,18 17,17.5522847 17,17 C17,16.4477153 16.5522847,16 16,16 L16,16 Z" id="形状结合"></path>
                    </g>
                </g>
            </g>
        </g>
    </g>
</svg>