<?xml version="1.0" encoding="UTF-8"?>
<svg width="24px" height="24px" viewBox="0 0 24 24" version="1.1" xmlns="http://www.w3.org/2000/svg" xmlns:xlink="http://www.w3.org/1999/xlink">
    <title>icon/ticket/l备份</title>
    <g id="页面-1" stroke="none" stroke-width="1" fill="none" fill-rule="evenodd">
        <g id="icon-新-1218" transform="translate(-790.000000, -216.000000)">
            <g id="社区一级导航备份-3" transform="translate(770.000000, 0.000000)">
                <g id="编组-2备份-4" transform="translate(0.000000, 204.000000)">
                    <g id="icon/ticket/l备份" transform="translate(20.000000, 12.000000)">
                        <g id="提案_画板-1" transform="translate(5.000000, 2.000000)">
                            <path d="M4.3647331,18.3258824 L5.5840357,19.4529412 C6.3729962,20.1823529 7.73690299,20.1823529 8.52702032,19.4529412 L9.74632291,18.3258824 C10.0102395,18.0767222 10.2052911,17.7615326 10.3120145,17.4117647 L3.81870766,17.4117647 C3.91125435,17.7647059 4.06742688,18.0964706 4.3647331,18.3258824 Z M7,0 C3.16162619,0 0,3.05529411 0,6.78117648 C0.0717236797,10.2352941 3.04825648,11.5228435 3.48091225,15.1557847 C3.53644027,15.6251964 3.90547017,15.9969611 4.38324244,15.9969611 L9.70352007,15.9969611 C10.183606,15.9969611 10.5514791,15.6240199 10.6081639,15.1522552 C11.0280945,11.5875494 14,9.82705882 14,6.78000001 C14,3.05529413 10.8383738,0 7,0 Z" id="形状" fill="#CDCECF"></path>
                            <path d="M6,3 C4.34314575,3 3,4.34314575 3,6" id="路径" stroke="#747576" stroke-width="2" stroke-linecap="round" stroke-linejoin="round"></path>
                        </g>
                    </g>
                </g>
            </g>
        </g>
    </g>
</svg>