<?xml version="1.0" encoding="UTF-8"?>
<svg width="24px" height="24px" viewBox="0 0 24 24" version="1.1" xmlns="http://www.w3.org/2000/svg" xmlns:xlink="http://www.w3.org/1999/xlink">
    <title>icon/normal/Blog</title>
    <g id="页面-1" stroke="none" stroke-width="1" fill="none" fill-rule="evenodd">
        <g id="icon-新-1218" transform="translate(-790.000000, -72.000000)">
            <g id="社区一级导航备份-3" transform="translate(770.000000, 0.000000)">
                <g id="编组-2备份-2" transform="translate(0.000000, 60.000000)">
                    <g id="menuicon_home" transform="translate(20.000000, 12.000000)">
                        <rect id="矩形" fill="#CDCECF" x="3" y="3" width="18" height="15" rx="3"></rect>
                        <rect id="矩形" fill="#CDCECF" x="6" y="19" width="12" height="2" rx="1"></rect>
                        <g id="编组-4" transform="translate(11.996194, 10.000000) rotate(-315.000000) translate(-11.996194, -10.000000) translate(9.496194, 5.000000)" fill="#747576">
                            <path d="M4,-4.54747351e-13 C4.55228475,-4.54848804e-13 5,0.44771525 5,1 L5,6 C5,6.55228475 4.55228475,7 4,7 L3.983,6.999 L2,6.999 L2,9 C2,9.55228475 1.55228475,10 1,10 C0.44771525,10 -1.13619202e-13,9.55228475 -1.13686838e-13,9 L-1.13686838e-13,6 C-1.13754473e-13,5.44771525 0.44771525,5 1,5 L3,4.999 L3,1 C3,0.44771525 3.44771525,-4.54645898e-13 4,-4.54747351e-13 Z" id="形状结合"></path>
                        </g>
                    </g>
                </g>
            </g>
        </g>
    </g>
</svg>