<?xml version="1.0" encoding="UTF-8"?>
<svg width="32px" height="32px" viewBox="0 0 32 32" version="1.1" xmlns="http://www.w3.org/2000/svg" xmlns:xlink="http://www.w3.org/1999/xlink">
    <title>Medium</title>
    <g id="页面-1" stroke="none" stroke-width="1" fill="none" fill-rule="evenodd">
        <g id="nutbox-设置-创建社区后-Social" transform="translate(-404.000000, -348.000000)">
            <g id="编组-3" transform="translate(280.000000, 116.000000)">
                <g id="编组-2备份" transform="translate(24.000000, 168.000000)">
                    <g id="编组-4备份" transform="translate(100.000000, 56.000000)">
                        <g id="Medium" transform="translate(0.000000, 8.000000)">
                            <rect id="矩形备份-7" fill="#F6F7F9" x="0" y="0" width="32" height="32" rx="16"></rect>
                            <g transform="translate(8.000000, 10.000000)" fill="#242629" fill-rule="nonzero" id="路径">
                                <path d="M1.89733333,2.59133333 C1.91728052,2.39485647 1.84222846,2.20066237 1.69533333,2.06866666 L0.202,0.268666656 L0.202,0 L4.84,0 L8.42533333,7.86333333 L11.5773333,0 L16,0 L16,0.268666656 L14.722,1.49333333 C14.6119053,1.57737229 14.557269,1.71537393 14.58,1.852 L14.58,10.852 C14.5575304,10.9884062 14.6121394,11.1260824 14.722,11.21 L15.9686667,12.4346667 L15.9686667,12.7033333 L9.69533333,12.7033333 L9.69533333,12.4346667 L10.9866667,11.18 C11.1133333,11.0533333 11.1133333,11.016 11.1133333,10.8213333 L11.1133333,3.54733333 L7.52,12.6726667 L7.03533333,12.6726667 L2.852,3.54733333 L2.852,9.66333333 C2.81733333,9.92066666 2.90266667,10.1793333 3.08333333,10.3653333 L4.76333333,12.4053333 L4.76333333,12.6733333 L0,12.6733333 L0,12.4046667 L1.68,10.3646667 C1.86,10.1793333 1.94,9.91799998 1.89733333,9.66333333 L1.89733333,2.59133333 Z"></path>
                            </g>
                        </g>
                    </g>
                </g>
            </g>
        </g>
    </g>
</svg>