<?xml version="1.0" encoding="UTF-8"?>
<svg width="24px" height="24px" viewBox="0 0 24 24" version="1.1" xmlns="http://www.w3.org/2000/svg" xmlns:xlink="http://www.w3.org/1999/xlink">
    <title>icon/normal/Blog</title>
    <g id="页面-1" stroke="none" stroke-width="1" fill="none" fill-rule="evenodd">
        <g id="icon-新-1218" transform="translate(-240.000000, -168.000000)">
            <g id="社区一级导航备份-2" transform="translate(220.000000, 0.000000)">
                <g id="编组-2备份-3" transform="translate(0.000000, 156.000000)">
                    <g id="menuicon_home" transform="translate(20.000000, 12.000000)">
                        <g id="立方体2" transform="translate(2.500000, 2.000000)">
                            <path d="M17.6846154,6.7857478 L11.1953846,10.3642275 C10.5961538,10.6908937 10.2307692,11.3442261 10.2307692,12.0718008 L10.2307692,18.9911848 C10.2307692,19.7336079 10.9469231,20.2236072 11.5461538,19.8820926 L18.0353846,16.3036129 C18.62,15.9769467 19,15.3236143 19,14.5960396 L19,7.69150408 C19,6.93423244 18.2838462,6.45908161 17.6846154,6.7857478 Z M7.80461538,10.349379 L1.31538462,6.7857478 C0.716153846,6.45908161 0,6.93423244 0,7.67665561 L0,14.6257365 C0,15.3533112 0.365384615,16.0066436 0.964615385,16.3333098 L7.45384615,19.896941 C8.05307692,20.2236072 8.76923077,19.7336079 8.76923077,18.9911848 L8.76923077,12.0569523 C8.76923077,11.3293776 8.40384615,10.6760452 7.80461538,10.349379 Z" id="形状" fill="#FFDB1B"></path>
                            <path d="M17.0853846,5.16726529 C17.3923077,5.00393219 17.5384615,4.72181138 17.5092308,4.45453904 C17.5384615,4.17241823 17.3923077,3.90514589 17.0853846,3.74181279 L10.4792308,0.237575415 C10.1869231,0.0742423173 9.83615385,0 9.48538462,0 C9.13461538,0 8.78384615,0.0742423173 8.49153846,0.237575415 L1.88538462,3.72696433 C1.57846154,3.89029743 1.44692308,4.17241823 1.46153846,4.43969058 C1.44692308,4.72181138 1.57846154,5.00393219 1.88538462,5.16726529 L8.49153846,8.6566542 C8.78384615,8.8199873 9.13461538,8.89422962 9.48538462,8.89422962 C9.83615385,8.89422962 10.1869231,8.8199873 10.4792308,8.6566542 L17.0853846,5.16726529 Z" id="路径" fill="#747576" fill-rule="nonzero"></path>
                        </g>
                    </g>
                </g>
            </g>
        </g>
    </g>
</svg>