<?xml version="1.0" encoding="UTF-8"?>
<svg width="24px" height="24px" viewBox="0 0 24 24" version="1.1" xmlns="http://www.w3.org/2000/svg" xmlns:xlink="http://www.w3.org/1999/xlink">
    <title>icon/social2@1.5x</title>
    <g id="页面-1" stroke="none" stroke-width="1" fill="none" fill-rule="evenodd">
        <g id="Group-11">
            <rect id="Rectangle-55" x="0" y="0" width="24" height="24"></rect>
            <g id="社交APP" transform="translate(2.000000, 2.000000)" fill-rule="nonzero">
                <path d="M8.18717609,0 C3.66444544,0 0,3.27579778 0,7.31870329 C0,9.62659069 1.19976308,11.679969 3.07063527,13.0253167 L3.07063527,16.7250973 L6.65807791,14.5022452 C7.16337884,14.5884996 7.67496927,14.6319152 8.18747223,14.6320359 C12.7096105,14.6320359 16.3746562,11.3562382 16.3746562,7.31989678 C16.3808678,3.27579778 12.7096106,0 8.18717609,0 Z M4.09625353,8.36508481 C3.67489182,8.37028857 3.29214444,8.11856664 3.12733223,7.72785316 C2.96252001,7.33713968 3.04829104,6.88483213 3.34446077,6.58284096 C3.6406305,6.28084979 4.08852987,6.18899723 4.47831372,6.35031709 C4.86809757,6.51163695 5.12255257,6.89417295 5.1224641,7.31870329 C5.12443402,7.59465585 5.01734623,7.86006014 4.82482546,8.05636505 C4.63230469,8.25266996 4.37017084,8.36374465 4.09625353,8.36508481 L4.09625353,8.36508481 Z M8.18717609,8.36508481 C7.69522226,8.36825282 7.26955024,8.02089104 7.17046978,7.53542044 C7.07138933,7.04994984 7.32649374,6.561571 7.77977989,6.36894056 C8.23306603,6.17631013 8.75829651,6.33307449 9.03427891,6.74336807 C9.31026131,7.15366166 9.26013624,7.70322022 8.9145565,8.05597409 C8.72219235,8.25237563 8.46016234,8.36359318 8.18628759,8.36508481 L8.18717609,8.36508481 Z M12.2834296,8.36509769 C11.7916106,8.36753642 11.3665168,8.01974837 11.2679875,7.53430673 C11.1694582,7.04886508 11.424917,6.56088219 11.8782142,6.36863844 C12.3315114,6.17639468 12.8564814,6.33339703 13.1322354,6.74367752 C13.4079894,7.15395801 13.3577771,7.7033238 13.0122908,8.05597409 C12.819726,8.25243836 12.55749,8.36365289 12.2834296,8.36509769 L12.2834296,8.36509769 Z" id="形状" fill="#616262"></path>
                <path d="M17.6129128,6.25292776 L17.6451947,6.77298565 C17.6520065,7.26648866 17.6451947,7.22053976 17.6451947,7.67614985 C17.6451947,12.4730349 13.9431364,15.7944831 8.80023695,15.7944831 L7.03183771,15.7944831 C8.43861989,17.1920455 10.0707834,18.0498575 12.3352584,18.0498575 C12.8089533,18.0487625 13.281718,18.0075418 13.7485562,17.926631 L17.0519769,20 L17.0519769,16.5866539 C18.8455501,15.3335024 20,13.3890289 20,11.2049649 C19.9735057,9.27886832 19.0989182,7.46419952 17.6129128,6.25203265 L17.6129128,6.25292776 Z" id="路径" fill="#A8A9A9"></path>
            </g>
        </g>
    </g>
</svg>