<?xml version="1.0" encoding="UTF-8"?>
<svg width="21px" height="20px" viewBox="0 0 21 20" version="1.1" xmlns="http://www.w3.org/2000/svg" xmlns:xlink="http://www.w3.org/1999/xlink">
    <title>menu-nut-power-active</title>
    <g id="页面-1" stroke="none" stroke-width="1" fill="none" fill-rule="evenodd">
        <g id="menu-nut-power-active" transform="translate(0.082806, 0.000000)" fill="#FFDB1B" fill-rule="nonzero">
            <path d="M10,0 C15.5228475,0 20,4.4771525 20,10 C20,15.5228475 15.5228475,20 10,20 C4.4771525,20 0,15.5228475 0,10 C0,4.4771525 4.4771525,0 10,0 Z M12.6453507,6 L8.8692494,6 C8.70856421,6 8.54787905,6.08214203 8.46753648,6.24642606 L8.46753648,6.24642606 L7.02137002,10.3535267 C6.94102745,10.5178107 7.10171262,10.6820948 7.26239778,10.6820948 L7.26239778,10.6820948 L9.2709623,10.6820948 C9.35130487,10.6820948 9.35130487,10.7642368 9.35130487,10.8463788 L9.35130487,10.8463788 L8.38719391,13.8034913 C8.38719391,13.9677753 8.54787907,14.0499173 8.62822164,13.9677753 L8.62822164,13.9677753 L12.966721,9.36782256 C13.0470636,9.28568053 12.966721,9.1213965 12.8863784,9.1213965 L12.8863784,9.1213965 L10.7974713,9.1213965 C10.7171287,9.1213965 10.6367862,8.95711247 10.7171287,8.87497047 L10.7171287,8.87497047 L12.7256933,6.24642606 C12.8060359,6.16428403 12.7256933,6 12.6453507,6 L12.6453507,6 Z" id="形状结合"></path>
        </g>
    </g>
</svg>