<?xml version="1.0" encoding="UTF-8"?>
<svg width="20px" height="21px" viewBox="0 0 20 21" version="1.1" xmlns="http://www.w3.org/2000/svg" xmlns:xlink="http://www.w3.org/1999/xlink">
    <title>menu-home-active</title>
    <g id="页面-1" stroke="none" stroke-width="1" fill="none" fill-rule="evenodd">
        <g id="menu-home-active" transform="translate(0.582806, 0.182748)" fill="#FFDB1B" fill-rule="nonzero">
            <path d="M10.033993,0.154511092 L18.067986,5.22861193 C18.6481826,5.5950519 19,6.23336356 19,6.91958973 L19,16.8172524 C19,18.4741066 17.6568542,19.8172524 16,19.8172524 L3,19.8172524 C1.34314575,19.8172524 0,18.4741066 0,16.8172524 L0,6.91958973 C0,6.23336356 0.3518174,5.5950519 0.93201402,5.22861193 L8.966007,0.154511092 C9.2921971,-0.0515036975 9.7078029,-0.0515036975 10.033993,0.154511092 Z M13.5,13.8172524 L5.5,13.8172524 C4.94771525,13.8172524 4.5,14.2649677 4.5,14.8172524 C4.5,15.3695371 4.94771525,15.8172524 5.5,15.8172524 L5.5,15.8172524 L13.5,15.8172524 C14.0522847,15.8172524 14.5,15.3695371 14.5,14.8172524 C14.5,14.2649677 14.0522847,13.8172524 13.5,13.8172524 L13.5,13.8172524 Z" id="形状结合"></path>
        </g>
    </g>
</svg>