<?xml version="1.0" encoding="UTF-8"?>
<svg width="24px" height="24px" viewBox="0 0 24 24" version="1.1" xmlns="http://www.w3.org/2000/svg" xmlns:xlink="http://www.w3.org/1999/xlink">
    <title>icon/normal/Farming</title>
    <g id="页面-1" stroke="none" stroke-width="1" fill="none" fill-rule="evenodd">
        <g id="菜单icon更新-0307" transform="translate(-786.000000, -120.000000)">
            <g id="社区一级导航备份" transform="translate(766.000000, 0.000000)">
                <g id="编组-2备份-3" transform="translate(0.000000, 108.000000)">
                    <g id="形状结合" transform="translate(20.000000, 12.000000)">
                        <path d="M-1.57283981,10.6014015 C-1.71635748,9.70299094 -0.682989946,9.09524619 0.0324277545,9.65731053 C1.59839981,10.8876086 3.3813563,11.7887336 5.28926113,12.3149187 L5.28896611,10.4438753 C5.28896611,9.89159052 5.73668136,9.44387527 6.28896611,9.44387527 L12.2889661,9.44387527 C12.8412509,9.44387527 13.2889661,9.89159052 13.2889661,10.4438753 L13.2891178,12.3148307 C15.1964613,11.7887913 16.9790361,10.8880855 18.544923,9.65844551 C19.2603773,9.09662258 20.2934961,9.70437442 20.150009,10.6026679 C19.3032968,15.9034655 14.7127192,19.853874 9.28896611,19.853874 C3.86486733,19.853874 -0.725934979,15.9029661 -1.57283981,10.6014015 Z" fill="#747576" fill-rule="nonzero" transform="translate(9.288583, 14.647210) rotate(-315.000000) translate(-9.288583, -14.647210) "></path>
                        <rect id="矩形" fill="#CDCECF" transform="translate(15.707107, 8.292893) rotate(-315.000000) translate(-15.707107, -8.292893) " x="14.7071068" y="2.29289322" width="2" height="12" rx="1"></rect>
                    </g>
                </g>
            </g>
        </g>
    </g>
</svg>