<?xml version="1.0" encoding="UTF-8"?>
<svg width="24px" height="24px" viewBox="0 0 24 24" version="1.1" xmlns="http://www.w3.org/2000/svg" xmlns:xlink="http://www.w3.org/1999/xlink">
    <title>icon/catalogue/l</title>
    <g id="页面-1" stroke="none" stroke-width="1" fill="none" fill-rule="evenodd">
        <g id="Nutbox-Home" transform="translate(-28.000000, -850.000000)">
            <g id="icon/catalogue/l" transform="translate(28.000000, 850.000000)">
                <rect id="Rectangle-3" fill="#1D1E1F" x="0" y="0" width="24" height="24" rx="6"></rect>
                <path d="M19,17.5 C19.5522847,17.5 20,17.9477153 20,18.5 C20,19.0522847 19.5522847,19.5 19,19.5 L19,19.5 L9,19.5 C8.44771525,19.5 8,19.0522847 8,18.5 C8,17.9477153 8.44771525,17.5 9,17.5 L9,17.5 Z M5,17.5 C5.55228475,17.5 6,17.9477153 6,18.5 C6,19.0522847 5.55228475,19.5 5,19.5 C4.44771525,19.5 4,19.0522847 4,18.5 C4,17.9477153 4.44771525,17.5 5,17.5 Z M19.1428571,11 C19.6162441,11 20,11.4477153 20,12 C20,12.5522847 19.6162441,13 19.1428571,13 L19.1428571,13 L8.85714286,13 C8.38375593,13 8,12.5522847 8,12 C8,11.4477153 8.38375593,11 8.85714286,11 L8.85714286,11 Z M5,11 C5.55228475,11 6,11.4477153 6,12 C6,12.5522847 5.55228475,13 5,13 C4.44771525,13 4,12.5522847 4,12 C4,11.4477153 4.44771525,11 5,11 Z M19.25,4.5 C19.6642136,4.5 20,4.94771525 20,5.5 C20,6.05228475 19.6642136,6.5 19.25,6.5 L19.25,6.5 L8.75,6.5 C8.33578644,6.5 8,6.05228475 8,5.5 C8,4.94771525 8.33578644,4.5 8.75,4.5 L8.75,4.5 Z M5,4.5 C5.55228475,4.5 6,4.94771525 6,5.5 C6,6.05228475 5.55228475,6.5 5,6.5 C4.44771525,6.5 4,6.05228475 4,5.5 C4,4.94771525 4.44771525,4.5 5,4.5 Z" id="形状结合" fill="#CDCECF"></path>
            </g>
        </g>
    </g>
</svg>