<?xml version="1.0" encoding="UTF-8"?>
<svg width="24px" height="24px" viewBox="0 0 24 24" version="1.1" xmlns="http://www.w3.org/2000/svg" xmlns:xlink="http://www.w3.org/1999/xlink">
    <title>icon/normal/Blog</title>
    <g id="页面-1" stroke="none" stroke-width="1" fill="none" fill-rule="evenodd">
        <g id="Community-Members" transform="translate(-140.000000, -364.000000)" fill="#FFDB1B">
            <g id="社区一级导航备份" transform="translate(120.000000, 100.000000)">
                <g id="编组-2备份-5" transform="translate(0.000000, 252.000000)">
                    <g id="menuicon_home" transform="translate(20.000000, 12.000000)">
                        <path d="M12.7909801,14 C15.141321,14 21.25,16.0994522 21.25,18.6849231 C21.25,21.2005165 19.4436701,21.0041913 17.1702617,20.9917416 L7.02024148,20.9911918 C4.65807528,20.9911918 2.75,21.2701289 2.75,18.6843928 C2.75,16.0986568 8.77695313,14 11.1388565,14 L12.7909801,14 Z M12.5,3 C14.709139,3 16.5,4.790861 16.5,7 L16.5,8 C16.5,10.209139 14.709139,12 12.5,12 L11.5,12 C9.290861,12 7.5,10.209139 7.5,8 L7.5,7 C7.5,4.790861 9.290861,3 11.5,3 L12.5,3 Z" id="形状结合"></path>
                    </g>
                </g>
            </g>
        </g>
    </g>
</svg>