<?xml version="1.0" encoding="UTF-8"?>
<svg width="25px" height="25px" viewBox="0 0 25 25" version="1.1" xmlns="http://www.w3.org/2000/svg" xmlns:xlink="http://www.w3.org/1999/xlink">
    <title>menu-stake-active</title>
    <g id="页面-1" stroke="none" stroke-width="1" fill="none" fill-rule="evenodd">
        <g id="menu-stake-active" transform="translate(0.061991, 0.500000)" fill="#FFDB1B" fill-rule="nonzero">
            <g id="编组-14" transform="translate(12.020815, 12.020815) rotate(45.000000) translate(-12.020815, -12.020815) translate(5.020815, 2.020815)">
                <path d="M11,0 C12.1045695,0 13,0.8954305 13,2 C13,3.1045695 12.1045695,4 11,4 L8,4 L7.999,6.999 L14,7 L14,13.5194498 C14,14.0072585 13.8831018,14.4923199 13.6500275,14.9746005 C13.4162478,15.4582632 13.1110527,15.9252748 12.7330817,16.3791155 C12.3550939,16.8322401 11.9232254,17.2617869 11.4381648,17.6663239 C10.9523989,18.0715935 10.4603177,18.4324381 9.96124955,18.7488577 C9.46147596,19.0659934 8.97641542,19.3296792 8.50534572,19.5392325 C8.03427601,19.7488025 7.62130272,19.892451 7.26640905,19.9708607 L7.09843501,20 L6.944435,19.9708607 C6.58047164,19.8924676 6.15839507,19.7488025 5.67753346,19.5392658 C5.19663826,19.3296792 4.69758688,19.0659934 4.17960671,18.7488744 C3.66162655,18.4324214 3.15348869,18.0715935 2.65371509,17.6663239 C2.15463012,17.2617703 1.7087708,16.8322401 1.31677537,16.3791155 C0.924813534,15.9252748 0.60772704,15.4582798 0.36554948,14.9746005 C0.121961078,14.4923199 0.000880696129,14.0072585 0.000880696129,13.5194165 L0,7 L5.999,6.999 L6,4 L3,4 C1.8954305,4 1,3.1045695 1,2 C1,0.8954305 1.8954305,0 3,0 L11,0 Z" id="形状结合"></path>
            </g>
        </g>
    </g>
</svg>