<?xml version="1.0" encoding="UTF-8"?>
<svg width="26px" height="26px" viewBox="0 0 26 26" version="1.1" xmlns="http://www.w3.org/2000/svg" xmlns:xlink="http://www.w3.org/1999/xlink">
    <title>stake</title>
    <g id="页面-1" stroke="none" stroke-width="1" fill="none" fill-rule="evenodd">
        <g id="stake" transform="translate(0.772078, 0.125631)" fill="#FFFFFF" fill-rule="nonzero">
            <g id="编组-15" transform="translate(12.551457, 12.551457) rotate(45.000000) translate(-12.551457, -12.551457) translate(5.551016, 1.801457)">
                <path d="M10.5,0 C11.8807119,0 13,1.11928813 13,2.5 C13,3.88071187 11.8807119,5 10.5,5 L9.499,5 L9.5,13 C9.5,14.3807119 8.38071187,15.5 7,15.5 C5.61928813,15.5 4.5,14.3807119 4.5,13 L4.499,10.499 L1.999,10.5 L2.00088075,15.0194165 C2.00088075,15.1530915 2.02936157,15.2935814 2.09631729,15.4544472 L2.15390429,15.5791289 C2.31874689,15.9083334 2.54232601,16.238224 2.82937233,16.5705663 C3.14358753,16.9337585 3.50474478,17.2815114 3.91352769,17.6128462 C4.34681655,17.9641808 4.78272109,18.2734859 5.22410153,18.5431254 C5.66786892,18.8147925 6.08563592,19.0352912 6.47679592,19.2057581 C6.63408879,19.2742946 6.77906981,19.3322238 6.90701056,19.3790312 L7.097,19.444 L7.21012917,19.4067525 C7.3057545,19.3728328 7.40939437,19.3327138 7.5206023,19.2862752 L7.69303441,19.2118626 C8.06966659,19.04433 8.46893462,18.827517 8.89099135,18.5597143 C9.31471884,18.2910791 9.73681084,17.9816828 10.1579656,17.6303399 C10.5514523,17.3021955 10.8980221,16.9576604 11.1970975,16.5991579 C11.4738061,16.2669269 11.6895797,15.9365225 11.8501688,15.6043037 C11.9343531,15.4301192 11.9802982,15.2743226 11.9953088,15.1279103 L12.0008808,15.01972 L12,10.5 C11.4477153,10.5 11,10.0522847 11,9.5 C11,8.94771525 11.4477153,8.5 12,8.5 L14,8.5 L14.0008808,15.0194498 C14.0008808,15.5072585 13.8839752,15.9923199 13.6508862,16.4746005 C13.4170918,16.9582632 13.1118775,17.4252748 12.7338827,17.8791155 C12.3558711,18.3322401 11.9239755,18.7617869 11.4388844,19.1663239 C10.9530879,19.5715935 10.4609758,19.9324381 9.96187622,20.2488577 C9.46207119,20.5659934 8.97698013,20.8296792 8.50588079,21.0392325 C8.03478146,21.2488025 7.62178219,21.392451 7.26686619,21.4708607 L7.09888157,21.5 L6.94487188,21.4708607 C6.58088562,21.3924676 6.1587825,21.2488025 5.67789064,21.0392658 C5.19696518,20.8296792 4.69788241,20.5659934 4.17986966,20.2488744 C3.66185691,19.9324214 3.15368707,19.5715935 2.65388204,19.1663239 C2.15476567,18.7617703 1.7088783,18.3322401 1.31685821,17.8791155 C0.924871715,17.4252748 0.607765272,16.9582798 0.365572477,16.4746005 C0.121968751,15.9923199 0.000880751534,15.5072585 0.000880751534,15.0194165 L-1.27865644e-22,8.5 L4.498,8.499 L4.499,4.999 L3.5,5 C2.11928813,5 1,3.88071187 1,2.5 C1,1.11928813 2.11928813,0 3.5,0 L10.5,0 Z M10.5,2 L3.5,2 C3.22385763,2 3,2.22385763 3,2.5 C3,2.74545989 3.17687516,2.94960837 3.4087183,2.99194503 L3.497998,3 L6.4987498,2.99699725 L6.5,13 C6.5,13.2761424 6.72385763,13.5 7,13.5 C7.24545989,13.5 7.44960837,13.3231248 7.49194434,13.0900512 L7.5,13.00025 L7.49874998,3 L10.5,3 C10.7761424,3 11,2.77614237 11,2.5 C11,2.25454011 10.8231248,2.05039163 10.5898756,2.00805567 L10.5,2 Z" id="形状结合"></path>
            </g>
        </g>
    </g>
</svg>