<?xml version="1.0" encoding="UTF-8"?>
<svg width="15px" height="20px" viewBox="0 0 15 20" version="1.1" xmlns="http://www.w3.org/2000/svg" xmlns:xlink="http://www.w3.org/1999/xlink">
    <title>menu-governance-active</title>
    <g id="页面-1" stroke="none" stroke-width="1" fill="none" fill-rule="evenodd">
        <g id="menu-governance-active" transform="translate(0.082806, 0.000000)" fill="#FFDB1B" fill-rule="nonzero">
            <path d="M10.3120145,17.4117647 C10.2052911,17.7615326 10.0102395,18.0767222 9.74632291,18.3258824 L9.74632291,18.3258824 L8.52702032,19.4529412 C7.73690299,20.1823529 6.3729962,20.1823529 5.5840357,19.4529412 L5.5840357,19.4529412 L4.3647331,18.3258824 C4.06742688,18.0964706 3.91125435,17.7647059 3.81870766,17.4117647 L3.81870766,17.4117647 L10.3120145,17.4117647 Z M7,0 C10.8383738,0 14,3.05529413 14,6.78000001 C14,9.82705882 11.0280945,11.5875494 10.6081639,15.1522552 C10.5514791,15.6240199 10.183606,15.9969611 9.70352007,15.9969611 L9.70352007,15.9969611 L4.38324244,15.9969611 C3.90547017,15.9969611 3.53644027,15.6251964 3.48091225,15.1557847 C3.04825648,11.5228435 0.0717236797,10.2352941 0,6.78117648 C0,3.05529411 3.16162619,0 7,0 Z M6,2 C3.790861,2 2,3.790861 2,6 C2,6.55228475 2.44771525,7 3,7 C3.55228475,7 4,6.55228475 4,6 C4,4.8954305 4.8954305,4 6,4 C6.55228475,4 7,3.55228475 7,3 C7,2.44771525 6.55228475,2 6,2 Z" id="形状结合"></path>
        </g>
    </g>
</svg>