<?xml version="1.0" encoding="UTF-8"?>
<svg width="20px" height="18px" viewBox="0 0 20 18" version="1.1" xmlns="http://www.w3.org/2000/svg" xmlns:xlink="http://www.w3.org/1999/xlink">
    <title>menu-member-active</title>
    <g id="页面-1" stroke="none" stroke-width="1" fill="none" fill-rule="evenodd">
        <g id="menu-member-active" transform="translate(0.832806, 0.000000)" fill="#FFDB1B" fill-rule="nonzero">
            <path d="M10.0409801,11 C12.391321,11 18.5,13.0994522 18.5,15.6849231 C18.5,18.2005165 16.6936701,18.0041913 14.4202617,17.9917416 L4.27024148,17.9911918 C1.90807528,17.9911918 0,18.2701289 0,15.6843928 C0,13.0986568 6.02695313,11 8.3888565,11 L10.0409801,11 Z M9.75,0 C11.959139,0 13.75,1.790861 13.75,4 L13.75,5 C13.75,7.209139 11.959139,9 9.75,9 L8.75,9 C6.540861,9 4.75,7.209139 4.75,5 L4.75,4 C4.75,1.790861 6.540861,0 8.75,0 L9.75,0 Z" id="形状结合"></path>
        </g>
    </g>
</svg>