<?xml version="1.0" encoding="UTF-8"?>
<svg width="20px" height="18px" viewBox="0 0 20 18" version="1.1" xmlns="http://www.w3.org/2000/svg" xmlns:xlink="http://www.w3.org/1999/xlink">
    <title>blog</title>
    <g id="页面-1" stroke="none" stroke-width="1" fill="none" fill-rule="evenodd">
        <g id="blog" transform="translate(0.500000, 0.000000)" fill="#FFFFFF" fill-rule="nonzero">
            <path d="M6.5,0 C7.6948975,0 8.7674235,0.55475432 9.5003773,1.43428562 C10.2325765,0.55475432 11.3051025,0 12.5,0 L17,0 C18.1045695,0 19,0.94810288 19,2.11764706 L19,15.8823529 C19,17.0518971 18.1045695,18 17,18 L2,18 C0.8954305,18 0,17.0518971 0,15.8823529 L0,2.11764706 C0,0.94810288 0.8954305,0 2,0 L6.5,0 Z M6.5,2 L2,2 L2,16 L8.5,16 L8.5,4.15384615 C8.5,3.07515293 7.7636703,2.18166788 6.80277435,2.02452089 L6.64926234,2.00590772 L6.5,2 Z M17,2 L12.5,2 C11.4456382,2 10.5818349,2.87863762 10.5054857,3.99310209 L10.5,4.15384615 L10.5,16 L17,16 L17,2 Z M6,9 C6.55228475,9 7,9.4477153 7,10 C7,10.5522847 6.55228475,11 6,11 L4.5,11 C3.94771525,11 3.5,10.5522847 3.5,10 C3.5,9.4477153 3.94771525,9 4.5,9 L6,9 Z M14.5,9 C15.0522847,9 15.5,9.4477153 15.5,10 C15.5,10.5522847 15.0522847,11 14.5,11 L13,11 C12.4477153,11 12,10.5522847 12,10 C12,9.4477153 12.4477153,9 13,9 L14.5,9 Z M6,6 C6.55228475,6 7,6.44771525 7,7 C7,7.5522847 6.55228475,8 6,8 L4.5,8 C3.94771525,8 3.5,7.5522847 3.5,7 C3.5,6.44771525 3.94771525,6 4.5,6 L6,6 Z M14.5,6 C15.0522847,6 15.5,6.44771525 15.5,7 C15.5,7.5522847 15.0522847,8 14.5,8 L13,8 C12.4477153,8 12,7.5522847 12,7 C12,6.44771525 12.4477153,6 13,6 L14.5,6 Z" id="形状结合"></path>
        </g>
    </g>
</svg>