<?xml version="1.0" encoding="UTF-8"?>
<svg width="24px" height="24px" viewBox="0 0 24 24" version="1.1" xmlns="http://www.w3.org/2000/svg" xmlns:xlink="http://www.w3.org/1999/xlink">
    <title>icon/normal/Blog</title>
    <g id="页面-1" stroke="none" stroke-width="1" fill="none" fill-rule="evenodd">
        <g id="菜单icon更新-0429" transform="translate(-606.000000, -456.000000)" fill="#FFDB1B" fill-rule="nonzero">
            <g id="社区一级导航备份-2" transform="translate(586.000000, 0.000000)">
                <g id="编组-2备份-6" transform="translate(0.000000, 444.000000)">
                    <g id="menuicon_home" transform="translate(20.000000, 12.000000)">
                        <g id="NFT-面(1)" transform="translate(2.000000, 1.000000)">
                            <path d="M10.4621138,0.112495586 L10.5439243,0.154978814 L18.3459569,4.65907486 C18.5074459,4.75202599 18.6065529,4.92456363 18.6054917,5.11088982 C18.6044134,5.29721601 18.5033317,5.46860429 18.3407861,5.559695 L10.2912098,10.072579 C10.1316576,10.1619943 9.93677278,10.1606194 9.77849797,10.0689619 L5.94143715,7.84721045 L5.86996822,7.80887844 C5.38222913,7.57446948 4.79624382,7.75502012 4.52500744,8.22328053 C4.25377106,8.69154093 4.38870637,9.28967953 4.83471266,9.59613568 L4.90307424,9.63963851 L8.73183263,11.8572387 C8.89170069,11.9497869 8.99016984,12.1204821 8.99025203,12.3052061 L8.99025203,21.4687654 C8.99025523,21.6537912 8.89154596,21.8247631 8.7313085,21.9172752 C8.57107103,22.0097873 8.37365038,22.0097842 8.21341587,21.9172669 L0.538274629,17.4856594 C0.243840352,17.3158389 0.0514610525,17.0123686 0.0234992938,16.6736229 L0.0203919492,16.5886807 L0.0203919492,6.23088144 C0.0203919492,5.89102243 0.187348241,5.57284462 0.466829979,5.37946901 L0.538274629,5.33387844 L2.96821813,3.93040254 C3.12444916,3.8402724 3.31631986,3.83791815 3.47471531,3.92418785 L9.53197387,7.21590969 L9.60448667,7.25215395 C10.0989068,7.47552496 10.6819145,7.27953231 10.9409953,6.80285308 C11.200076,6.32617384 11.0474321,5.73034592 10.5910686,5.43695489 L10.5211533,5.39551554 L6.13564619,3.0116724 C5.97116166,2.92209381 5.86786093,2.75068438 5.86549514,2.56340414 C5.86312934,2.37612391 5.96206718,2.20215972 6.12423641,2.10845471 L9.50815899,0.154978814 C9.8002608,-0.0136561988 10.1561781,-0.029506548 10.4621138,0.112495586 Z M19.7758818,7.42286354 C19.9346705,7.51579588 20.0321769,7.685997 20.0321769,7.86998146 L20.0321769,16.5886807 C20.0320626,16.9285352 19.8652357,17.2467121 19.5857632,17.4400931 L19.5142942,17.4856837 L11.8386432,21.9177767 C11.6784124,22.0102918 11.4809969,22.0102973 11.3207611,21.9177911 C11.1605252,21.8252849 11.061807,21.654321 11.061807,21.4692995 L11.061807,12.3191649 C11.061807,12.1319631 11.1627425,11.9593077 11.3259313,11.8675803 L19.2605358,7.41837262 C19.4209201,7.32822168 19.617093,7.32993121 19.7758818,7.42286354 Z" id="形状结合"></path>
                        </g>
                    </g>
                </g>
            </g>
        </g>
    </g>
</svg>