<?xml version="1.0" standalone="no"?><!DOCTYPE svg PUBLIC "-//W3C//DTD SVG 1.1//EN" "http://www.w3.org/Graphics/SVG/1.1/DTD/svg11.dtd"><svg t="1638771938452" class="icon" viewBox="0 0 1267 1024" version="1.1" xmlns="http://www.w3.org/2000/svg" p-id="24589" xmlns:xlink="http://www.w3.org/1999/xlink" width="79.1875" height="64"><defs><style type="text/css"></style></defs><path d="M412.408886 185.064647h784.366884a68.320309 68.320309 0 1 0 0-136.567469H412.408886a68.320309 68.320309 0 1 0 0 136.567469zM1196.77577 458.05329H412.408886a68.320309 68.320309 0 0 0 0 136.640617h784.366884a68.320309 68.320309 0 0 0 0-136.640617zM1196.77577 860.367741H412.408886a68.320309 68.320309 0 0 0 0 136.640617h784.366884a68.320309 68.320309 0 1 0 0-136.640617zM109.722123 0A109.722123 109.722123 0 0 0 0 109.722123a109.722123 109.722123 0 0 0 218.859061 0A109.722123 109.722123 0 0 0 109.722123 0zM109.722123 402.314451A109.722123 109.722123 0 0 0 0 512.036574a109.722123 109.722123 0 0 0 218.859061 0A109.722123 109.722123 0 0 0 109.722123 402.314451zM109.722123 805.140939A109.722123 109.722123 0 0 0 0 914.351025a109.722123 109.722123 0 0 0 218.859061 0A109.722123 109.722123 0 0 0 109.722123 805.140939z" fill="#ffffff" p-id="24590"></path></svg>