<?xml version="1.0" encoding="UTF-8"?>
<svg width="19px" height="19px" viewBox="0 0 19 19" version="1.1" xmlns="http://www.w3.org/2000/svg" xmlns:xlink="http://www.w3.org/1999/xlink">
    <title>menu-farming-active</title>
    <g id="页面-1" stroke="none" stroke-width="1" fill="none" fill-rule="evenodd">
        <g id="menu-farming-active" transform="translate(0.467598, 0.691851)" fill="#FFDB1B" fill-rule="nonzero">
            <path d="M3.887093,0.881876744 C4.12445032,2.85913834 4.74799942,4.7570705 5.72502275,6.47823203 L7.04784167,5.15499592 C7.43836596,4.76447163 8.07153094,4.76447163 8.46205524,5.15499592 L9.90800004,6.60000003 L16.1507419,0.358401264 C16.5412662,-0.0321230256 17.1744312,-0.0321230256 17.5649555,0.358401264 C17.9554798,0.748925554 17.9554798,1.38209053 17.5649555,1.77261482 L11.322,8.01400003 L12.7046959,9.39763663 C13.0952202,9.78816093 13.0952202,10.4213258 12.7046959,10.8118501 L11.3818378,12.1349226 C13.1024994,13.1116522 14.9998653,13.7352277 16.9766014,13.9729902 C17.8797727,14.0816239 18.1805526,15.2418947 17.4439024,15.7756235 C13.0969566,18.9251374 7.05756746,18.4724695 3.2223949,14.6372969 C-0.613022135,10.8018799 -1.06549585,4.76197873 2.08442432,0.414354274 C2.61821418,-0.322400226 3.7786558,-0.0214394656 3.887093,0.881876744 Z" id="路径"></path>
        </g>
    </g>
</svg>