<?xml version="1.0" encoding="UTF-8"?>
<svg width="24px" height="24px" viewBox="0 0 24 24" version="1.1" xmlns="http://www.w3.org/2000/svg" xmlns:xlink="http://www.w3.org/1999/xlink">
    <title>icon/normal/nut power</title>
    <g id="页面-1" stroke="none" stroke-width="1" fill="none" fill-rule="evenodd">
        <g id="菜单icon更新-0307" transform="translate(-786.000000, -216.000000)" fill-rule="nonzero">
            <g id="社区一级导航备份" transform="translate(766.000000, 0.000000)">
                <g id="编组-2备份-7" transform="translate(0.000000, 204.000000)">
                    <g id="menuicon_home" transform="translate(20.000000, 12.000000)">
                        <g id="social" transform="translate(2.000000, 2.000000)">
                            <path d="M10,0 C15.5228475,0 20,4.4771525 20,10 C20,15.5228475 15.5228475,20 10,20 C4.4771525,20 0,15.5228475 0,10 C0,4.4771525 4.4771525,0 10,0 Z" id="椭圆形" fill="#747576"></path>
                            <path d="M8.8692494,6 L12.6453507,6 C12.7256933,6 12.8060359,6.16428403 12.7256933,6.24642606 L10.7171287,8.87497047 C10.6367862,8.95711247 10.7171287,9.1213965 10.7974713,9.1213965 L12.8863784,9.1213965 C12.966721,9.1213965 13.0470636,9.28568053 12.966721,9.36782256 L8.62822164,13.9677753 C8.54787907,14.0499173 8.38719391,13.9677753 8.38719391,13.8034913 L9.35130487,10.8463788 C9.35130487,10.7642368 9.35130487,10.6820948 9.2709623,10.6820948 L7.26239778,10.6820948 C7.10171262,10.6820948 6.94102745,10.5178107 7.02137002,10.3535267 L8.46753648,6.24642606 C8.54787905,6.08214203 8.70856421,6 8.8692494,6 L8.8692494,6 Z" id="路径" fill="#CDCECF"></path>
                        </g>
                    </g>
                </g>
            </g>
        </g>
    </g>
</svg>