<?xml version="1.0" standalone="no"?><!DOCTYPE svg PUBLIC "-//W3C//DTD SVG 1.1//EN" "http://www.w3.org/Graphics/SVG/1.1/DTD/svg11.dtd"><svg t="1638769939931" class="icon" viewBox="0 0 1024 1024" version="1.1" xmlns="http://www.w3.org/2000/svg" p-id="2333" xmlns:xlink="http://www.w3.org/1999/xlink" width="64" height="64"><defs><style type="text/css"></style></defs><path d="M96 320c0-70.692 57.308-128 128-128h576c70.692 0 128 57.308 128 128v384c0 70.692-57.308 128-128 128H224c-70.532 0-127.74-57.048-128-127.52 0.002-0.078 0.002-0.156 0-0.234V320z m640.32 109.575L478.944 694.307c-13.024 13.395-34.665 12.81-46.956-1.155l-0.37-0.427L318.09 559.163 161.144 716.11c5.596 29.22 31.064 51.383 61.798 51.881L224 768h576c34.993 0 63.426-28.084 63.991-62.942L864 704V557.255l-127.68-127.68zM800 256H224c-34.993 0-63.426 28.084-63.991 62.942L160 320v306.744l137.373-137.371c13.085-13.086 34.47-12.357 46.643 1.479l0.366 0.423L457.59 624.46l255.467-262.766c12.318-12.67 32.54-12.938 45.19-0.695l0.381 0.375L864 466.745V320c0-34.993-28.084-63.426-62.942-63.991L800 256z m-384 32c53.02 0 96 42.98 96 96s-42.98 96-96 96-96-42.98-96-96 42.98-96 96-96z m0 64c-17.673 0-32 14.327-32 32 0 17.673 14.327 32 32 32 17.673 0 32-14.327 32-32 0-17.673-14.327-32-32-32z" p-id="2334" fill="#dbdbdb"></path></svg>