<?xml version="1.0" encoding="UTF-8"?>
<svg width="13px" height="13px" viewBox="0 0 13 13" version="1.1" xmlns="http://www.w3.org/2000/svg" xmlns:xlink="http://www.w3.org/1999/xlink">
    <title>形状结合</title>
    <g id="页面-1" stroke="none" stroke-width="1" fill="none" fill-rule="evenodd">
        <g id="official-link" fill="#FFFFFF" fill-rule="nonzero">
            <path d="M6.721,0.838797814 C9.96743433,0.838797814 12.6,3.46759583 12.6,6.71038251 C12.6,9.8794695 10.0857366,12.4621593 6.9404395,12.5779173 L6.72,12.5819672 L6.72,12.5819672 L6.72,12.5819672 C3.47256567,12.5819672 0.84,9.9531692 0.84,6.71038251 C0.84,3.46759583 3.47256567,0.838797814 6.72,0.838797814 L6.721,0.838797814 Z M7.70806607,9.22758194 L5.73193393,9.22758194 C5.83017358,9.64845229 5.95282141,10.0324888 6.09621365,10.3665919 C6.26612416,10.7624824 6.4524817,11.0558302 6.62417098,11.2250307 L6.72,11.3145437 L6.81582902,11.2250307 C6.9875183,11.0558302 7.17387584,10.7624824 7.34378635,10.3665919 C7.48717859,10.0324888 7.60982642,9.64845229 7.70806607,9.22758194 Z M10.6160903,9.22586978 L8.99745728,9.22695008 C8.85900989,9.9059425 8.66627808,10.5132015 8.43232982,11.0182789 C9.33398591,10.6618573 10.0967086,10.0296321 10.6160903,9.22586978 Z M4.44254272,9.22695008 L2.84646832,9.22586978 C3.36039354,10.0211881 4.11257371,10.6485544 5.00221827,11.0073226 C4.77090872,10.5043247 4.57997864,9.90098194 4.44254272,9.22695008 Z M11.1714541,5.44898741 L11.1309016,5.45218579 L11.1309016,5.45218579 L9.18197052,5.4517892 C9.21997528,5.85724681 9.24,6.27836594 9.24,6.71038251 C9.24,7.14239909 9.21997528,7.56351822 9.18197052,7.96897583 L11.1309016,7.96857923 L11.181222,7.9724149 C11.2920318,7.5765082 11.3512793,7.159109 11.3512793,6.7278916 C11.3512793,6.28417202 11.2885465,5.85508351 11.1714541,5.44898741 Z M2.1112793,6.7278916 C2.1112793,7.15837936 2.17032651,7.57509564 2.2807746,7.97040504 L2.30909836,7.96857923 L2.30909836,7.96857923 L4.25802948,7.96897583 C4.22002472,7.56351822 4.2,7.14239909 4.2,6.71038251 C4.2,6.27836594 4.22002472,5.85724681 4.25802948,5.4517892 L2.30909836,5.45218579 L2.29052434,5.4510013 C2.17380493,5.85650203 2.1112793,6.28490544 2.1112793,6.7278916 Z M7.91572747,5.45102075 L5.52427253,5.45102075 C5.48216564,5.85577479 5.46,6.27821312 5.46,6.71038251 C5.46,7.14219738 5.48212929,7.56429714 5.52416894,7.96874813 L7.91583106,7.96874813 C7.95787071,7.56429714 7.98,7.14219738 7.98,6.71038251 C7.98,6.27821312 7.95783436,5.85577479 7.91572747,5.45102075 Z M4.98265842,2.45722231 L4.9329668,2.47704652 C4.08702155,2.8343391 3.36982658,3.43607767 2.87018542,4.19358578 L4.44259936,4.19353718 C4.57607677,3.53900803 4.75999873,2.95114414 4.98265842,2.45722231 Z M6.729,2.11379781 L6.711,2.11379781 L6.62417098,2.19573433 C6.4524817,2.36493485 6.26612416,2.65828266 6.09621365,3.05417313 C5.95282141,3.38827618 5.83017358,3.77231274 5.73193393,4.19318309 L7.70806607,4.19318309 C7.60982642,3.77231274 7.48717859,3.38827618 7.34378635,3.05417313 C7.17387584,2.65828266 6.9875183,2.36493485 6.81582902,2.19573433 L6.729,2.11379781 Z M8.45297266,2.44549687 L8.46239725,2.46846819 C8.68278612,2.96005834 8.8649348,3.54396845 8.99740064,4.19353718 L10.5923732,4.19358578 C10.0777157,3.41331136 9.33223107,2.79831024 8.45297266,2.44549687 Z" id="形状结合"></path>
        </g>
    </g>
</svg>