<?xml version="1.0" standalone="no"?><!DOCTYPE svg PUBLIC "-//W3C//DTD SVG 1.1//EN" "http://www.w3.org/Graphics/SVG/1.1/DTD/svg11.dtd"><svg t="1640580520290" class="icon" viewBox="0 0 1024 1024" version="1.1" xmlns="http://www.w3.org/2000/svg" p-id="4686" xmlns:xlink="http://www.w3.org/1999/xlink" width="64" height="64"><defs><style type="text/css"></style></defs><path d="M567.04 396.373333l-170.666667 170.666667a42.666667 42.666667 0 0 0 0 60.586667 42.666667 42.666667 0 0 0 60.586667 0l170.666667-170.666667a42.666667 42.666667 0 0 0-60.586667-60.586667z" p-id="4687" fill="#ffffff"></path><path d="M523.946667 742.4L469.333333 796.586667a179.2 179.2 0 0 1-238.08 17.066666 170.666667 170.666667 0 0 1-11.52-253.013333l60.586667-61.013333a42.666667 42.666667 0 0 0 0-60.586667 42.666667 42.666667 0 0 0-60.586667 0l-54.186666 54.613333a262.4 262.4 0 0 0-28.586667 344.32 258.56 258.56 0 0 0 386.986667 25.6l60.586666-60.586666a42.666667 42.666667 0 0 0-60.586666-60.586667zM838.826667 137.386667a263.68 263.68 0 0 0-346.88 29.013333L445.866667 213.333333a46.506667 46.506667 0 0 0-7.253334 68.693334 42.666667 42.666667 0 0 0 60.586667 0L554.666667 226.133333a177.92 177.92 0 0 1 237.653333-17.066666 170.666667 170.666667 0 0 1 11.52 253.866666l-60.586667 61.013334a42.666667 42.666667 0 0 0 0 60.586666 42.666667 42.666667 0 0 0 60.586667 0l60.586667-60.586666a258.56 258.56 0 0 0-25.6-386.56z" p-id="4688" fill="#ffffff"></path></svg>