<?xml version="1.0" encoding="UTF-8"?>
<svg width="68px" height="68px" viewBox="0 0 68 68" version="1.1" xmlns="http://www.w3.org/2000/svg" xmlns:xlink="http://www.w3.org/1999/xlink">
    <!-- Generator: Sketch 63.1 (92452) - https://sketch.com -->
    <title>编组 5</title>
    <desc>Created with Sketch.</desc>
    <g id="notbox-v2" stroke="none" stroke-width="1" fill="none" fill-rule="evenodd">
        <g id="创建社区教程引导" transform="translate(-979.000000, -561.000000)">
            <g id="编组-23" transform="translate(120.000000, 236.000000)">
                <g id="编组-6">
                    <g id="编组-3备份" transform="translate(634.000000, 213.000000)">
                        <g id="编组">
                            <g id="编组-2">
                                <g id="编组-5" transform="translate(225.000000, 112.000000)">
                                    <circle id="椭圆形" fill-opacity="0.5" fill="#000000" cx="34" cy="34" r="34"></circle>
                                    <path d="M39.6959966,25.5135946 L50.0875013,42.1400021 C50.672922,43.0766752 50.3881757,44.3105759 49.4515026,44.8959966 C49.1336394,45.0946611 48.7663442,45.2 48.3915047,45.2 L27.6084953,45.2 C26.5039258,45.2 25.6084953,44.3045695 25.6084953,43.2 C25.6084953,42.8251606 25.7138342,42.4578653 25.9124987,42.1400021 L36.3040034,25.5135946 C36.8894241,24.5769215 38.1233248,24.2921752 39.0599979,24.8775958 C39.3175361,25.0385573 39.5350352,25.2560563 39.6959966,25.5135946 Z" id="三角形" fill="#FFFFFF" transform="translate(38.000000, 34.000000) rotate(-270.000000) translate(-38.000000, -34.000000) "></path>
                                </g>
                            </g>
                        </g>
                    </g>
                </g>
            </g>
        </g>
    </g>
</svg>