<?xml version="1.0" encoding="UTF-8"?>
<svg width="12px" height="12px" viewBox="0 0 12 12" version="1.1" xmlns="http://www.w3.org/2000/svg" xmlns:xlink="http://www.w3.org/1999/xlink">
    <title>icon/arrow/s</title>
    <g id="notbox-v2" stroke="none" stroke-width="1" fill="none" fill-rule="evenodd">
        <g id="community" transform="translate(-620.000000, -435.000000)">
            <g id="编组-11备份-5" transform="translate(336.000000, 272.000000)">
                <g id="icon/arrow/s备份" transform="translate(284.000000, 163.000000)">
                    <rect id="Rectangle-82" x="0" y="0" width="12" height="12"></rect>
                    <path d="M1.99264069,9 C1.71649831,9 1.49264069,8.77614237 1.49264069,8.5 C1.49264069,8.22385763 1.71649831,8 1.99264069,8 L6.49264069,8 L6.49264069,3.5 C6.49264069,3.22385763 6.71649831,3 6.99264069,3 C7.26878306,3 7.49264069,3.22385763 7.49264069,3.5 L7.49264069,8.5 L7.49264069,8.5 C7.49264069,8.74545989 7.31576553,8.94960837 7.08251632,8.99194433 L6.99264069,9 L6.99264069,9 L1.99264069,9 Z" id="形状结合" fill="#717376" transform="translate(4.492641, 6.000000) rotate(-45.000000) translate(-4.492641, -6.000000) "></path>
                </g>
            </g>
        </g>
    </g>
</svg>