<?xml version="1.0" encoding="UTF-8"?>
<svg width="1008px" height="160px" viewBox="0 0 1008 160" version="1.1" xmlns="http://www.w3.org/2000/svg" xmlns:xlink="http://www.w3.org/1999/xlink">
    <title>编组 7</title>
    <defs>
        <linearGradient x1="50%" y1="0%" x2="50%" y2="100%" id="linearGradient-1">
            <stop stop-color="#FDC84C" offset="0%"></stop>
            <stop stop-color="#FFB902" offset="100%"></stop>
        </linearGradient>
        <rect id="path-2" x="0" y="0" width="1008" height="160"></rect>
        <path d="M33.859126,37.3143202 C52.5590049,37.3143202 67.7182519,37.4698885 67.7182519,24.8760925 C67.7182519,12.2822965 52.5590049,-1.42108547e-15 33.859126,-1.42108547e-15 C15.1592471,-1.42108547e-15 0,12.2822965 0,24.8760925 C0,37.4698885 15.1592471,37.3143202 33.859126,37.3143202 Z" id="path-4"></path>
        <path d="M29.022108,57.3015679 C60.1817301,57.3015679 58.3081589,49.2329437 57.86116,30.4041131 C57.86116,14.5626995 38.0349522,0 29.022108,0 C20.0092637,0 0.18305591,12.1441905 0.18305591,30.4041131 C-0.26394294,46.5856118 -2.13751417,57.3015679 29.022108,57.3015679 Z" id="path-6"></path>
        <rect id="path-8" x="0" y="0" width="1008" height="160"></rect>
        <path d="M33.859126,37.3143202 C52.5590049,37.3143202 67.7182519,37.4698885 67.7182519,24.8760925 C67.7182519,12.2822965 52.5590049,-1.42108547e-15 33.859126,-1.42108547e-15 C15.1592471,-1.42108547e-15 0,12.2822965 0,24.8760925 C0,37.4698885 15.1592471,37.3143202 33.859126,37.3143202 Z" id="path-10"></path>
        <path d="M33.859126,37.3143202 C52.5590049,37.3143202 67.7182519,37.4698885 67.7182519,24.8760925 C67.7182519,12.2822965 52.5590049,-1.42108547e-15 33.859126,-1.42108547e-15 C15.1592471,-1.42108547e-15 0,12.2822965 0,24.8760925 C0,37.4698885 15.1592471,37.3143202 33.859126,37.3143202 Z" id="path-12"></path>
        <path d="M29.022108,57.3015679 C60.1817301,57.3015679 58.3081589,49.2329437 57.86116,30.4041131 C57.86116,14.5626995 38.0349522,0 29.022108,0 C20.0092637,0 0.18305591,12.1441905 0.18305591,30.4041131 C-0.26394294,46.5856118 -2.13751417,57.3015679 29.022108,57.3015679 Z" id="path-14"></path>
        <rect id="path-16" x="0" y="0" width="1008" height="160"></rect>
        <path d="M10.5809769,11.660725 C16.424689,11.660725 21.1619537,11.7093402 21.1619537,7.77377892 C21.1619537,3.83821767 16.424689,-5.99749647e-25 10.5809769,-5.99749647e-25 C4.7372647,-5.99749647e-25 0,3.83821767 0,7.77377892 C0,11.7093402 4.7372647,11.660725 10.5809769,11.660725 Z" id="path-18"></path>
        <path d="M10.5809769,11.660725 C16.424689,11.660725 21.1619537,11.7093402 21.1619537,7.77377892 C21.1619537,3.83821767 16.424689,-5.99749647e-25 10.5809769,-5.99749647e-25 C4.7372647,-5.99749647e-25 0,3.83821767 0,7.77377892 C0,11.7093402 4.7372647,11.660725 10.5809769,11.660725 Z" id="path-20"></path>
        <path d="M9.06940874,17.90674 C18.8067907,17.90674 18.2212996,15.3852949 18.0816125,9.50128535 C18.0816125,4.55084358 11.8859226,0 9.06940874,0 C6.25289491,0 0.057204972,3.79505952 0.057204972,9.50128535 C-0.0824821688,14.5580037 -0.667973177,17.90674 9.06940874,17.90674 Z" id="path-22"></path>
        <rect id="path-24" x="0" y="0" width="1008" height="160"></rect>
        <path d="M85.256792,93.9569212 C132.342818,93.9569212 170.513584,94.3486402 170.513584,62.6376431 C170.513584,30.926646 132.342818,1.52020044e-23 85.256792,1.52020044e-23 C38.170766,1.52020044e-23 0,30.926646 0,62.6376431 C0,94.3486402 38.170766,93.9569212 85.256792,93.9569212 Z" id="path-26"></path>
        <path d="M73.0772503,144.284523 C151.53673,144.284523 146.819105,123.967844 145.693568,76.5571193 C145.693568,36.6686677 95.7714625,0 73.0772503,0 C50.3830381,0 0.460932148,30.5788968 0.460932148,76.5571193 C-0.664604526,117.3019 -5.38222991,144.284523 73.0772503,144.284523 Z" id="path-28"></path>
        <rect id="path-30" x="0" y="0" width="1008" height="160"></rect>
        <path d="M85.256792,93.9569212 C132.342818,93.9569212 170.513584,94.3486402 170.513584,62.6376431 C170.513584,30.926646 132.342818,-8.78797359e-24 85.256792,-8.78797359e-24 C38.170766,-8.78797359e-24 0,30.926646 0,62.6376431 C0,94.3486402 38.170766,93.9569212 85.256792,93.9569212 Z" id="path-32"></path>
        <path d="M73.0772503,144.284523 C151.53673,144.284523 146.819105,123.967844 145.693568,76.5571193 C145.693568,36.6686677 95.7714625,0 73.0772503,0 C50.3830381,0 0.460932148,30.5788968 0.460932148,76.5571193 C-0.664604526,117.3019 -5.38222991,144.284523 73.0772503,144.284523 Z" id="path-34"></path>
        <rect id="path-36" x="0" y="0" width="1008" height="160"></rect>
        <path d="M32.2467866,1.98951953e-15 C50.0561951,1.98951953e-15 64.4935733,14.4373781 64.4935733,32.2467866 C64.4935733,40.4734751 61.412944,47.980644 56.3423513,53.6776275 C74.4202122,55.8692551 88.4267352,71.2680799 88.4267352,89.9383033 C88.4267352,110.113024 72.0718928,126.467866 51.8971722,126.467866 C31.7224517,126.467866 15.3676093,110.113024 15.3676093,89.9383033 C15.3676093,84.2834478 16.6525241,78.9287003 18.9463181,74.1500962 C20.4510736,70.8329517 21.7341156,67.1613909 22.7971486,63.137369 C22.8015425,63.1207364 22.8059795,63.1042835 22.8104594,63.0880093 C9.60468409,59.0555481 -2.69229083e-15,46.7728145 -2.69229083e-15,32.2467866 C-2.69229083e-15,14.4373781 14.4373782,1.98951953e-15 32.2467866,1.98951953e-15 Z" id="path-38"></path>
        <path d="M32.2467866,1.98951953e-15 C50.0561951,1.98951953e-15 64.4935733,14.4373781 64.4935733,32.2467866 C64.4935733,40.4734751 61.412944,47.980644 56.3423513,53.6776275 C74.4202122,55.8692551 88.4267352,71.2680799 88.4267352,89.9383033 C88.4267352,110.113024 72.0718928,126.467866 51.8971722,126.467866 C31.7224517,126.467866 15.3676093,110.113024 15.3676093,89.9383033 C15.3676093,84.2834478 16.6525241,78.9287003 18.9463181,74.1500962 C20.4510736,70.8329517 21.7341156,67.1613909 22.7971486,63.137369 C22.8015425,63.1207364 22.8059795,63.1042835 22.8104594,63.0880093 C9.60468409,59.0555481 -2.69229083e-15,46.7728145 -2.69229083e-15,32.2467866 C-2.69229083e-15,14.4373781 14.4373782,1.98951953e-15 32.2467866,1.98951953e-15 Z" id="path-40"></path>
        <path d="M32.2467866,1.98951953e-15 C50.0561951,1.98951953e-15 64.4935733,14.4373781 64.4935733,32.2467866 C64.4935733,40.4734751 61.412944,47.980644 56.3423513,53.6776275 C74.4202122,55.8692551 88.4267352,71.2680799 88.4267352,89.9383033 C88.4267352,110.113024 72.0718928,126.467866 51.8971722,126.467866 C31.7224517,126.467866 15.3676093,110.113024 15.3676093,89.9383033 C15.3676093,84.2834478 16.6525241,78.9287003 18.9463181,74.1500962 C20.4510736,70.8329517 21.7341156,67.1613909 22.7971486,63.137369 C22.8015425,63.1207364 22.8059795,63.1042835 22.8104594,63.0880093 C9.60468409,59.0555481 -2.69229083e-15,46.7728145 -2.69229083e-15,32.2467866 C-2.69229083e-15,14.4373781 14.4373782,1.98951953e-15 32.2467866,1.98951953e-15 Z" id="path-42"></path>
        <path d="M32.2467866,1.98951953e-15 C50.0561951,1.98951953e-15 64.4935733,14.4373781 64.4935733,32.2467866 C64.4935733,40.4734751 61.412944,47.980644 56.3423513,53.6776275 C74.4202122,55.8692551 88.4267352,71.2680799 88.4267352,89.9383033 C88.4267352,110.113024 72.0718928,126.467866 51.8971722,126.467866 C31.7224517,126.467866 15.3676093,110.113024 15.3676093,89.9383033 C15.3676093,84.2834478 16.6525241,78.9287003 18.9463181,74.1500962 C20.4510736,70.8329517 21.7341156,67.1613909 22.7971486,63.137369 C22.8015425,63.1207364 22.8059795,63.1042835 22.8104594,63.0880093 C9.60468409,59.0555481 -2.69229083e-15,46.7728145 -2.69229083e-15,32.2467866 C-2.69229083e-15,14.4373781 14.4373782,1.98951953e-15 32.2467866,1.98951953e-15 Z" id="path-44"></path>
        <path d="M-4.97379952e-16,34.2622108 L-4.97379952e-16,25.6966581 L2.29192409,25.6968088 C0.834269161,23.1770173 -4.97379952e-16,20.2514883 -4.97379952e-16,17.1311054 C-4.97379952e-16,7.66985714 7.66985714,8.52650884e-16 17.1311054,8.52650884e-16 C26.5923537,8.52650884e-16 34.2622108,7.66985714 34.2622108,17.1311054 C34.2622108,20.0456049 33.5344002,22.7901151 32.2506137,25.1928014 L36.5547558,25.1928426 C41.9668127,25.1928426 46.3542149,29.5799112 46.3547557,34.9918419 L17.1311054,34.9912982 L17.1311054,34.2622108 L17.1311054,34.2622108 L-4.97379952e-16,34.2622108 Z" id="path-46"></path>
        <path d="M13.9298482,-2.27373677e-15 L43.9977568,5.23802552 C44.7811334,5.33686627 45.5533042,5.47167931 46.3125621,5.64075773 L47.8663239,5.91292778 C47.8353577,5.94678628 47.8044067,5.98062329 47.7734711,6.01443881 C58.3019039,9.03377247 66.0051414,18.7329737 66.0051414,30.2313625 C66.0051414,43.8891538 55.1368755,55.0085255 41.5770414,55.4127802 L41.531759,55.4692915 C46.4999015,55.9452287 50.3850952,60.130445 50.3856041,65.2232043 L24.1850415,65.2232043 L24.1857646,64.4720314 C23.8514217,64.4863439 23.515244,64.4935733 23.1773779,64.4935733 C22.8152581,64.4935733 22.455078,64.4852687 22.0970176,64.4688397 C21.7875682,64.4851365 21.4757462,64.4935733 21.1619537,64.4935733 C16.9755482,64.4935733 13.1398754,62.9919085 10.1641986,60.4978426 C4.02939726,56.3281502 0,49.2927309 0,41.3161954 C0,37.4094144 0.96660628,33.7283964 2.67370973,30.4992505 C4.74877669,25.5130274 7.99948449,21.1174132 10.3871104,15.6652976 C13.1860569,9.27393624 14.3669695,4.05217036 13.9298482,-2.27373677e-15 L13.9298482,-2.27373677e-15 Z" id="path-48"></path>
        <path d="M13.9298482,-2.27373677e-15 L43.9977568,5.23802552 C44.7811334,5.33686627 45.5533042,5.47167931 46.3125621,5.64075773 L47.8663239,5.91292778 C47.8353577,5.94678628 47.8044067,5.98062329 47.7734711,6.01443881 C58.3019039,9.03377247 66.0051414,18.7329737 66.0051414,30.2313625 C66.0051414,43.8891538 55.1368755,55.0085255 41.5770414,55.4127802 L41.531759,55.4692915 C46.4999015,55.9452287 50.3850952,60.130445 50.3856041,65.2232043 L24.1850415,65.2232043 L24.1857646,64.4720314 C23.8514217,64.4863439 23.515244,64.4935733 23.1773779,64.4935733 C22.8152581,64.4935733 22.455078,64.4852687 22.0970176,64.4688397 C21.7875682,64.4851365 21.4757462,64.4935733 21.1619537,64.4935733 C16.9755482,64.4935733 13.1398754,62.9919085 10.1641986,60.4978426 C4.02939726,56.3281502 0,49.2927309 0,41.3161954 C0,37.4094144 0.96660628,33.7283964 2.67370973,30.4992505 C4.74877669,25.5130274 7.99948449,21.1174132 10.3871104,15.6652976 C13.1860569,9.27393624 14.3669695,4.05217036 13.9298482,-2.27373677e-15 L13.9298482,-2.27373677e-15 Z" id="path-50"></path>
        <path d="M13.9298482,-2.27373677e-15 L43.9977568,5.23802552 C44.7811334,5.33686627 45.5533042,5.47167931 46.3125621,5.64075773 L47.8663239,5.91292778 C47.8353577,5.94678628 47.8044067,5.98062329 47.7734711,6.01443881 C58.3019039,9.03377247 66.0051414,18.7329737 66.0051414,30.2313625 C66.0051414,43.8891538 55.1368755,55.0085255 41.5770414,55.4127802 L41.531759,55.4692915 C46.4999015,55.9452287 50.3850952,60.130445 50.3856041,65.2232043 L24.1850415,65.2232043 L24.1857646,64.4720314 C23.8514217,64.4863439 23.515244,64.4935733 23.1773779,64.4935733 C22.8152581,64.4935733 22.455078,64.4852687 22.0970176,64.4688397 C21.7875682,64.4851365 21.4757462,64.4935733 21.1619537,64.4935733 C16.9755482,64.4935733 13.1398754,62.9919085 10.1641986,60.4978426 C4.02939726,56.3281502 0,49.2927309 0,41.3161954 C0,37.4094144 0.96660628,33.7283964 2.67370973,30.4992505 C4.74877669,25.5130274 7.99948449,21.1174132 10.3871104,15.6652976 C13.1860569,9.27393624 14.3669695,4.05217036 13.9298482,-2.27373677e-15 L13.9298482,-2.27373677e-15 Z" id="path-52"></path>
        <path d="M13.9298482,-2.27373677e-15 L43.9977568,5.23802552 C44.7811334,5.33686627 45.5533042,5.47167931 46.3125621,5.64075773 L47.8663239,5.91292778 C47.8353577,5.94678628 47.8044067,5.98062329 47.7734711,6.01443881 C58.3019039,9.03377247 66.0051414,18.7329737 66.0051414,30.2313625 C66.0051414,43.8891538 55.1368755,55.0085255 41.5770414,55.4127802 L41.531759,55.4692915 C46.4999015,55.9452287 50.3850952,60.130445 50.3856041,65.2232043 L24.1850415,65.2232043 L24.1857646,64.4720314 C23.8514217,64.4863439 23.515244,64.4935733 23.1773779,64.4935733 C22.8152581,64.4935733 22.455078,64.4852687 22.0970176,64.4688397 C21.7875682,64.4851365 21.4757462,64.4935733 21.1619537,64.4935733 C16.9755482,64.4935733 13.1398754,62.9919085 10.1641986,60.4978426 C4.02939726,56.3281502 0,49.2927309 0,41.3161954 C0,37.4094144 0.96660628,33.7283964 2.67370973,30.4992505 C4.74877669,25.5130274 7.99948449,21.1174132 10.3871104,15.6652976 C13.1860569,9.27393624 14.3669695,4.05217036 13.9298482,-2.27373677e-15 L13.9298482,-2.27373677e-15 Z" id="path-54"></path>
        <path d="M13.9298482,-2.27373677e-15 L43.9977568,5.23802552 C44.7811334,5.33686627 45.5533042,5.47167931 46.3125621,5.64075773 L47.8663239,5.91292778 C47.8353577,5.94678628 47.8044067,5.98062329 47.7734711,6.01443881 C58.3019039,9.03377247 66.0051414,18.7329737 66.0051414,30.2313625 C66.0051414,43.8891538 55.1368755,55.0085255 41.5770414,55.4127802 L41.531759,55.4692915 C46.4999015,55.9452287 50.3850952,60.130445 50.3856041,65.2232043 L24.1850415,65.2232043 L24.1857646,64.4720314 C23.8514217,64.4863439 23.515244,64.4935733 23.1773779,64.4935733 C22.8152581,64.4935733 22.455078,64.4852687 22.0970176,64.4688397 C21.7875682,64.4851365 21.4757462,64.4935733 21.1619537,64.4935733 C16.9755482,64.4935733 13.1398754,62.9919085 10.1641986,60.4978426 C4.02939726,56.3281502 0,49.2927309 0,41.3161954 C0,37.4094144 0.96660628,33.7283964 2.67370973,30.4992505 C4.74877669,25.5130274 7.99948449,21.1174132 10.3871104,15.6652976 C13.1860569,9.27393624 14.3669695,4.05217036 13.9298482,-2.27373677e-15 L13.9298482,-2.27373677e-15 Z" id="path-56"></path>
        <path d="M13.6350924,0 L43.703001,5.23802552 C44.4863776,5.33686627 45.2585484,5.47167931 46.0178063,5.64075773 L47.5715681,5.91292778 C47.5406019,5.94678628 47.5096509,5.98062329 47.4787153,6.01443881 C58.0071481,9.03377247 65.7103856,18.7329737 65.7103856,30.2313625 C65.7103856,43.4601688 55.514132,54.3075125 42.5517906,55.3432279 C42.5031375,55.4087303 42.4545565,55.4747746 42.4056399,55.5405547 C46.6482896,56.6170308 49.7870087,60.4616863 49.7870087,65.0394288 L24.3070087,65.0394288 L24.307386,65.0264972 C24.0459809,65.0350958 23.7834965,65.0394288 23.52,65.0394288 C20.6854671,65.0394288 17.9680471,64.5380091 15.4516008,63.6190304 C14.2918407,63.2337453 13.1877054,62.7272224 12.1535023,62.1150461 C4.90685907,58.1076094 -2.99760217e-15,50.3865483 -2.99760217e-15,41.5194288 C-2.99760217e-15,39.1812761 0.341180511,36.9228104 0.976472696,34.7911005 L0.991525926,34.7242296 C2.62551743,27.8216735 7.0565741,22.5974665 10.0923546,15.6652976 C12.8913011,9.27393624 14.0722137,4.05217036 13.6350924,0 L13.6350924,0 Z" id="path-58"></path>
        <path d="M38.1957199,64.4492049 C48.5770852,61.8143808 76.7046597,50.1309221 77.5708561,33.880046 C78.4370524,17.6291699 54.637331,1.77635684e-15 35.3639902,1.77635684e-15 C16.0906494,1.77635684e-15 -4.29376997,15.2814376 0.789752379,43.5975568 C5.87327478,71.9136759 27.8143545,67.084029 38.1957199,64.4492049 Z" id="path-60"></path>
        <path d="M38.1957199,64.4492049 C48.5770852,61.8143808 76.7046597,50.1309221 77.5708561,33.880046 C78.4370524,17.6291699 54.637331,1.77635684e-15 35.3639902,1.77635684e-15 C16.0906494,1.77635684e-15 -4.29376997,15.2814376 0.789752379,43.5975568 C5.87327478,71.9136759 27.8143545,67.084029 38.1957199,64.4492049 Z" id="path-62"></path>
        <path d="M38.1957199,64.4492049 C48.5770852,61.8143808 76.7046597,50.1309221 77.5708561,33.880046 C78.4370524,17.6291699 54.637331,1.77635684e-15 35.3639902,1.77635684e-15 C16.0906494,1.77635684e-15 -4.29376997,15.2814376 0.789752379,43.5975568 C5.87327478,71.9136759 27.8143545,67.084029 38.1957199,64.4492049 Z" id="path-64"></path>
        <path d="M38.1957199,64.4492049 C48.5770852,61.8143808 76.7046597,50.1309221 77.5708561,33.880046 C78.4370524,17.6291699 54.637331,1.77635684e-15 35.3639902,1.77635684e-15 C16.0906494,1.77635684e-15 -4.29376997,15.2814376 0.789752379,43.5975568 C5.87327478,71.9136759 27.8143545,67.084029 38.1957199,64.4492049 Z" id="path-66"></path>
        <path d="M38.1957199,64.4492049 C48.5770852,61.8143808 76.7046597,50.1309221 77.5708561,33.880046 C78.4370524,17.6291699 54.637331,1.77635684e-15 35.3639902,1.77635684e-15 C16.0906494,1.77635684e-15 -4.29376997,15.2814376 0.789752379,43.5975568 C5.87327478,71.9136759 27.8143545,67.084029 38.1957199,64.4492049 Z" id="path-68"></path>
        <path d="M38.1957199,64.4492049 C48.5770852,61.8143808 76.7046597,50.1309221 77.5708561,33.880046 C78.4370524,17.6291699 54.637331,1.77635684e-15 35.3639902,1.77635684e-15 C16.0906494,1.77635684e-15 -4.29376997,15.2814376 0.789752379,43.5975568 C5.87327478,71.9136759 27.8143545,67.084029 38.1957199,64.4492049 Z" id="path-70"></path>
        <path d="M38.1957199,64.4492049 C48.5770852,61.8143808 76.7046597,50.1309221 77.5708561,33.880046 C78.4370524,17.6291699 54.637331,1.77635684e-15 35.3639902,1.77635684e-15 C16.0906494,1.77635684e-15 -4.29376997,15.2814376 0.789752379,43.5975568 C5.87327478,71.9136759 27.8143545,67.084029 38.1957199,64.4492049 Z" id="path-72"></path>
        <path d="M38.1957199,64.4492049 C48.5770852,61.8143808 76.7046597,50.1309221 77.5708561,33.880046 C78.4370524,17.6291699 54.637331,1.77635684e-15 35.3639902,1.77635684e-15 C16.0906494,1.77635684e-15 -4.29376997,15.2814376 0.789752379,43.5975568 C5.87327478,71.9136759 27.8143545,67.084029 38.1957199,64.4492049 Z" id="path-74"></path>
        <path d="M10.0771208,20.1542416 C16.9014353,20.1542416 21.2962944,15.642561 19.8933133,10.0771208 C18.4903323,4.51168067 14.0954732,8.04911693e-16 10.0771208,8.04911693e-16 C6.05876845,8.04911693e-16 1.66390935,4.51168067 0.260928296,10.0771208 C-1.14205276,15.642561 3.25280633,20.1542416 10.0771208,20.1542416 Z" id="path-76"></path>
        <path d="M10.4215537,0 C15.1617326,4.40903459 20.8742378,5.08689386 27.5590693,2.03357782 C28.8194869,1.310828 30.3838627,0.883224213 32.0785066,0.883224213 C36.2525867,0.883224213 39.6363472,3.4774406 39.6363472,6.67756869 C39.6363472,9.87769677 36.2525867,12.4719132 32.0785066,12.4719132 C31.980579,12.4719132 31.8830864,12.4704853 31.7860622,12.4676552 L31.7888755,12.4719132 C26.9880147,16.5309722 21.6871318,18.5605017 15.8862267,18.5605017 C10.0853216,18.5605017 4.7899127,15.5232601 8.12834796e-17,9.44877691 L10.4215537,0 Z" id="path-78"></path>
        <path d="M10.4215537,0 C15.1617326,4.40903459 20.8742378,5.08689386 27.5590693,2.03357782 C28.8194869,1.310828 30.3838627,0.883224213 32.0785066,0.883224213 C36.2525867,0.883224213 39.6363472,3.4774406 39.6363472,6.67756869 C39.6363472,9.87769677 36.2525867,12.4719132 32.0785066,12.4719132 C31.980579,12.4719132 31.8830864,12.4704853 31.7860622,12.4676552 L31.7888755,12.4719132 C26.9880147,16.5309722 21.6871318,18.5605017 15.8862267,18.5605017 C10.0853216,18.5605017 4.7899127,15.5232601 8.12834796e-17,9.44877691 L10.4215537,0 Z" id="path-80"></path>
        <path d="M6.07944706,0 C8.90926378,0 10.9126144,1.72707996 12.089499,5.18123989 C12.6131531,6.71819396 11.7917204,8.38865139 10.2547691,8.91231399 C9.94946768,9.01633479 9.62912998,9.06940869 9.30659423,9.06940869 L2.94001226,9.06940869 C1.31628833,9.06940869 0,7.75313269 0,6.12940874 C0,5.82553057 0.04711136,5.52348927 0.13965561,5.23404583 C1.255316,1.74468194 3.23524648,0 6.07944706,0 Z" id="path-82"></path>
        <path d="M6.07944706,0 C8.90926378,0 10.9126144,1.72707996 12.089499,5.18123989 C12.6131531,6.71819396 11.7917204,8.38865139 10.2547691,8.91231399 C9.94946768,9.01633479 9.62912998,9.06940869 9.30659423,9.06940869 L2.94001226,9.06940869 C1.31628833,9.06940869 0,7.75313269 0,6.12940874 C0,5.82553057 0.04711136,5.52348927 0.13965561,5.23404583 C1.255316,1.74468194 3.23524648,0 6.07944706,0 Z" id="path-84"></path>
        <path d="M6.07944706,0 C8.90926378,0 10.9126144,1.72707996 12.089499,5.18123989 C12.6131531,6.71819396 11.7917204,8.38865139 10.2547691,8.91231399 C9.94946768,9.01633479 9.62912998,9.06940869 9.30659423,9.06940869 L2.94001226,9.06940869 C1.31628833,9.06940869 0,7.75313269 0,6.12940874 C0,5.82553057 0.04711136,5.52348927 0.13965561,5.23404583 C1.255316,1.74468194 3.23524648,0 6.07944706,0 Z" id="path-86"></path>
        <rect id="path-88" x="0" y="0" width="1008" height="160"></rect>
    </defs>
    <g id="页面-1" stroke="none" stroke-width="1" fill="none" fill-rule="evenodd">
        <g id="编组-7">
            <g id="矩形" fill="#FDBE00" fill-rule="nonzero">
                <rect id="path-1" x="0" y="0" width="1008" height="160"></rect>
            </g>
            <g id="矩形" fill="url(#linearGradient-1)" fill-rule="nonzero">
                <rect id="path-4" x="0" y="0" width="1008" height="160"></rect>
            </g>
            <g id="编组-26备份-6-Clipped">
                <mask id="mask-3" fill="white">
                    <use xlink:href="#path-2"></use>
                </mask>
                <g id="path-4"></g>
                <g id="编组-26备份-6" opacity="0.05" mask="url(#mask-3)">
                    <g transform="translate(274.366628, -35.710558)" id="松果">
                        <g transform="translate(51.548630, 51.548630) scale(-1, 1) rotate(-135.000000) translate(-51.548630, -51.548630) translate(17.689504, 12.506984)">
                            <g id="编组" transform="translate(-0.000000, -0.000000)">
                                <g id="编组-27" transform="translate(-0.000000, 40.768971)">
                                    <g id="编组-28">
                                        <g id="形状结合" transform="translate(33.859126, 18.657160) scale(-1, 1) rotate(-180.000000) translate(-33.859126, -18.657160) translate(0.000000, 0.000000)" fill="#904D1D" fill-rule="nonzero">
                                            <path d="M33.859126,37.3143202 C52.5590049,37.3143202 67.7182519,37.4698885 67.7182519,24.8760925 C67.7182519,12.2822965 52.5590049,-1.42108547e-15 33.859126,-1.42108547e-15 C15.1592471,-1.42108547e-15 0,12.2822965 0,24.8760925 C0,37.4698885 15.1592471,37.3143202 33.859126,37.3143202 Z" id="path-6"></path>
                                        </g>
                                        <g id="形状结合-Clipped" transform="translate(0.000000, 0.000000)">
                                            <mask id="mask-5" fill="white">
                                                <use xlink:href="#path-4"></use>
                                            </mask>
                                            <g id="path-6"></g>
                                            <path d="M49.0611825,37.3143203 C67.7610614,37.3143203 82.9203085,37.4353176 82.9203085,27.6401667 C82.9203085,17.8450159 67.7610614,8.29214184 49.0611825,8.29214184 C30.3613036,8.29214184 15.2020566,17.8450159 15.2020566,27.6401667 C15.2020566,37.4353176 30.3613036,37.3143203 49.0611825,37.3143203 Z" id="形状结合" fill="#D88D51" fill-rule="nonzero" mask="url(#mask-5)" transform="translate(49.061183, 22.803231) scale(-1, 1) rotate(-180.000000) translate(-49.061183, -22.803231) "></path>
                                        </g>
                                    </g>
                                    <path d="M33.859126,37.3143202 C52.5590049,37.3143202 67.7182519,37.4698885 67.7182519,24.8760925 C67.7182519,12.2822965 52.5590049,0 33.859126,0 C15.1592471,0 0,12.2822965 0,24.8760925 C0,37.4698885 15.1592471,37.3143202 33.859126,37.3143202 Z" id="形状结合" stroke="#38160C" stroke-width="5.376" stroke-linecap="round" stroke-linejoin="round" transform="translate(33.859126, 18.657160) scale(-1, 1) rotate(-180.000000) translate(-33.859126, -18.657160) "></path>
                                </g>
                                <g id="编组-25" transform="translate(4.837018, -0.000000)">
                                    <g id="编组-29" transform="translate(-0.000000, -0.000000)">
                                        <g id="椭圆形" fill="#FDCC9E" fill-rule="nonzero">
                                            <path d="M29.022108,57.3015679 C60.1817301,57.3015679 58.3081589,49.2329437 57.86116,30.4041131 C57.86116,14.5626995 38.0349522,0 29.022108,0 C20.0092637,0 0.18305591,12.1441905 0.18305591,30.4041131 C-0.26394294,46.5856118 -2.13751417,57.3015679 29.022108,57.3015679 Z" id="path-8"></path>
                                        </g>
                                        <g id="椭圆形-Clipped">
                                            <mask id="mask-7" fill="white">
                                                <use xlink:href="#path-6"></use>
                                            </mask>
                                            <g id="path-8"></g>
                                            <path d="M39.3871465,67.7182519 C70.5467687,67.7182519 68.6731974,58.1828562 68.2261986,35.9311877 C68.2261986,17.2100099 48.3999908,0 39.3871465,0 C30.3743023,0 10.5480945,14.3518472 10.5480945,35.9311877 C10.1010956,55.0542736 8.22752439,67.7182519 39.3871465,67.7182519 Z" id="椭圆形" fill="#FDE8CC" fill-rule="nonzero" mask="url(#mask-7)"></path>
                                        </g>
                                    </g>
                                    <g id="椭圆形" stroke-linecap="round" stroke-linejoin="round" transform="translate(0.000000, 0.000000)" stroke="#38160C" stroke-width="5.376">
                                        <path d="M29.022108,57.3015679 C60.1817301,57.3015679 58.3081589,49.2329436 57.8611601,30.4041131 C57.8611601,14.5626994 38.0349523,1.58206781e-15 29.022108,1.58206781e-15 C20.0092637,1.58206781e-15 0.18305591,12.1441904 0.18305591,30.4041131 C-0.26394294,46.5856118 -2.13751416,57.3015679 29.022108,57.3015679 Z" id="path-10"></path>
                                    </g>
                                </g>
                            </g>
                        </g>
                    </g>
                </g>
            </g>
            <g id="编组-26备份-6-Clipped">
                <mask id="mask-9" fill="white">
                    <use xlink:href="#path-8"></use>
                </mask>
                <g id="path-4"></g>
                <g id="编组-26备份-6" opacity="0.05" mask="url(#mask-9)">
                    <g transform="translate(768.120160, 126.153067)" id="松果">
                        <g transform="translate(50.954483, 54.396628) scale(-1, 1) rotate(150.000000) translate(-50.954483, -54.396628) translate(17.095357, 11.133388)">
                            <g id="编组" transform="translate(-0.000000, -0.000000)">
                                <path d="M28.421521,78.0832916 C28.421521,78.0832916 37.1796684,79.2952453 34.3139462,86.5264792" id="路径-27" stroke="#38160C" stroke-width="8.064" stroke-linecap="round" stroke-linejoin="round" transform="translate(31.655762, 82.304885) scale(-1, 1) rotate(-180.000000) translate(-31.655762, -82.304885) "></path>
                                <g id="编组-27" transform="translate(-0.000000, 40.768971)">
                                    <g id="编组-28">
                                        <g id="形状结合" transform="translate(33.859126, 18.657160) scale(-1, 1) rotate(-180.000000) translate(-33.859126, -18.657160) translate(0.000000, 0.000000)" fill="#904D1D" fill-rule="nonzero">
                                            <path d="M33.859126,37.3143202 C52.5590049,37.3143202 67.7182519,37.4698885 67.7182519,24.8760925 C67.7182519,12.2822965 52.5590049,-1.42108547e-15 33.859126,-1.42108547e-15 C15.1592471,-1.42108547e-15 0,12.2822965 0,24.8760925 C0,37.4698885 15.1592471,37.3143202 33.859126,37.3143202 Z" id="path-12"></path>
                                        </g>
                                        <g id="形状结合-Clipped" transform="translate(0.000000, 0.000000)">
                                            <mask id="mask-11" fill="white">
                                                <use xlink:href="#path-10"></use>
                                            </mask>
                                            <g id="path-12"></g>
                                            <path d="M49.0611825,37.3143203 C67.7610614,37.3143203 82.9203085,37.4353176 82.9203085,27.6401667 C82.9203085,17.8450159 67.7610614,8.29214184 49.0611825,8.29214184 C30.3613036,8.29214184 15.2020566,17.8450159 15.2020566,27.6401667 C15.2020566,37.4353176 30.3613036,37.3143203 49.0611825,37.3143203 Z" id="形状结合" fill="#D88D51" fill-rule="nonzero" mask="url(#mask-11)" transform="translate(49.061183, 22.803231) scale(-1, 1) rotate(-180.000000) translate(-49.061183, -22.803231) "></path>
                                        </g>
                                        <g id="形状结合-Clipped" transform="translate(0.000000, 0.000000)">
                                            <mask id="mask-13" fill="white">
                                                <use xlink:href="#path-12"></use>
                                            </mask>
                                            <g id="path-12"></g>
                                            <path d="M54.5781053,25.2532183 C55.2555187,26.6377696 55.0564507,28.58395 54.1334743,29.600134 C51.3750608,32.6371082 47.8435996,35.1855511 43.5399951,37.2717618 C42.4505751,37.7998679 41.2820338,36.9031753 40.9299851,35.2689427 C40.5779364,33.6347101 41.1756941,31.8817883 42.2651141,31.3536822 C46.1730135,29.4592931 49.3111217,27.1947093 51.6803432,24.58623 C52.6033195,23.5700461 53.9006918,23.8686669 54.5781053,25.2532183 Z M56.6622108,20.7300771 C57.8071013,20.7300771 58.7352185,21.785339 58.7352185,23.0870704 C58.7352185,24.3888018 57.8071013,25.4440637 56.6622108,25.4440637 C55.5173203,25.4440637 54.5892031,24.3888018 54.5892031,23.0870704 C54.5892031,21.785339 55.5173203,20.7300771 56.6622108,20.7300771 Z" id="形状结合" fill="#FFFFFF" fill-rule="nonzero" mask="url(#mask-13)"></path>
                                        </g>
                                    </g>
                                    <path d="M33.859126,37.3143202 C52.5590049,37.3143202 67.7182519,37.4698885 67.7182519,24.8760925 C67.7182519,12.2822965 52.5590049,0 33.859126,0 C15.1592471,0 0,12.2822965 0,24.8760925 C0,37.4698885 15.1592471,37.3143202 33.859126,37.3143202 Z" id="形状结合" stroke="#38160C" stroke-width="5.376" stroke-linecap="round" stroke-linejoin="round" transform="translate(33.859126, 18.657160) scale(-1, 1) rotate(-180.000000) translate(-33.859126, -18.657160) "></path>
                                </g>
                                <g id="编组-25" transform="translate(4.837018, -0.000000)">
                                    <g id="编组-29" transform="translate(-0.000000, -0.000000)">
                                        <g id="椭圆形" fill="#FDCC9E" fill-rule="nonzero">
                                            <path d="M29.022108,57.3015679 C60.1817301,57.3015679 58.3081589,49.2329437 57.86116,30.4041131 C57.86116,14.5626995 38.0349522,0 29.022108,0 C20.0092637,0 0.18305591,12.1441905 0.18305591,30.4041131 C-0.26394294,46.5856118 -2.13751417,57.3015679 29.022108,57.3015679 Z" id="path-14"></path>
                                        </g>
                                        <g id="椭圆形-Clipped">
                                            <mask id="mask-15" fill="white">
                                                <use xlink:href="#path-14"></use>
                                            </mask>
                                            <g id="path-14"></g>
                                            <path d="M39.3871465,67.7182519 C70.5467687,67.7182519 68.6731974,58.1828562 68.2261986,35.9311877 C68.2261986,17.2100099 48.3999908,0 39.3871465,0 C30.3743023,0 10.5480945,14.3518472 10.5480945,35.9311877 C10.1010956,55.0542736 8.22752439,67.7182519 39.3871465,67.7182519 Z" id="椭圆形" fill="#FDE8CC" fill-rule="nonzero" mask="url(#mask-15)"></path>
                                        </g>
                                    </g>
                                    <g id="椭圆形" stroke-linecap="round" stroke-linejoin="round" transform="translate(0.000000, 0.000000)" stroke="#38160C" stroke-width="5.376">
                                        <path d="M29.022108,57.3015679 C60.1817301,57.3015679 58.3081589,49.2329436 57.8611601,30.4041131 C57.8611601,14.5626994 38.0349523,1.58206781e-15 29.022108,1.58206781e-15 C20.0092637,1.58206781e-15 0.18305591,12.1441904 0.18305591,30.4041131 C-0.26394294,46.5856118 -2.13751416,57.3015679 29.022108,57.3015679 Z" id="path-16"></path>
                                    </g>
                                </g>
                            </g>
                        </g>
                    </g>
                </g>
            </g>
            <g id="编组-26备份-5-Clipped">
                <mask id="mask-17" fill="white">
                    <use xlink:href="#path-16"></use>
                </mask>
                <g id="path-4"></g>
                <g id="编组-26备份-5" mask="url(#mask-17)">
                    <g transform="translate(609.234013, 145.904297)" id="松果">
                        <g transform="translate(16.998946, 15.923276) scale(-1, 1) rotate(120.000000) translate(-16.998946, -15.923276) translate(6.417970, 2.403513)">
                            <g id="编组" transform="translate(0.000000, 0.000000)">
                                <path d="M8.88172536,24.4010293 C8.88172536,24.4010293 11.6186464,24.7797648 10.7231083,27.0395254" id="路径-27" stroke="#38160C" stroke-width="2.52" stroke-linecap="round" stroke-linejoin="round" transform="translate(9.892426, 25.720277) scale(-1, 1) rotate(-180.000000) translate(-9.892426, -25.720277) "></path>
                                <g id="编组-27" transform="translate(-0.000000, 12.740304)">
                                    <g id="编组-28">
                                        <g id="形状结合" transform="translate(10.580977, 5.830363) scale(-1, 1) rotate(-180.000000) translate(-10.580977, -5.830363) translate(0.000000, 0.000001)" fill="#904D1D" fill-rule="nonzero">
                                            <path d="M10.5809769,11.660725 C16.424689,11.660725 21.1619537,11.7093402 21.1619537,7.77377892 C21.1619537,3.83821767 16.424689,-5.99749647e-25 10.5809769,-5.99749647e-25 C4.7372647,-5.99749647e-25 0,3.83821767 0,7.77377892 C0,11.7093402 4.7372647,11.660725 10.5809769,11.660725 Z" id="path-18"></path>
                                        </g>
                                        <g id="形状结合-Clipped">
                                            <mask id="mask-19" fill="white">
                                                <use xlink:href="#path-18"></use>
                                            </mask>
                                            <g id="path-18"></g>
                                            <path d="M15.3316195,11.6607257 C21.1753317,11.6607257 25.9125964,11.6985374 25.9125964,8.63755277 C25.9125964,5.57656813 21.1753317,2.59129498 15.3316195,2.59129498 C9.48790738,2.59129498 4.75064267,5.57656813 4.75064267,8.63755277 C4.75064267,11.6985374 9.48790738,11.6607257 15.3316195,11.6607257 Z" id="形状结合" fill="#D88D51" fill-rule="nonzero" mask="url(#mask-19)" transform="translate(15.331620, 7.126010) scale(-1, 1) rotate(-180.000000) translate(-15.331620, -7.126010) "></path>
                                        </g>
                                        <g id="形状结合-Clipped">
                                            <mask id="mask-21" fill="white">
                                                <use xlink:href="#path-20"></use>
                                            </mask>
                                            <g id="path-18"></g>
                                            <path d="M17.0556579,7.89163071 C17.2673496,8.324303 17.2051408,8.93248439 16.9167107,9.25004186 C16.0547065,10.1990963 14.9511249,10.9954847 13.6062485,11.6474256 C13.2658047,11.8124587 12.9006355,11.5322423 12.7906203,11.0215446 C12.6806051,10.5108469 12.8674044,9.96305884 13.2078482,9.79802568 C14.4290667,9.20602908 15.4097255,8.49834667 16.1501072,7.68319689 C16.4385373,7.36563942 16.8439662,7.45895842 17.0556579,7.89163071 Z M17.7069409,6.4781491 C18.0647192,6.4781491 18.3547558,6.80791842 18.3547558,7.2147095 C18.3547558,7.62150057 18.0647192,7.95126989 17.7069409,7.95126989 C17.3491626,7.95126989 17.059126,7.62150057 17.059126,7.2147095 C17.059126,6.80791842 17.3491626,6.4781491 17.7069409,6.4781491 Z" id="形状结合" fill="#FFFFFF" fill-rule="nonzero" mask="url(#mask-21)"></path>
                                        </g>
                                    </g>
                                    <path d="M10.5809769,11.660726 C16.424689,11.660726 21.1619537,11.7093412 21.1619537,7.77377991 C21.1619537,3.83821866 16.424689,9.91903251e-07 10.5809769,9.91903251e-07 C4.7372647,9.91903251e-07 0,3.83821866 0,7.77377991 C0,11.7093412 4.7372647,11.660726 10.5809769,11.660726 Z" id="形状结合" stroke="#38160C" stroke-width="1.68" stroke-linecap="round" stroke-linejoin="round" transform="translate(10.580977, 5.830363) scale(-1, 1) rotate(-180.000000) translate(-10.580977, -5.830363) "></path>
                                </g>
                                <g id="编组-25" transform="translate(1.511568, 0.000000)">
                                    <g id="编组-29" transform="translate(-0.000000, -0.000000)">
                                        <g id="椭圆形" fill="#FDCC9E" fill-rule="nonzero">
                                            <path d="M9.06940874,17.90674 C18.8067907,17.90674 18.2212996,15.3852949 18.0816125,9.50128535 C18.0816125,4.55084358 11.8859226,0 9.06940874,0 C6.25289491,0 0.057204972,3.79505952 0.057204972,9.50128535 C-0.0824821688,14.5580037 -0.667973177,17.90674 9.06940874,17.90674 Z" id="path-20"></path>
                                        </g>
                                        <g id="椭圆形-Clipped">
                                            <mask id="mask-23" fill="white">
                                                <use xlink:href="#path-22"></use>
                                            </mask>
                                            <g id="path-20"></g>
                                            <path d="M12.3084833,21.1619537 C22.0458652,21.1619537 21.4603742,18.1821425 21.3206871,11.2284962 C21.3206871,5.37812809 15.1249971,0 12.3084833,0 C9.49196946,0 3.29627952,4.48495226 3.29627952,11.2284962 C3.15659238,17.2044605 2.57110137,21.1619537 12.3084833,21.1619537 Z" id="椭圆形" fill="#FDE8CC" fill-rule="nonzero" mask="url(#mask-23)"></path>
                                        </g>
                                    </g>
                                    <g id="椭圆形" stroke-linecap="round" stroke-linejoin="round" transform="translate(0.000000, 0.000000)" stroke="#38160C" stroke-width="1.68">
                                        <path d="M9.06940874,17.90674 C18.8067907,17.90674 18.2212997,15.3852949 18.0816125,9.50128535 C18.0816125,4.55084358 11.8859226,-2.81025203e-16 9.06940874,-2.81025203e-16 C6.2528949,-2.81025203e-16 0.0572049719,3.79505952 0.0572049719,9.50128535 C-0.0824821689,14.5580037 -0.667973177,17.90674 9.06940874,17.90674 Z" id="path-22"></path>
                                    </g>
                                </g>
                            </g>
                        </g>
                    </g>
                </g>
            </g>
            <g id="编组-26备份-4-Clipped">
                <mask id="mask-25" fill="white">
                    <use xlink:href="#path-24"></use>
                </mask>
                <g id="path-4"></g>
                <g id="编组-26备份-4" opacity="0.05" mask="url(#mask-25)">
                    <g transform="translate(735.867020, -97.878093)" id="松果">
                        <g transform="translate(129.798708, 129.798708) scale(-1, 1) rotate(-135.000000) translate(-129.798708, -129.798708) translate(44.541916, 31.492407)">
                            <g id="编组" transform="translate(0.000000, 0.000000)">
                                <g id="编组-27" transform="translate(-0.000000, 102.655680)">
                                    <g id="编组-28">
                                        <g id="形状结合" transform="translate(85.256792, 46.978461) scale(-1, 1) rotate(-180.000000) translate(-85.256792, -46.978461) translate(0.000000, 0.000001)" fill="#904D1D" fill-rule="nonzero">
                                            <path d="M85.256792,93.9569212 C132.342818,93.9569212 170.513584,94.3486402 170.513584,62.6376431 C170.513584,30.926646 132.342818,1.52020044e-23 85.256792,1.52020044e-23 C38.170766,1.52020044e-23 0,30.926646 0,62.6376431 C0,94.3486402 38.170766,93.9569212 85.256792,93.9569212 Z" id="path-24"></path>
                                        </g>
                                        <g id="形状结合-Clipped">
                                            <mask id="mask-27" fill="white">
                                                <use xlink:href="#path-26"></use>
                                            </mask>
                                            <g id="path-24"></g>
                                            <path d="M123.535352,93.9569205 C170.621378,93.9569205 208.792144,94.2615901 208.792144,69.5975412 C208.792144,44.9334923 170.621378,20.8794928 123.535352,20.8794928 C76.4493256,20.8794928 38.2785597,44.9334923 38.2785597,69.5975412 C38.2785597,94.2615901 76.4493256,93.9569205 123.535352,93.9569205 Z" id="形状结合" fill="#D88D51" fill-rule="nonzero" mask="url(#mask-27)" transform="translate(123.535352, 57.418207) scale(-1, 1) rotate(-180.000000) translate(-123.535352, -57.418207) "></path>
                                        </g>
                                    </g>
                                    <path d="M85.256792,93.956922 C132.342818,93.956922 170.513584,94.348641 170.513584,62.6376439 C170.513584,30.9266468 132.342818,8.0688271e-07 85.256792,8.0688271e-07 C38.170766,8.0688271e-07 0,30.9266468 0,62.6376439 C0,94.348641 38.170766,93.956922 85.256792,93.956922 Z" id="形状结合" stroke="#38160C" stroke-width="8.4" stroke-linecap="round" stroke-linejoin="round" transform="translate(85.256792, 46.978461) scale(-1, 1) rotate(-180.000000) translate(-85.256792, -46.978461) "></path>
                                </g>
                                <g id="编组-25" transform="translate(12.179542, 0.000000)">
                                    <g id="编组-29" transform="translate(-0.000000, 0.000000)">
                                        <g id="椭圆形" fill="#FDCC9E" fill-rule="nonzero">
                                            <path d="M73.0772503,144.284523 C151.53673,144.284523 146.819105,123.967844 145.693568,76.5571193 C145.693568,36.6686677 95.7714625,0 73.0772503,0 C50.3830381,0 0.460932148,30.5788968 0.460932148,76.5571193 C-0.664604526,117.3019 -5.38222991,144.284523 73.0772503,144.284523 Z" id="path-26"></path>
                                        </g>
                                        <g id="椭圆形-Clipped">
                                            <mask id="mask-29" fill="white">
                                                <use xlink:href="#path-28"></use>
                                            </mask>
                                            <g id="path-26"></g>
                                            <path d="M99.1762682,170.513584 C177.635748,170.513584 172.918123,146.503595 171.792586,90.4742136 C171.792586,43.3345573 121.87048,0 99.1762682,0 C76.4820561,0 26.5599501,36.1377448 26.5599501,90.4742136 C25.4344134,138.625869 20.716788,170.513584 99.1762682,170.513584 Z" id="椭圆形" fill="#FDE8CC" fill-rule="nonzero" mask="url(#mask-29)"></path>
                                        </g>
                                    </g>
                                    <g id="椭圆形" stroke-linecap="round" stroke-linejoin="round" transform="translate(0.000000, 0.000000)" stroke="#38160C" stroke-width="8.4">
                                        <path d="M73.0772503,144.284523 C151.536731,144.284523 146.819105,123.967843 145.693569,76.5571194 C145.693569,36.6686677 95.7714625,-1.83186799e-15 73.0772503,-1.83186799e-15 C50.3830381,-1.83186799e-15 0.460932148,30.5788969 0.460932148,76.5571194 C-0.664604526,117.3019 -5.38222991,144.284523 73.0772503,144.284523 Z" id="path-28"></path>
                                    </g>
                                </g>
                            </g>
                        </g>
                    </g>
                </g>
            </g>
            <g id="编组-26备份-4-Clipped">
                <mask id="mask-31" fill="white">
                    <use xlink:href="#path-30"></use>
                </mask>
                <g id="path-4"></g>
                <g id="编组-26备份-4" opacity="0.05" mask="url(#mask-31)">
                    <g transform="translate(-24.261264, 80.396824)" id="松果">
                        <g transform="translate(128.302655, 136.969924) scale(-1, 1) rotate(150.000000) translate(-128.302655, -136.969924) translate(43.045863, 28.033711)">
                            <g id="编组" transform="translate(0.000000, 0.000000)">
                                <path d="M71.5649805,196.612602 C71.5649805,196.612602 93.6178697,199.664284 86.4020226,217.872427" id="路径-27" stroke="#38160C" stroke-width="12.6" stroke-linecap="round" stroke-linejoin="round" transform="translate(79.708754, 207.242515) scale(-1, 1) rotate(-180.000000) translate(-79.708754, -207.242515) "></path>
                                <g id="编组-27" transform="translate(-0.000000, 102.655680)">
                                    <g id="编组-28">
                                        <g id="形状结合" transform="translate(85.256792, 46.978461) scale(-1, 1) rotate(-180.000000) translate(-85.256792, -46.978461) translate(0.000000, 0.000001)" fill="#904D1D" fill-rule="nonzero">
                                            <path d="M85.256792,93.9569212 C132.342818,93.9569212 170.513584,94.3486402 170.513584,62.6376431 C170.513584,30.926646 132.342818,-8.78797359e-24 85.256792,-8.78797359e-24 C38.170766,-8.78797359e-24 0,30.926646 0,62.6376431 C0,94.3486402 38.170766,93.9569212 85.256792,93.9569212 Z" id="path-30"></path>
                                        </g>
                                        <g id="形状结合-Clipped">
                                            <mask id="mask-33" fill="white">
                                                <use xlink:href="#path-32"></use>
                                            </mask>
                                            <g id="path-30"></g>
                                            <path d="M123.535352,93.9569205 C170.621378,93.9569205 208.792144,94.2615901 208.792144,69.5975412 C208.792144,44.9334923 170.621378,20.8794928 123.535352,20.8794928 C76.4493256,20.8794928 38.2785597,44.9334923 38.2785597,69.5975412 C38.2785597,94.2615901 76.4493256,93.9569205 123.535352,93.9569205 Z" id="形状结合" fill="#D88D51" fill-rule="nonzero" mask="url(#mask-33)" transform="translate(123.535352, 57.418207) scale(-1, 1) rotate(-180.000000) translate(-123.535352, -57.418207) "></path>
                                        </g>
                                    </g>
                                    <path d="M85.256792,93.956922 C132.342818,93.956922 170.513584,94.348641 170.513584,62.6376439 C170.513584,30.9266468 132.342818,8.06882781e-07 85.256792,8.06882781e-07 C38.170766,8.06882781e-07 0,30.9266468 0,62.6376439 C0,94.348641 38.170766,93.956922 85.256792,93.956922 Z" id="形状结合" stroke="#38160C" stroke-width="8.4" stroke-linecap="round" stroke-linejoin="round" transform="translate(85.256792, 46.978461) scale(-1, 1) rotate(-180.000000) translate(-85.256792, -46.978461) "></path>
                                </g>
                                <g id="编组-25" transform="translate(12.179542, 0.000000)">
                                    <g id="编组-29" transform="translate(-0.000000, 0.000000)">
                                        <g id="椭圆形" fill="#FDCC9E" fill-rule="nonzero">
                                            <path d="M73.0772503,144.284523 C151.53673,144.284523 146.819105,123.967844 145.693568,76.5571193 C145.693568,36.6686677 95.7714625,0 73.0772503,0 C50.3830381,0 0.460932148,30.5788968 0.460932148,76.5571193 C-0.664604526,117.3019 -5.38222991,144.284523 73.0772503,144.284523 Z" id="path-32"></path>
                                        </g>
                                        <g id="椭圆形-Clipped">
                                            <mask id="mask-35" fill="white">
                                                <use xlink:href="#path-34"></use>
                                            </mask>
                                            <g id="path-32"></g>
                                            <path d="M99.1762682,170.513584 C177.635748,170.513584 172.918123,146.503595 171.792586,90.4742136 C171.792586,43.3345573 121.87048,0 99.1762682,0 C76.4820561,0 26.5599501,36.1377448 26.5599501,90.4742136 C25.4344134,138.625869 20.716788,170.513584 99.1762682,170.513584 Z" id="椭圆形" fill="#FDE8CC" fill-rule="nonzero" mask="url(#mask-35)"></path>
                                        </g>
                                    </g>
                                    <g id="椭圆形" stroke-linecap="round" stroke-linejoin="round" transform="translate(0.000000, 0.000000)" stroke="#38160C" stroke-width="8.4">
                                        <path d="M73.0772503,144.284523 C151.536731,144.284523 146.819105,123.967843 145.693569,76.5571194 C145.693569,36.6686677 95.7714625,-1.83186799e-15 73.0772503,-1.83186799e-15 C50.3830381,-1.83186799e-15 0.460932148,30.5788969 0.460932148,76.5571194 C-0.664604526,117.3019 -5.38222991,144.284523 73.0772503,144.284523 Z" id="path-34"></path>
                                    </g>
                                </g>
                            </g>
                        </g>
                    </g>
                </g>
            </g>
            <g id="编组-13-Clipped">
                <mask id="mask-37" fill="white">
                    <use xlink:href="#path-36"></use>
                </mask>
                <g id="path-4"></g>
                <g id="编组-13" mask="url(#mask-37)">
                    <g transform="translate(630.219310, 41.299950)" id="编组">
                        <g transform="translate(66.548117, 65.111913) scale(-1, 1) translate(-66.548117, -65.111913) ">
                            <g id="尾巴" transform="translate(0.000000, 3.026328)">
                                <g id="编组-30" transform="translate(0.000000, -0.000000)">
                                    <g id="形状结合" fill="#E5B97E" fill-rule="nonzero">
                                        <path d="M32.2467866,1.98951953e-15 C50.0561951,1.98951953e-15 64.4935733,14.4373781 64.4935733,32.2467866 C64.4935733,40.4734751 61.412944,47.980644 56.3423513,53.6776275 C74.4202122,55.8692551 88.4267352,71.2680799 88.4267352,89.9383033 C88.4267352,110.113024 72.0718928,126.467866 51.8971722,126.467866 C31.7224517,126.467866 15.3676093,110.113024 15.3676093,89.9383033 C15.3676093,84.2834478 16.6525241,78.9287003 18.9463181,74.1500962 C20.4510736,70.8329517 21.7341156,67.1613909 22.7971486,63.137369 C22.8015425,63.1207364 22.8059795,63.1042835 22.8104594,63.0880093 C9.60468409,59.0555481 -2.69229083e-15,46.7728145 -2.69229083e-15,32.2467866 C-2.69229083e-15,14.4373781 14.4373782,1.98951953e-15 32.2467866,1.98951953e-15 Z" id="path-36"></path>
                                    </g>
                                    <g id="路径-3-Clipped">
                                        <mask id="mask-39" fill="white">
                                            <use xlink:href="#path-38"></use>
                                        </mask>
                                        <g id="path-36"></g>
                                        <path d="M22.7237106,65.2680551 C3.64753722,59.0037201 -3.86077067,47.0912643 0.198786953,29.5306877 C6.28812339,3.1898227 30.2286588,8.35980171 46.0774899,11.0444097 C61.926321,13.7290176 71.937259,31.8333907 53.9125964,65.440195 C35.8879338,99.0469993 31.1426334,119.428643 67.0128535,126.634178 L51.28605,126.634178 C37.6287958,125.824597 27.2872818,120.471455 20.2615079,110.574751 C13.235734,100.678047 14.0564683,85.5758154 22.7237106,65.2680551 Z" id="路径-3" fill="#FCE7CB" fill-rule="nonzero" mask="url(#mask-39)"></path>
                                    </g>
                                    <g id="路径-7-Clipped">
                                        <mask id="mask-41" fill="white">
                                            <use xlink:href="#path-40"></use>
                                        </mask>
                                        <g id="path-36"></g>
                                        <path d="M36.7541557,98.4652919 C24.7652864,92.54117 18.7708518,84.3904744 18.7708518,74.0132049 L27.4975881,51.3933162 C27.4975881,41.3909865 26.6179658,35.00881 24.8587213,32.2467866 C22.2198546,28.1037516 12.0221823,30.3788932 11.1611002,35.5811009 C10.3000181,40.7833086 6.51962163,39.7416452 5.35002611,37.285347 C4.18043059,34.8290488 3.09054667,24.4074684 4.22028639,19.1002772 C4.9734462,15.5621496 3.56668407,17.0697814 -2.69229083e-15,23.6231724 C-0.338856309,33.0671929 0.468100632,39.8886033 2.42087082,44.0874036 C5.35002611,50.3856041 15.3870532,60.966581 18.8034539,61.470437 C21.0810544,61.806341 17.6769495,70.8499558 8.59113914,88.6012813 C14.1300353,112.502055 26.4611631,125.96401 45.5845224,128.987147 L53.9125964,128.180149 C43.7108502,121.664163 38.3006735,116.894602 37.6820664,113.871465 C37.0634593,110.848329 36.7541557,105.712938 36.7541557,98.4652919 Z" id="路径-7" fill="#FDCC9E" fill-rule="nonzero" mask="url(#mask-41)"></path>
                                    </g>
                                    <g id="路径-6-Clipped">
                                        <mask id="mask-43" fill="white">
                                            <use xlink:href="#path-42"></use>
                                        </mask>
                                        <g id="path-36"></g>
                                        <path d="M56.0569369,128.562018 C36.1139474,124.255623 25.0291145,115.494236 22.8024382,102.277856 C19.4624237,82.4532857 27.4975881,71.5475578 32.2467866,61.722365 C36.9959852,51.8971722 41.6911351,31.9023538 32.2467866,23.6812339 C22.8024382,15.4601141 10.1302619,18.7535099 6.56882632,31.3453567 C4.19453594,39.7399212 5.62114396,47.9341425 10.8486504,55.9280206 C1.62834726,49.9591635 -2.28397375,41.7649422 -0.888312649,31.3453567 C1.20517901,15.7159785 16.0262921,1.52731362 34.8854663,4.72955495 C53.7446404,7.93179627 59.9736303,17.8199711 62.2311416,24.5246023 C63.7361491,28.9943565 61.6780808,63.6734951 56.0569369,128.562018 Z" id="路径-6" fill="#D88D51" fill-rule="nonzero" mask="url(#mask-43)"></path>
                                    </g>
                                    <g id="形状结合-Clipped">
                                        <mask id="mask-45" fill="white">
                                            <use xlink:href="#path-44"></use>
                                        </mask>
                                        <g id="path-36"></g>
                                        <path d="M22.4573086,86.7392022 C25.4277735,91.3146899 30.1933892,95.2233864 36.7541557,98.4652919 C36.7541557,105.712938 37.0634593,110.848329 37.6820664,113.871465 C38.3006735,116.894602 43.7108502,121.664163 53.9125964,128.180149 L53.6438219,128.008698 C35.2180966,123.528212 24.9376354,114.951264 22.8024382,102.277856 C21.8327565,96.5223355 21.8218569,91.5185594 22.410974,87.0747204 L22.4573086,86.7392022 Z M4.41626397,17.778121 C4.40760949,18.0864506 4.34228363,18.5271693 4.22028639,19.1002772 C3.09054667,24.4074684 4.18043059,34.8290488 5.35002611,37.285347 C5.39700986,37.3840189 5.44820667,37.4804079 5.50325806,37.574201 C5.17141976,43.2594407 6.62618397,48.8510872 9.86680309,54.3486023 C6.76442647,50.9803032 3.80224625,47.0576044 2.42087082,44.0874036 C0.736865611,40.4664954 -0.0950241727,34.8952113 -0.074798528,27.3735513 C0.82597785,24.1004327 2.27920963,20.9564061 4.1976695,18.0985641 L4.41626397,17.778121 Z" id="形状结合" fill="#C06339" fill-rule="nonzero" mask="url(#mask-45)"></path>
                                    </g>
                                </g>
                                <path d="M23.687139,30.9162916 C29.2170903,36.6758648 28.7279956,48.1264526 22.2198551,65.268055" id="路径-4" stroke="#39160D" stroke-width="2.94" stroke-linecap="round" stroke-linejoin="round"></path>
                                <g id="形状结合" stroke-linejoin="round" transform="translate(0.595544, 0.593722)" stroke="#39160D" stroke-width="2.94">
                                    <path d="M32.34,-5.21804822e-15 C50.2008888,-5.21804822e-15 64.68,14.4791111 64.68,32.34 C64.68,40.3501386 61.767836,47.6801048 56.9444975,53.3289092 C74.6347547,55.9800921 88.2,71.2408796 88.2,89.67 C88.2,109.966464 71.7464646,126.42 51.45,126.42 C31.1535354,126.42 14.7,109.966464 14.7,89.67 C14.7,82.1885095 16.9356031,75.2291721 20.7752135,69.4235834 C21.4889362,67.4004804 22.1365394,65.2706708 22.7192179,63.0354573 L22.6724372,63.2102622 C9.5339725,59.0999402 3.10862447e-15,46.8333594 3.10862447e-15,32.34 C3.10862447e-15,14.4791111 14.4791112,-5.21804822e-15 32.34,-5.21804822e-15 Z" id="path-38"></path>
                                </g>
                            </g>
                            <g id="身子2" transform="translate(65.574345, 93.780050)">
                                <g id="编组-32" transform="translate(9.500206, 1.451934)">
                                    <g id="形状结合" fill="#C06339" fill-rule="nonzero">
                                        <path d="M-4.97379952e-16,34.2622108 L-4.97379952e-16,25.6966581 L2.29192409,25.6968088 C0.834269161,23.1770173 -4.97379952e-16,20.2514883 -4.97379952e-16,17.1311054 C-4.97379952e-16,7.66985714 7.66985714,8.52650884e-16 17.1311054,8.52650884e-16 C26.5923537,8.52650884e-16 34.2622108,7.66985714 34.2622108,17.1311054 C34.2622108,20.0456049 33.5344002,22.7901151 32.2506137,25.1928014 L36.5547558,25.1928426 C41.9668127,25.1928426 46.3542149,29.5799112 46.3547557,34.9918419 L17.1311054,34.9912982 L17.1311054,34.2622108 L17.1311054,34.2622108 L-4.97379952e-16,34.2622108 Z" id="path-40"></path>
                                    </g>
                                    <g id="路径-25-Clipped">
                                        <mask id="mask-47" fill="white">
                                            <use xlink:href="#path-46"></use>
                                        </mask>
                                        <g id="path-40"></g>
                                        <path d="M24.0160444,11.0848329 C30.1311808,14.3454638 33.188749,17.5119497 33.188749,20.5842906 C33.188749,25.1928021 35.2542678,8.70435088 27.7639544,4.45253254 C22.7704122,1.61798697 21.5211088,3.82875376 24.0160444,11.0848329 Z" id="路径-25" fill="#D88D51" fill-rule="nonzero" mask="url(#mask-47)"></path>
                                    </g>
                                </g>
                                <path d="M25.743,36.259 L25.6324165,36.26 C25.5953316,36.26 25.5582727,36.26 25.5212401,36.26 L1.38777878e-15,36.26 L1.38777878e-15,27.44 L10.0721805,27.4399833 C8.440475,24.7186919 7.50241646,21.5338936 7.50241646,18.13 C7.50241646,8.11707749 15.619494,1.66533454e-15 25.6324165,1.66533454e-15 C35.645339,1.66533454e-15 43.7624165,8.11707749 43.7624165,18.13 C43.7624165,21.1334765 43.0320742,23.9663725 41.7392956,26.4607817 L46.0549615,26.4605444 C51.4670184,26.4605444 55.8549614,30.847613 55.8549614,36.2595436 L25.743,36.259 Z" id="形状结合" stroke="#37160B" stroke-width="2.94" stroke-linejoin="round"></path>
                            </g>
                            <g id="编组-21" transform="translate(35.773780, 65.000621)">
                                <g id="编组-31" transform="translate(0.000000, 0.000000)">
                                    <g id="形状结合" fill="#C06339" fill-rule="nonzero">
                                        <path d="M13.9298482,-2.27373677e-15 L43.9977568,5.23802552 C44.7811334,5.33686627 45.5533042,5.47167931 46.3125621,5.64075773 L47.8663239,5.91292778 C47.8353577,5.94678628 47.8044067,5.98062329 47.7734711,6.01443881 C58.3019039,9.03377247 66.0051414,18.7329737 66.0051414,30.2313625 C66.0051414,43.8891538 55.1368755,55.0085255 41.5770414,55.4127802 L41.531759,55.4692915 C46.4999015,55.9452287 50.3850952,60.130445 50.3856041,65.2232043 L24.1850415,65.2232043 L24.1857646,64.4720314 C23.8514217,64.4863439 23.515244,64.4935733 23.1773779,64.4935733 C22.8152581,64.4935733 22.455078,64.4852687 22.0970176,64.4688397 C21.7875682,64.4851365 21.4757462,64.4935733 21.1619537,64.4935733 C16.9755482,64.4935733 13.1398754,62.9919085 10.1641986,60.4978426 C4.02939726,56.3281502 0,49.2927309 0,41.3161954 C0,37.4094144 0.96660628,33.7283964 2.67370973,30.4992505 C4.74877669,25.5130274 7.99948449,21.1174132 10.3871104,15.6652976 C13.1860569,9.27393624 14.3669695,4.05217036 13.9298482,-2.27373677e-15 L13.9298482,-2.27373677e-15 Z" id="path-42"></path>
                                    </g>
                                    <g id="路径-26-Clipped">
                                        <mask id="mask-49" fill="white">
                                            <use xlink:href="#path-48"></use>
                                        </mask>
                                        <g id="path-42"></g>
                                        <path d="M36.4093933,50.0930822 C31.7704485,48.2726727 27.1918247,47.3624679 22.6735219,47.3624679 C15.8960676,47.3624679 10.6043491,53.0628314 7.55784062,50.9573626 C4.51133214,48.8518939 2.01542416,43.7589857 4.53470437,28.4296213 C11.5875421,16.176552 14.7783437,9.12185962 14.107109,7.26554427 C13.4358744,5.40922893 13.6041131,3.13826157 14.6118252,0.452642209 L39.0566947,10.5273437 L33.7782827,37.0063564 L36.4093933,50.0930822 Z" id="路径-26" fill="#D88D51" fill-rule="nonzero" mask="url(#mask-49)"></path>
                                    </g>
                                    <g id="形状结合-Clipped">
                                        <mask id="mask-51" fill="white">
                                            <use xlink:href="#path-50"></use>
                                        </mask>
                                        <g id="path-42"></g>
                                        <path d="M22.6735219,32.7506427 C32.1347701,32.7506427 39.8046272,40.4204998 39.8046272,49.8817481 C39.8046272,52.3966892 39.2626937,54.7850549 38.289235,56.9364368 L34.8937071,56.9364368 C36.0943249,54.8611585 36.781491,52.4517014 36.781491,49.8817481 C36.781491,42.0901319 30.4651381,35.7737789 22.6735219,35.7737789 C20.5079579,35.7737789 18.456355,36.2617042 16.6226509,37.133617 L16.6154357,37.1228219 C16.4611902,37.1758968 16.2956569,37.2047129 16.1233933,37.2047129 C15.2885773,37.2047129 14.6118252,36.5279608 14.6118252,35.6931447 C14.6118252,35.0353097 15.0320503,34.4756235 15.6187045,34.2678823 L15.6197138,34.2656364 C17.7708668,33.2924283 20.1589239,32.7506427 22.6735219,32.7506427 Z" id="形状结合" fill="#E5B97F" fill-rule="nonzero" mask="url(#mask-51)"></path>
                                    </g>
                                    <g id="路径-15-Clipped">
                                        <mask id="mask-53" fill="white">
                                            <use xlink:href="#path-52"></use>
                                        </mask>
                                        <g id="path-42"></g>
                                        <path d="M36.781491,10.5273438 C41.1482434,15.5186677 39.172619,23.7810621 30.8546179,35.3145269 C36.7416912,40.9951594 38.2134595,47.6983719 35.2699229,55.4241645 C54.4164524,56.9357326 64.6615253,47.7823479 66.0051414,27.9640103 L65.4964225,9.57326478 L36.781491,10.5273438 Z" id="路径-15" fill="#FDE8CC" fill-rule="nonzero" mask="url(#mask-53)"></path>
                                    </g>
                                    <g id="路径-18-Clipped">
                                        <mask id="mask-55" fill="white">
                                            <use xlink:href="#path-54"></use>
                                        </mask>
                                        <g id="path-42"></g>
                                        <path d="M25.6966581,26.025446 C32.30288,35.1069248 39.1889125,38.9302599 46.3547558,37.4954511 C57.1035206,35.3432379 60.205934,33.4879285 65.5012853,37.4954511 C69.0315195,40.1671328 70.9187915,36.183808 71.1631012,25.5454767 L63.9897172,9.57326478 L37.4189378,11.2560652 C35.9067136,14.2500539 36.5339914,16.3763527 39.3007712,17.6349614 C42.067551,18.8935702 37.5328466,21.6903984 25.6966581,26.025446 Z" id="路径-18" fill="#FDCC9E" fill-rule="nonzero" mask="url(#mask-55)"></path>
                                    </g>
                                    <g id="路径-19-Clipped">
                                        <mask id="mask-57" fill="white">
                                            <use xlink:href="#path-56"></use>
                                        </mask>
                                        <g id="path-42"></g>
                                        <path d="M64.8291493,35.3145269 C55.6405918,44.0182956 46.4593164,48.3701799 37.2853228,48.3701799 L35.2699229,54.4164524 C44.3035762,55.1620675 50.4338247,54.3407592 53.6606684,51.9525275 C56.8875121,49.5642958 60.610339,44.0182956 64.8291493,35.3145269 Z" id="路径-19" fill="#FDCC9E" fill-rule="nonzero" mask="url(#mask-57)"></path>
                                    </g>
                                </g>
                                <g id="形状结合" stroke-linejoin="round" transform="translate(0.294756, 0.000000)" stroke="#37160B" stroke-width="2.94">
                                    <path d="M13.6350924,0 L43.703001,5.23802552 C44.4863776,5.33686627 45.2585484,5.47167931 46.0178063,5.64075773 L47.5715681,5.91292778 C47.5406019,5.94678628 47.5096509,5.98062329 47.4787153,6.01443881 C58.0071481,9.03377247 65.7103856,18.7329737 65.7103856,30.2313625 C65.7103856,43.4601688 55.514132,54.3075125 42.5517906,55.3432279 C42.5031375,55.4087303 42.4545565,55.4747746 42.4056399,55.5405547 C46.6482896,56.6170308 49.7870087,60.4616863 49.7870087,65.0394288 L24.3070087,65.0394288 L24.307386,65.0264972 C24.0459809,65.0350958 23.7834965,65.0394288 23.52,65.0394288 C20.6854671,65.0394288 17.9680471,64.5380091 15.4516008,63.6190304 C14.2918407,63.2337453 13.1877054,62.7272224 12.1535023,62.1150461 C4.90685907,58.1076094 -2.99760217e-15,50.3865483 -2.99760217e-15,41.5194288 C-2.99760217e-15,39.1812761 0.341180511,36.9228104 0.976472696,34.7911005 L0.991525926,34.7242296 C2.62551743,27.8216735 7.0565741,22.5974665 10.0923546,15.6652976 C12.8913011,9.27393624 14.0722137,4.05217036 13.6350924,0 L13.6350924,0 Z" id="path-44"></path>
                                </g>
                                <g id="形状结合-Clipped" transform="translate(0.294756, 0.000000)">
                                    <mask id="mask-59" fill="white">
                                        <use xlink:href="#path-58"></use>
                                    </mask>
                                    <g id="path-44"></g>
                                    <path d="M20.8671979,30.2313625 C30.3284462,30.2313625 37.9983033,37.9012196 37.9983033,47.3624679 C37.9983033,49.877409 37.4563698,52.2657747 36.4829111,54.4171566 L33.0873832,54.4171566 C34.2880009,52.3418783 34.9751671,49.9324212 34.9751671,47.3624679 C34.9751671,39.5708517 28.6588141,33.2544987 20.8671979,33.2544987 C18.701634,33.2544987 16.650031,33.742424 14.816327,34.6143368 L14.8091118,34.6035417 C14.6548663,34.6566165 14.489333,34.6854326 14.3170694,34.6854326 C13.4822534,34.6854326 12.8055013,34.0086805 12.8055013,33.1738645 C12.8055013,32.5160295 13.2257264,31.9563433 13.8123806,31.7486021 L13.8133899,31.7463562 C15.9645429,30.7731481 18.3526,30.2313625 20.8671979,30.2313625 Z" id="形状结合" fill="#37160B" fill-rule="nonzero" mask="url(#mask-59)"></path>
                                </g>
                            </g>
                            <g id="耳朵" transform="translate(86.755812, 14.070737) scale(-1, 1) rotate(10.000000) translate(-86.755812, -14.070737) translate(76.998766, 1.503367)" fill-rule="nonzero">
                                <path d="M19.5140928,14.5955876 C12.2454661,4.86519588 6.82492171,0 3.25245967,0 C-0.320002381,0 -0.949502858,8.37824684 1.36395824,25.1347405" id="路径-13" stroke="#38160C" stroke-width="2.94" fill="#D88D51" stroke-linecap="round" stroke-linejoin="round"></path>
                                <path d="M4.58746949,7.33458069 C6.10983723,6.65612121 14.944073,15.0002063 12.5359954,17.0480788 C10.1279178,19.0959514 6.96878058,20.8112537 5.57845198,19.1884829 C4.18812338,17.5657122 3.06510175,8.01304018 4.58746949,7.33458069 Z" id="路径-14" fill="#C06339"></path>
                            </g>
                            <g id="编组-12" transform="translate(32.643507, 0.166331)">
                                <g id="椭圆形" transform="translate(50.226364, 48.197698) rotate(30.000000) translate(-50.226364, -48.197698) translate(11.429448, 14.943200)" fill="#D88D51" fill-rule="nonzero">
                                    <path d="M38.1957199,64.4492049 C48.5770852,61.8143808 76.7046597,50.1309221 77.5708561,33.880046 C78.4370524,17.6291699 54.637331,1.77635684e-15 35.3639902,1.77635684e-15 C16.0906494,1.77635684e-15 -4.29376997,15.2814376 0.789752379,43.5975568 C5.87327478,71.9136759 27.8143545,67.084029 38.1957199,64.4492049 Z" id="path-46"></path>
                                </g>
                                <g id="路径-Clipped" transform="translate(11.429448, 14.943199)">
                                    <mask id="mask-61" fill="white">
                                        <use xlink:href="#path-60"></use>
                                    </mask>
                                    <g id="path-46"></g>
                                    <path d="M5.74877808,14.6427157 C-3.12881791,39.2711738 13.8070827,47.1088306 24.6952166,50.5121494 L25.4040135,50.7302494 C25.5205729,50.7655721 25.6363175,50.8003922 25.7512049,50.834726 L26.4299051,51.0350244 L26.4299051,51.0350244 L27.4049437,51.3153105 L27.4049437,51.3153105 L27.7174721,51.4037564 C28.3776061,51.5900435 29.119327,51.7805827 29.9318088,51.9704825 L30.6452984,52.1329831 C31.984207,52.4301957 33.4902133,52.7223784 35.1213072,52.9905507 L36.0231476,53.1343311 C47.9017779,54.9695555 65.6858739,55.4239864 74.3971927,47.7302691 C73.8991955,49.7066294 73.1307725,51.5427396 72.0633594,53.183209 C63.2765292,66.6873766 33.5887358,62.9553208 22.9940765,60.0568672 L22.3663833,59.8808632 L22.3663833,59.8808632 L21.7223461,59.6965956 L21.7223461,59.6965956 L21.0546929,59.5018376 C20.8284313,59.4350824 20.598572,59.3664476 20.3654531,59.2958021 L19.6566562,59.0777021 C8.76852228,55.6743833 -8.16737833,47.8367265 0.710217679,23.2082684 C2.42982548,18.4376876 4.63222648,14.4134973 7.18520288,11.0735701 C6.67510678,12.2137204 6.19564118,13.4030165 5.74877808,14.6427157 Z" id="路径" fill="#C06038" fill-rule="nonzero" mask="url(#mask-61)"></path>
                                </g>
                                <g id="椭圆形-Clipped" transform="translate(11.429448, 14.943199)">
                                    <mask id="mask-63" fill="white">
                                        <use xlink:href="#path-62"></use>
                                    </mask>
                                    <g id="path-46"></g>
                                    <ellipse id="椭圆形" fill="#FDE8CC" fill-rule="nonzero" mask="url(#mask-63)" transform="translate(34.541694, 50.909305) rotate(22.000000) translate(-34.541694, -50.909305) " cx="34.5416936" cy="50.9093046" rx="34.5141388" ry="15.6195373"></ellipse>
                                </g>
                                <g id="椭圆形-Clipped" transform="translate(11.429448, 14.943199)">
                                    <mask id="mask-65" fill="white">
                                        <use xlink:href="#path-64"></use>
                                    </mask>
                                    <g id="path-46"></g>
                                    <ellipse id="椭圆形" fill="#FDE8CC" fill-rule="nonzero" mask="url(#mask-65)" cx="60.714653" cy="55.1722365" rx="17.3830334" ry="9.8251928"></ellipse>
                                </g>
                                <g id="椭圆形-Clipped" transform="translate(11.429448, 14.943199)">
                                    <mask id="mask-67" fill="white">
                                        <use xlink:href="#path-66"></use>
                                    </mask>
                                    <g id="path-46"></g>
                                    <ellipse id="椭圆形" fill="#FDE8CC" fill-rule="nonzero" mask="url(#mask-67)" transform="translate(38.167095, 37.556487) rotate(-30.000000) translate(-38.167095, -37.556487) " cx="38.167095" cy="37.5564874" rx="18.8946015" ry="30.4832905"></ellipse>
                                </g>
                                <g id="椭圆形备份-7-Clipped" transform="translate(11.429448, 14.943199)">
                                    <mask id="mask-69" fill="white">
                                        <use xlink:href="#path-68"></use>
                                    </mask>
                                    <g id="path-46"></g>
                                    <ellipse id="椭圆形备份-7" fill="#FDE8CC" fill-rule="nonzero" mask="url(#mask-69)" transform="translate(77.655659, 23.572253) rotate(8.000000) translate(-77.655659, -23.572253) " cx="77.6556591" cy="23.5722529" rx="16.3753213" ry="30.4832905"></ellipse>
                                </g>
                                <g id="椭圆形-Clipped" transform="translate(11.429448, 14.943199)">
                                    <mask id="mask-71" fill="white">
                                        <use xlink:href="#path-70"></use>
                                    </mask>
                                    <g id="path-46"></g>
                                    <ellipse id="椭圆形" fill="#FDCC9E" fill-rule="nonzero" mask="url(#mask-71)" cx="61.7368144" cy="48.8833778" rx="6.04627249" ry="3.52699229"></ellipse>
                                </g>
                                <g id="形状结合-Clipped" transform="translate(11.429448, 14.943199)">
                                    <mask id="mask-73" fill="white">
                                        <use xlink:href="#path-72"></use>
                                    </mask>
                                    <g id="path-46"></g>
                                    <path d="M27.7174721,51.4037564 C34.8131517,53.4061282 51.3351981,55.8997713 63.8387329,52.8101241 C65.1982454,54.6647728 66.1609434,56.5014417 66.6672135,58.2583464 C54.4463104,65.6454821 31.4162518,62.4349508 22.6789117,59.9693091 C19.9079717,59.1873611 16.3343141,58.1251023 12.7792444,56.4640133 C4.67545948,50.2233841 0.434308279,43.1936849 2.54074118,37.9800804 C2.98720518,36.8750432 3.69546948,35.9094055 4.63128008,35.0845727 C8.67753568,45.689849 20.7414039,49.4351384 27.7174721,51.4037564 Z" id="形状结合" fill="#FDCC9E" fill-rule="nonzero" mask="url(#mask-73)"></path>
                                </g>
                                <g id="路径-20-Clipped" transform="translate(11.429448, 14.943199)">
                                    <mask id="mask-75" fill="white">
                                        <use xlink:href="#path-74"></use>
                                    </mask>
                                    <g id="path-46"></g>
                                    <path d="M27.0912991,0.5004046 L28.2608904,3.2297888 C37.477916,1.4101993 47.1233683,3.5891471 57.1972472,9.7666321 C54.7698954,6.1251323 50.740668,3.4395492 45.109565,1.7098826 C39.4784621,-0.0197839 33.4723734,-0.4229432 27.0912991,0.5004046 Z" id="路径-20" fill="#E6BA7F" fill-rule="nonzero" mask="url(#mask-75)"></path>
                                </g>
                            </g>
                            <path d="M94.7249362,64.6025548 C97.4179244,69.5956829 101.556711,70.614466 107.141296,67.6589042 C109.669552,68.9386927 112.248845,68.0844045 114.879178,65.0960396" id="路径-11" stroke="#FDCC9E" stroke-width="2.94" stroke-linecap="round" stroke-linejoin="round"></path>
                            <g id="编组-9" transform="translate(99.763497, 57.946637)">
                                <ellipse id="椭圆形" fill="#38160C" fill-rule="nonzero" cx="6.04627249" cy="3.52699229" rx="6.04627249" ry="3.52699229"></ellipse>
                                <ellipse id="椭圆形" fill="#492013" fill-rule="nonzero" cx="6.80205656" cy="2.26735219" rx="2.26735219" ry="1.2596401"></ellipse>
                                <line x1="7.04012853" y1="6.80205656" x2="7.04012853" y2="10.5198865" id="路径-12" stroke="#38160C" stroke-width="2.94" stroke-linecap="round" stroke-linejoin="round"></line>
                            </g>
                            <path d="M96.767669,66.0188353 C95.0141778,66.3820789 93.5600972,67.4782519 92.4054271,69.3073543 C91.250757,71.1364567 92.7048376,70.0402837 96.767669,66.0188353 Z" id="路径-10" stroke="#FDCC9E" stroke-width="2.94" stroke-linecap="round" stroke-linejoin="round"></path>
                            <path d="M95.5153716,63.0448805 C96.3172251,62.9178164 97.0702617,63.4648413 97.1973258,64.2666948 C97.3243899,65.0685483 96.777365,65.8215848 95.9755115,65.9486489 C94.3316023,66.2091477 93.0884798,67.0415257 92.1575631,68.5161824 C91.7241845,69.2026934 90.8163347,69.4078979 90.1298236,68.9745193 C89.4433126,68.5411408 89.2381082,67.6332909 89.6714868,66.9467799 C91.0499102,64.7632318 93.0273989,63.4391321 95.5153716,63.0448805 Z" id="路径-10" fill="#38160C" fill-rule="nonzero"></path>
                            <path d="M92.5828616,64.8481414 C93.2820439,64.4355175 94.1833409,64.667819 94.5959648,65.3670013 C97.1285744,69.6584538 100.816024,70.4879846 106.27608,67.8471327 C106.672401,67.6554454 107.133771,67.6514762 107.533331,67.8363166 C109.664879,68.8223923 111.844416,68.1626631 114.324245,65.5878696 C114.887431,65.0031165 115.818019,64.9856329 116.402772,65.5488187 C116.987525,66.1120045 117.005009,67.0425928 116.441823,67.6273459 C113.4051,70.78036 110.20637,71.9120412 107.046506,70.8080165 L106.953964,70.7735696 L106.895646,70.8010355 C100.554154,73.6312483 95.4888965,72.4125607 92.2309041,67.1376995 L92.0640017,66.8612446 C91.6513778,66.1620623 91.8836793,65.2607653 92.5828616,64.8481414 Z" id="路径-11" fill="#38160C" fill-rule="nonzero"></path>
                            <path d="M79.4369448,15.109531 C98.7102857,15.109531 122.510007,32.7387008 121.643811,48.9895769 C121.080783,59.5526464 108.999823,68.185982 97.7611397,73.6589295 L96.7264751,74.1551125 L95.6987554,74.633128 C94.3340525,75.2582746 92.9936303,75.8344007 91.7005327,76.3592119 L90.7399429,76.7431628 L89.7992602,77.1076556 L88.8806449,77.4524751 L87.9862574,77.7774063 L87.1182581,78.0822339 L86.2788074,78.3667429 L85.4700655,78.6307183 C85.3379543,78.6729911 85.2072126,78.7143994 85.0778855,78.7549386 L84.3192577,78.9877102 L83.5967397,79.1994103 L82.9124918,79.3898239 C82.8017597,79.4197736 82.6927122,79.4488275 82.5853943,79.476981 L81.6321483,79.7191763 L80.628324,79.966003 L79.5697499,80.2151398 L78.8358907,80.3796872 L78.0811084,80.5410203 C77.9536435,80.5675471 77.8253636,80.5938693 77.6962972,80.6199515 L76.9126877,80.7732827 C76.7805888,80.7982638 76.6477601,80.8229343 76.5142302,80.8472587 L75.7048625,80.9887713 C75.5686411,81.0115706 75.4317752,81.0339532 75.2942932,81.0558838 L74.4622365,81.1817609 C63.4154739,82.7602833 48.8786898,81.0768218 44.8627071,58.7070877 C39.7791847,30.3909686 60.163604,15.109531 79.4369448,15.109531 Z M79.4369448,18.049531 C70.2661722,18.049531 61.2580601,21.7684136 55.165215,28.2958765 C48.3643785,35.5818334 45.5349656,45.8135541 47.7564441,58.1875823 C49.8587954,69.8980507 54.9000925,75.8911459 62.3452814,77.9011335 C67.5287826,79.3005302 72.867496,78.8279161 80.398998,76.9942752 L81.545424,76.7090852 C87.8095819,75.1192217 96.8724088,71.327366 103.964551,66.8881138 C113.052554,61.1995733 118.38157,54.9569095 118.707978,48.8330926 C119.448101,34.9475177 97.7941415,18.049531 79.4369448,18.049531 Z" id="椭圆形" fill="#38160C" fill-rule="nonzero" transform="translate(82.869870, 48.364030) rotate(30.000000) translate(-82.869870, -48.364030) "></path>
                            <g id="眼睛" transform="translate(78.601543, 39.976904)" fill-rule="nonzero">
                                <circle id="椭圆形" fill="#38160C" cx="6.55012853" cy="6.88489865" r="6.55012853"></circle>
                                <ellipse id="椭圆形备份-5" fill="#38160C" transform="translate(34.511520, 7.039856) rotate(-8.000000) translate(-34.511520, -7.039856) " cx="34.5115197" cy="7.03985559" rx="3.97686375" ry="6.55012853"></ellipse>
                                <circle id="椭圆形" fill="#FFFFFF" cx="9.06940874" cy="5.37333052" r="1.51156812"></circle>
                                <ellipse id="椭圆形" fill="#FFFFFF" transform="translate(32.876607, 5.373331) rotate(-7.000000) translate(-32.876607, -5.373331) " cx="32.8766068" cy="5.37333055" rx="1.13367609" ry="1.51156812"></ellipse>
                            </g>
                            <g id="松果" transform="translate(93.836624, 70.743752)">
                                <g id="编组-25" transform="translate(1.511568, 0.000000)">
                                    <g id="椭圆形" fill="#FDE8CC" fill-rule="nonzero">
                                        <path d="M10.0771208,20.1542416 C16.9014353,20.1542416 21.2962944,15.642561 19.8933133,10.0771208 C18.4903323,4.51168067 14.0954732,8.04911693e-16 10.0771208,8.04911693e-16 C6.05876845,8.04911693e-16 1.66390935,4.51168067 0.260928296,10.0771208 C-1.14205276,15.642561 3.25280633,20.1542416 10.0771208,20.1542416 Z" id="path-48"></path>
                                    </g>
                                    <g id="矩形-Clipped">
                                        <mask id="mask-77" fill="white">
                                            <use xlink:href="#path-76"></use>
                                        </mask>
                                        <g id="path-48"></g>
                                        <path d="M11.1123699,-2.60541621 C13.755954,-2.60541621 15.8990023,-0.46236789 15.8990023,2.18121618 C15.8990023,4.82480026 13.755954,6.96784858 11.1123699,6.96784858 C8.46878589,6.96784858 6.32573757,4.82480026 6.32573757,2.18121618 C6.32573757,-0.46236789 8.46878589,-2.60541621 11.1123699,-2.60541621 Z" id="矩形" fill="#FDCC9E" fill-rule="nonzero" mask="url(#mask-77)" transform="translate(11.112370, 2.181216) rotate(-5.000000) translate(-11.112370, -2.181216) "></path>
                                    </g>
                                    <g id="椭圆形" stroke-linecap="round" stroke-linejoin="round" stroke="#38160C" stroke-width="2.94">
                                        <path d="M10.0771208,20.1542416 C16.9014353,20.1542416 21.2962944,15.642561 19.8933133,10.0771208 C18.4903323,4.51168067 14.0954732,8.04911693e-16 10.0771208,8.04911693e-16 C6.05876845,8.04911693e-16 1.66390935,4.51168067 0.260928296,10.0771208 C-1.14205276,15.642561 3.25280633,20.1542416 10.0771208,20.1542416 Z" id="path-50"></path>
                                    </g>
                                </g>
                                <rect id="矩形" stroke="#38160C" stroke-width="2.94" fill="#904D1D" fill-rule="nonzero" stroke-linecap="round" stroke-linejoin="round" x="0" y="13.604113" width="23.1773779" height="6.55012853" rx="3.27506426"></rect>
                                <rect id="矩形" fill="#D88D51" fill-rule="nonzero" x="6.55012853" y="14.611825" width="12.092545" height="2.01542416" rx="1.00771208"></rect>
                                <rect id="矩形" fill="#38160C" fill-rule="nonzero" x="10.0771208" y="18.6426734" width="3.02313625" height="6.04627249" rx="1.51156812"></rect>
                            </g>
                            <path d="M106.258201,70.0391811 L107.376762,70.0391811 C108.45924,70.0391811 109.336762,70.916703 109.336762,71.9991811 L109.336762,73.1177415 C109.336762,74.2002196 108.45924,75.0777415 107.376762,75.0777415 L106.258201,75.0777415 C105.175723,75.0777415 104.298201,74.2002196 104.298201,73.1177415 L104.298201,71.9991811 C104.298201,70.916703 105.175723,70.0391811 106.258201,70.0391811 Z" id="矩形" stroke="#38160C" stroke-width="2.94" fill="#FFFFFF" stroke-linecap="round" stroke-linejoin="round" transform="translate(106.817481, 72.558461) rotate(-5.000000) translate(-106.817481, -72.558461) "></path>
                            <g id="手" transform="translate(60.152741, 78.984102)">
                                <g id="编组-24" transform="translate(1.821552, 0.628344)">
                                    <g id="形状结合" fill="#D88D51" fill-rule="nonzero">
                                        <path d="M10.4215537,0 C15.1617326,4.40903459 20.8742378,5.08689386 27.5590693,2.03357782 C28.8194869,1.310828 30.3838627,0.883224213 32.0785066,0.883224213 C36.2525867,0.883224213 39.6363472,3.4774406 39.6363472,6.67756869 C39.6363472,9.87769677 36.2525867,12.4719132 32.0785066,12.4719132 C31.980579,12.4719132 31.8830864,12.4704853 31.7860622,12.4676552 L31.7888755,12.4719132 C26.9880147,16.5309722 21.6871318,18.5605017 15.8862267,18.5605017 C10.0853216,18.5605017 4.7899127,15.5232601 8.12834796e-17,9.44877691 L10.4215537,0 Z" id="path-52"></path>
                                    </g>
                                    <g id="路径-21-Clipped">
                                        <mask id="mask-79" fill="white">
                                            <use xlink:href="#path-78"></use>
                                        </mask>
                                        <g id="path-52"></g>
                                        <path d="M38.6286351,6.67756869 C33.771148,6.10043861 31.7429306,6.10043861 28.7197943,7.93720879 C25.6966581,9.77397897 17.1311054,13.1271231 13.1907322,12.4452196 C9.25035899,11.7633161 7.51650868,9.72186295 5.52371867,8.34914446 C3.53092866,6.97642597 0.732726473,7.85709155 1.20158395,10.9336515 C1.67044143,14.0102114 7.28294016,18.6426735 11.5886889,18.6426735 C15.8944377,18.6426735 23.9200328,17.8734564 26.8237696,15.6195373 C28.7595942,14.1169245 32.4147386,12.5549626 37.7892031,10.9336515 C41.5871492,8.48101634 41.8669599,7.06232207 38.6286351,6.67756869 Z" id="路径-21" fill="#C06339" fill-rule="nonzero" mask="url(#mask-79)"></path>
                                    </g>
                                    <g id="路径-23-Clipped">
                                        <mask id="mask-81" fill="white">
                                            <use xlink:href="#path-80"></use>
                                        </mask>
                                        <g id="path-52"></g>
                                        <path d="M9.79764979,1.2481319 C10.2815244,0.481012868 11.2252595,0.301469248 11.9055412,0.847109997 C15.3917133,3.64330106 18.9382587,4.55454779 22.6430569,3.63835049 C23.6529902,3.3885938 24.60984,3.08209114 25.7688968,2.6532879 L28.1346426,1.75300529 L28.7736047,1.51655512 L28.8351218,1.49466849 C29.8898972,1.12303916 30.760894,0.885190763 31.621308,0.757733299 C33.9304095,0.415674492 36.052223,0.926006724 38.3511424,2.50587977 C39.0640081,2.99577837 39.2897148,4.0445789 38.8552724,4.84844132 C38.42083,5.65230375 37.4907529,5.90682171 36.7778872,5.41692311 C35.0663718,4.24072828 33.6383501,3.89726479 32.0150631,4.13773046 C31.4070911,4.22779241 30.7578424,4.39875665 29.9585102,4.67161674 L29.6828629,4.76773182 L28.4760789,5.21953105 L27.0202434,5.77713778 C25.6329732,6.29933006 24.5047684,6.66800209 23.2906584,6.96825171 C18.7269652,8.0968539 14.3152113,6.96330115 10.1532763,3.62509374 C9.4729946,3.079453 9.3137752,2.01525093 9.79764979,1.2481319 Z" id="路径-23" fill="#E5B97F" fill-rule="nonzero" mask="url(#mask-81)"></path>
                                    </g>
                                </g>
                                <path d="M32.3884907,0 C37.3229217,0 41.4578995,3.17014961 41.4578995,7.30591261 C41.4578995,11.266701 37.6654031,14.3418534 33.0102384,14.594969 L32.7354322,14.6065886 L32.6479687,14.6083336 L32.5392008,14.6977419 C27.8463829,18.4971294 22.6688318,20.5029818 17.0484801,20.6865487 L16.5202761,20.6984185 L16.1962108,20.7004137 C10.4853248,20.7004137 5.26476803,18.0158396 0.57496678,12.7479416 C0.22430256,12.4708273 3.55271368e-15,12.0426057 3.55271368e-15,11.5619954 C3.55271368e-15,10.7271794 0.6767521,10.0504273 1.51156813,10.0504273 C2.03024333,10.0504273 2.48790273,10.3116669 2.76014633,10.7097461 L3.29876443,11.25072 C7.13344903,15.3748043 11.2201877,17.4868592 15.5901568,17.6649676 L15.9594192,17.6754058 L16.1962108,17.6772775 C21.4669051,17.6772775 26.2882605,15.8924935 30.7095939,12.2891124 L31.0386525,12.0164981 C31.2715264,11.7898433 31.5689556,11.6372612 31.9072432,11.5957997 L32.054656,11.5849418 L32.1409759,11.5850985 C32.223245,11.5874899 32.3057596,11.5886889 32.3884907,11.5886889 C35.80222,11.5886889 38.4347632,9.57040581 38.4347632,7.30591261 C38.4347632,5.04141941 35.80222,3.02313621 32.3884907,3.02313621 C31.1117679,3.02313621 29.9020695,3.30943801 28.8899393,3.82721101 L28.6189003,3.97411961 L28.5574942,4.00748411 L28.4946116,4.03797481 C22.2343331,6.89666331 16.6140389,6.70740601 11.8359274,3.44763671 C11.3921679,3.17903061 11.0936843,2.69432861 11.0936843,2.13991201 C11.0936843,1.30509601 11.7704364,0.62834391 12.6052525,0.62834391 C12.9627735,0.62834391 13.291304,0.75246659 13.5501026,0.95997031 L13.5523307,0.95830688 C17.3439455,3.53610141 21.7238249,3.70667851 26.8783944,1.44923213 L27.1877799,1.31 L27.238859,1.28798603 L27.188,1.308 L27.3155402,1.23981042 C28.6250394,0.53068975 30.1440134,0.10865609 31.7390531,0.01833422 L32.1393205,0.00269024 L32.3884907,0 Z" id="形状结合" fill="#38160C" fill-rule="nonzero"></path>
                                <rect id="矩形备份-19" fill="#38160C" fill-rule="nonzero" x="32.8923468" y="4.53470441" width="7.55784062" height="2.01542416" rx="1.00771208"></rect>
                                <rect id="矩形备份-20" fill="#38160C" fill-rule="nonzero" x="32.8923468" y="7.55784061" width="7.55784062" height="2.01542416" rx="1.00771208"></rect>
                                <g id="编组-22" transform="translate(49.695246, 0.848401)">
                                    <g id="三角形" transform="translate(6.155812, 6.123695) rotate(-90.000000) translate(-6.155812, -6.123695) translate(0.032117, 1.588990)" fill="#D88D51" fill-rule="nonzero">
                                        <path d="M6.07944706,0 C8.90926378,0 10.9126144,1.72707996 12.089499,5.18123989 C12.6131531,6.71819396 11.7917204,8.38865139 10.2547691,8.91231399 C9.94946768,9.01633479 9.62912998,9.06940869 9.30659423,9.06940869 L2.94001226,9.06940869 C1.31628833,9.06940869 0,7.75313269 0,6.12940874 C0,5.82553057 0.04711136,5.52348927 0.13965561,5.23404583 C1.255316,1.74468194 3.23524648,0 6.07944706,0 Z" id="path-54"></path>
                                    </g>
                                    <g id="路径-22-Clipped" transform="translate(0.000000, 1.556872)">
                                        <mask id="mask-83" fill="white">
                                            <use xlink:href="#path-82"></use>
                                        </mask>
                                        <g id="path-54"></g>
                                        <path d="M2.0080536,5.15256752 C7.20249488,4.48075947 10.0966493,4.48075947 10.6905169,5.15256752 C11.5813184,6.16027961 10.5362723,8.67675299 9.32555484,9.15672229 C8.1148374,9.63669159 8.07599381,11.0271046 5.53504589,9.63669159 C3.84108061,8.70974959 2.66541651,7.21504157 2.0080536,5.15256752 Z" id="路径-22" fill="#C06339" fill-rule="nonzero" mask="url(#mask-83)"></path>
                                    </g>
                                    <g id="矩形-Clipped" transform="translate(0.000000, 1.556872)">
                                        <mask id="mask-85" fill="white">
                                            <use xlink:href="#path-84"></use>
                                        </mask>
                                        <g id="path-54"></g>
                                        <rect id="矩形" fill="#38160C" fill-rule="nonzero" mask="url(#mask-85)" x="1.83977356" y="2.12943128" width="5.03856041" height="2.01542416" rx="1.00771208"></rect>
                                    </g>
                                    <g id="矩形备份-18-Clipped" transform="translate(0.000000, 1.556872)">
                                        <mask id="mask-87" fill="white">
                                            <use xlink:href="#path-86"></use>
                                        </mask>
                                        <g id="path-54"></g>
                                        <rect id="矩形备份-18" fill="#38160C" fill-rule="nonzero" mask="url(#mask-87)" x="1.83977356" y="5.15256752" width="5.03856041" height="2.01542416" rx="1.00771208"></rect>
                                    </g>
                                    <g id="三角形" stroke-linecap="round" stroke-linejoin="round" transform="translate(6.155812, 6.123695) rotate(-90.000000) translate(-6.155812, -6.123695) translate(0.032117, 1.588990)" stroke="#38160C" stroke-width="2.94">
                                        <path d="M6.07944706,0 C8.90926378,0 10.9126144,1.72707996 12.089499,5.18123989 C12.6131531,6.71819396 11.7917204,8.38865139 10.2547691,8.91231399 C9.94946768,9.01633479 9.62912998,9.06940869 9.30659423,9.06940869 L2.94001226,9.06940869 C1.31628833,9.06940869 0,7.75313269 0,6.12940874 C0,5.82553057 0.04711136,5.52348927 0.13965561,5.23404583 C1.255316,1.74468194 3.23524648,0 6.07944706,0 Z" id="path-56"></path>
                                    </g>
                                </g>
                            </g>
                            <g id="耳朵" transform="translate(52.683460, 1.514760)" fill-rule="nonzero">
                                <path d="M20.6580977,16.3241485 C12.6268011,5.44138282 6.82492171,0 3.25245967,0 C-0.320002381,0 -0.949502858,8.37824684 1.36395824,25.1347405" id="路径-13" stroke="#38160C" stroke-width="2.94" fill="#D88D51" stroke-linecap="round" stroke-linejoin="round"></path>
                                <path d="M5.06070671,6.48074992 C6.58307445,5.80229044 15.4173102,14.1463755 13.0092326,16.1942481 C10.601155,18.2421206 7.4420178,19.9574229 6.0516892,18.3346522 C4.6613606,16.7118814 3.53833897,7.1592094 5.06070671,6.48074992 Z" id="路径-14" fill="#C06339"></path>
                            </g>
                        </g>
                    </g>
                </g>
            </g>
            <g id="Content-Clipped">
                <mask id="mask-89" fill="white">
                    <use xlink:href="#path-88"></use>
                </mask>
                <g id="path-4"></g>
            </g>
        </g>
    </g>
</svg>