<?xml version="1.0" encoding="UTF-8"?>
<svg width="32px" height="32px" viewBox="0 0 32 32" version="1.1" xmlns="http://www.w3.org/2000/svg" xmlns:xlink="http://www.w3.org/1999/xlink">
    <title>Twitter</title>
    <g id="页面-1" stroke="none" stroke-width="1" fill="none" fill-rule="evenodd">
        <g id="nutbox-设置-创建社区后-Social" transform="translate(-404.000000, -292.000000)">
            <g id="编组-3" transform="translate(280.000000, 116.000000)">
                <g id="编组-2备份" transform="translate(24.000000, 168.000000)">
                    <g id="编组-4" transform="translate(100.000000, 0.000000)">
                        <g id="Twitter" transform="translate(0.000000, 8.000000)">
                            <rect id="矩形备份-7" fill="#F6F7F9" x="0" y="0" width="32" height="32" rx="16"></rect>
                            <g transform="translate(8.000000, 11.000000)" fill="#242629" fill-rule="nonzero" id="twitter">
                                <g>
                                    <path d="M14.5980707,3.16493953 C14.5980707,8.8575264 10.8553055,12.956703 5.35048232,13.1366041 C3.02250804,13.3165053 1.42765273,12.6097507 0,11.5431938 C1.59485531,11.723095 3.74276527,11.1962416 4.79742765,10.1168346 C3.20257235,10.1168346 2.3022508,9.21732873 1.77491961,7.99657083 L3.20257235,7.99657083 C1.77491961,7.45686733 0.694533762,6.39031042 0.694533762,4.61699894 C1.04180064,4.7969001 1.40192926,4.96395118 2.1221865,4.96395118 C0.874598071,4.25719661 0.167202572,1.94418162 1.05466238,0.517822385 C2.64951768,2.29113387 4.60450161,3.89739428 7.83279743,4.06444536 C6.93247588,0.517822385 11.5755627,-1.28118927 13.5305466,1.0446758 C14.4308682,0.864774633 14.9581994,0.517822385 15.6527331,0.145169972 C15.4726688,1.0446758 14.9453376,1.57152921 14.2250804,1.91848146 C14.9324759,1.91848146 15.4726688,1.73858029 16,1.39162805 C15.8327974,2.09838262 15.1254019,2.81798728 14.5980707,3.16493953 Z" id="路径"></path>
                                </g>
                            </g>
                        </g>
                    </g>
                </g>
            </g>
        </g>
    </g>
</svg>