<?xml version="1.0" standalone="no"?><!DOCTYPE svg PUBLIC "-//W3C//DTD SVG 1.1//EN" "http://www.w3.org/Graphics/SVG/1.1/DTD/svg11.dtd"><svg t="1625748881442" class="icon" viewBox="0 0 1024 1024" version="1.1" xmlns="http://www.w3.org/2000/svg" p-id="2403" xmlns:xlink="http://www.w3.org/1999/xlink" width="200" height="200"><defs><style type="text/css"></style></defs><path d="M803.786667 414.4a5.333333 5.333333 0 0 1-4.106667-4.053333 304 304 0 0 0-600.746667 50.666666 5.333333 5.333333 0 0 1-4.16 4.96A196.16 196.16 0 0 0 42.666667 660.426667C44.426667 768 134.986667 853.333333 242.666667 853.333333h92.373333a5.333333 5.333333 0 0 0 5.333333-5.333333v-64a5.333333 5.333333 0 0 0-5.333333-5.333333H241.653333c-60.693333 0-114.026667-43.413333-122.986666-103.466667a121.866667 121.866667 0 0 1 95.253333-137.013333l53.333333-11.093334a5.333333 5.333333 0 0 0 4.266667-5.333333l1.706667-54.613333a229.333333 229.333333 0 0 1 453.866666-38.773334L736.533333 474.666667a5.333333 5.333333 0 0 0 4.266667 4.213333l45.973333 8.533333a147.04 147.04 0 0 1-26.08 291.253334H554.666667a5.333333 5.333333 0 0 1-5.333334-5.333334v-182.293333a5.333333 5.333333 0 0 1 9.12-3.786667l48 48a5.333333 5.333333 0 0 0 7.52 0l45.28-45.226666a5.333333 5.333333 0 0 0 0-7.573334l-94.453333-94.4-49.013333-49.066666a5.333333 5.333333 0 0 0-7.573334 0l-49.013333 49.066666-94.293333 94.24a5.333333 5.333333 0 0 0 0 7.573334l45.28 45.226666a5.333333 5.333333 0 0 0 7.52 0l48-48a5.333333 5.333333 0 0 1 9.12 3.786667V848a5.333333 5.333333 0 0 0 5.333333 5.333333h279.626667a221.706667 221.706667 0 0 0 44.16-438.933333z" p-id="2404" fill="#ffdb1b"></path></svg>