<?xml version="1.0" encoding="UTF-8"?>
<svg width="24px" height="24px" viewBox="0 0 24 24" version="1.1" xmlns="http://www.w3.org/2000/svg" xmlns:xlink="http://www.w3.org/1999/xlink">
    <title>官方认证icon</title>
    <defs>
        <linearGradient x1="12.0028303%" y1="0%" x2="83.4229538%" y2="83.4429218%" id="linearGradient-1">
            <stop stop-color="#FFE062" offset="0%"></stop>
            <stop stop-color="#FFB700" offset="100%"></stop>
        </linearGradient>
        <linearGradient x1="0%" y1="0%" x2="100%" y2="100%" id="linearGradient-2">
            <stop stop-color="#4AC0FC" offset="0%"></stop>
            <stop stop-color="#4393FC" offset="100%"></stop>
        </linearGradient>
        <path d="M1.84378764,0.463250659 C1.54727949,-0.00269071501 0.929192032,-0.140043484 0.463250659,0.156464663 C-0.00269071501,0.45297281 -0.140043484,1.07106027 0.156464663,1.53700164 L3.65646466,7.03700164 C4.04941879,7.65450099 4.95083351,7.65450099 5.34378764,7.03700164 L8.84378764,1.53700164 C9.14029579,1.07106027 9.00294302,0.45297281 8.53700164,0.156464663 C8.07106027,-0.140043484 7.45297281,-0.00269071501 7.15646466,0.463250659 L4.50012615,4.63749689 L1.84378764,0.463250659 Z" id="path-3"></path>
        <linearGradient x1="59.0230306%" y1="41.3340251%" x2="-39.6858722%" y2="177.687785%" id="linearGradient-5">
            <stop stop-color="#FFFFFF" offset="0%"></stop>
            <stop stop-color="#459FFC" offset="100%"></stop>
        </linearGradient>
    </defs>
    <g id="notbox-V2-web" stroke="none" stroke-width="1" fill="none" fill-rule="evenodd">
        <g id="nutbox-Community-List+官方认证v2" transform="translate(-601.000000, -208.000000)">
            <g id="编组-11备份-5" transform="translate(280.000000, 196.000000)">
                <g id="编组" transform="translate(24.000000, 12.000000)">
                    <g id="官方认证icon-24" transform="translate(297.000000, 0.000000)">
                        <g id="编组" transform="translate(2.000000, 2.000000)">
                            <path d="M10,0.404700538 L18.035254,4.92783122 C18.2673048,5.06180581 18.410254,5.30940108 18.410254,5.57735027 L18.410254,5.57735027 L18.410254,14.4226497 C18.410254,14.5566243 18.3745167,14.6855104 18.3097731,14.7976497 C18.2450294,14.909789 18.1512794,15.0051815 18.035254,15.0721688 L18.035254,15.0721688 L10.375,19.4948185 C10.2589746,19.5618058 10.1294873,19.5952995 10,19.5952995 C9.8705127,19.5952995 9.7410254,19.5618058 9.625,19.4948185 L9.625,19.4948185 L1.96474596,15.0721688 C1.73269515,14.9381942 1.58974596,14.6905989 1.58974596,14.4226497 L1.58974596,14.4226497 L1.58974596,5.57735027 C1.58974596,5.44337567 1.62548326,5.31448956 1.69022691,5.20235027 C1.75497056,5.09021098 1.84872056,4.99481851 1.96474596,4.92783122 L1.96474596,4.92783122 L9.625,0.505181486 C9.7410254,0.438194187 9.8705127,0.404700538 10,0.404700538 L10,0.404700538 Z" id="多边形" stroke="#E6E6E8" stroke-width="0.5" fill="url(#linearGradient-1)"></path>
                            <circle id="椭圆形" stroke="#FFFFFF" stroke-width="2" fill="url(#linearGradient-2)" cx="10" cy="10" r="11"></circle>
                            <g id="Group-7" transform="translate(5.499874, 6.999874)">
                                <g id="Rectangle-6">
                                    <mask id="mask-4" fill="white">
                                        <use xlink:href="#path-3"></use>
                                    </mask>
                                    <use id="Mask" fill="#E6E6E8" fill-rule="nonzero" xlink:href="#path-3"></use>
                                    <rect fill="url(#linearGradient-5)" mask="url(#mask-4)" x="4.00012615" y="-0.499873849" width="6" height="6"></rect>
                                </g>
                                <path d="M0.463250659,0.156464663 C0.929192032,-0.140043484 1.54727949,-0.00269071501 1.84378764,0.463250659 L1.84378764,0.463250659 L4.446,4.552 L4.46862813,4.59054786 C4.47347434,4.59788455 4.4783732,4.60516556 4.4833239,4.61239073 L4.50012615,4.63749689 C4.97376089,5.29969834 5.89068877,5.47384681 6.57579525,5.02130322 L6.57579525,5.02130322 L6.663,4.963 L5.34378764,7.03700164 C4.97394846,7.6181775 4.1537082,7.65236431 3.73088066,7.13956209 L3.65646466,7.03700164 L0.156464663,1.53700164 C-0.140043484,1.07106027 -0.00269071501,0.45297281 0.463250659,0.156464663 Z" id="Rectangle-13-Copy" fill="#FFFFFF" fill-rule="nonzero"></path>
                            </g>
                        </g>
                    </g>
                </g>
            </g>
        </g>
    </g>
</svg>