<?xml version="1.0" encoding="UTF-8"?>
<svg width="19px" height="18px" viewBox="0 0 19 18" version="1.1" xmlns="http://www.w3.org/2000/svg" xmlns:xlink="http://www.w3.org/1999/xlink">
    <title>wallet</title>
    <g id="页面-1" stroke="none" stroke-width="1" fill="none" fill-rule="evenodd">
        <g id="wallet" fill="#BDBFC2" fill-rule="nonzero">
            <path d="M18,0 C18.5522847,0 19,0.44771525 19,1 L19,11.5 C19,12.0522847 18.5522847,12.5 18,12.5 C17.4477153,12.5 17,12.0522847 17,11.5 L17,10.5 L12.5,10.5 C10.8431458,10.5 9.5,9.1568542 9.5,7.5 C9.5,5.84314575 10.8431458,4.5 12.5,4.5 L17,4.5 L17,2 L2,2 L2,14.587084 C4.43198473,15.1912328 6.94469813,15.5 9.5,15.5 C12.0610181,15.5 14.579249,15.1898495 17,14.5876207 L17.0161122,14.5879713 C17.1031529,14.5632387 17.1950304,14.55 17.29,14.55 C17.8422847,14.55 18.29,14.9977153 18.29,15.55 C18.29,16.0513154 17.9211092,16.4664717 17.4399666,16.53883 L17.5600474,16.5086407 C14.98048,17.1561452 12.2803958,17.5 9.5,17.5 C6.46278824,17.5 3.52140949,17.0896901 0.72827046,16.321477 C0.28478427,16.1939644 0,15.8157603 0,15.3855896 L0,1 C0,0.44771525 0.44771525,0 1,0 L18,0 Z M17,8.5 L17,6.5 L12.5,6.5 C11.9477153,6.5 11.5,6.9477153 11.5,7.5 C11.5,8.0128358 11.8860402,8.4355072 12.3833789,8.4932723 L12.5,8.5 L17,8.5 Z" id="形状结合"></path>
        </g>
    </g>
</svg>