<?xml version="1.0" encoding="UTF-8"?>
<svg width="16px" height="16px" viewBox="0 0 16 16" version="1.1" xmlns="http://www.w3.org/2000/svg" xmlns:xlink="http://www.w3.org/1999/xlink">
    <title>icon/contain/m</title>
    <g id="notbox-v2" stroke="none" stroke-width="1" fill="none" fill-rule="evenodd">
        <g id="NUTBOX备份" transform="translate(-630.000000, -353.000000)" fill="#FF4500" fill-rule="nonzero">
            <g id="编组-24" transform="translate(594.000000, 244.000000)">
                <g id="编组-23" transform="translate(24.000000, 101.000000)">
                    <g id="icon/contain/m" transform="translate(12.000000, 8.000000)">
                        <path d="M8,1 C11.8659932,1 15,4.13400675 15,8 C15,11.8659932 11.8659932,15 8,15 C4.13400675,15 1,11.8659932 1,8 C1,4.13400675 4.13400675,1 8,1 Z M8.01342773,2.52087402 C4.97586161,2.52087402 2.51342773,4.9833079 2.51342773,8.02087402 C2.51342773,11.0584401 4.97586161,13.520874 8.01342773,13.520874 C11.0509939,13.520874 13.5134277,11.0584401 13.5134277,8.02087402 C13.5134277,4.9833079 11.0509939,2.52087402 8.01342773,2.52087402 Z M8,10 C8.41421356,10 8.75,10.3357864 8.75,10.75 C8.75,11.1642136 8.41421356,11.5 8,11.5 C7.58578644,11.5 7.25,11.1642136 7.25,10.75 C7.25,10.3357864 7.58578644,10 8,10 Z M8,4 C8.41421356,4 8.75,4.33578644 8.75,4.75 L8.75,8.25 C8.75,8.66421356 8.41421356,9 8,9 C7.58578644,9 7.25,8.66421356 7.25,8.25 L7.25,4.75 C7.25,4.33578644 7.58578644,4 8,4 Z" id="形状结合"></path>
                    </g>
                </g>
            </g>
        </g>
    </g>
</svg>